G75*
%MOIN*%
%OFA0B0*%
%FSLAX25Y25*%
%IPPOS*%
%LPD*%
%AMOC8*
5,1,8,0,0,1.08239X$1,22.5*
%
%ADD10C,0.00000*%
%ADD11OC8,0.05200*%
%ADD12OC8,0.06300*%
%ADD13C,0.06300*%
%ADD14C,0.07400*%
%ADD15C,0.05200*%
%ADD16C,0.07000*%
%ADD17C,0.05150*%
%ADD18C,0.11220*%
%ADD19C,0.01600*%
%ADD20C,0.03562*%
D10*
X0011643Y0011643D02*
X0011643Y0208493D01*
X0208493Y0208493D01*
X0208493Y0011643D01*
X0011643Y0011643D01*
D11*
X0039831Y0052509D03*
X0039831Y0062509D03*
X0063493Y0043335D03*
X0063493Y0032312D03*
X0063493Y0021485D03*
X0103493Y0021485D03*
X0103493Y0032312D03*
X0103493Y0043335D03*
X0116721Y0031564D03*
X0116721Y0021564D03*
X0143887Y0044379D03*
X0148887Y0051879D03*
X0138887Y0051879D03*
X0114556Y0066839D03*
X0114556Y0076839D03*
X0177194Y0138493D03*
X0177194Y0178493D03*
X0176957Y0186918D03*
X0176957Y0196918D03*
X0196761Y0197351D03*
X0196761Y0187351D03*
X0189950Y0081761D03*
X0189950Y0071761D03*
D12*
X0149083Y0027076D03*
X0177194Y0126564D03*
D13*
X0177194Y0116564D03*
X0139083Y0027076D03*
D14*
X0204143Y0076643D03*
X0204143Y0086643D03*
X0204143Y0096643D03*
X0204143Y0106643D03*
X0204143Y0116643D03*
X0204143Y0126643D03*
X0204143Y0136643D03*
X0204143Y0146643D03*
X0114910Y0127627D03*
X0114910Y0117627D03*
X0114910Y0107627D03*
X0051643Y0041997D03*
X0051643Y0021997D03*
X0028257Y0021367D03*
X0028257Y0041367D03*
X0016643Y0076643D03*
X0016643Y0086643D03*
X0016643Y0096643D03*
X0016643Y0106643D03*
X0016643Y0116643D03*
X0016643Y0126643D03*
X0016643Y0136643D03*
X0016643Y0146643D03*
X0016564Y0156682D03*
X0016564Y0166682D03*
X0016564Y0176682D03*
X0016564Y0186682D03*
X0016564Y0196682D03*
D15*
X0125932Y0196721D02*
X0131132Y0196721D01*
X0131132Y0186721D02*
X0125932Y0186721D01*
X0125932Y0176721D02*
X0131132Y0176721D01*
X0131132Y0166721D02*
X0125932Y0166721D01*
X0125932Y0156721D02*
X0131132Y0156721D01*
X0131132Y0146721D02*
X0125932Y0146721D01*
X0125932Y0136721D02*
X0131132Y0136721D01*
X0131132Y0126721D02*
X0125932Y0126721D01*
X0125932Y0116721D02*
X0131132Y0116721D01*
X0131132Y0106721D02*
X0125932Y0106721D01*
X0125932Y0096721D02*
X0131132Y0096721D01*
X0131132Y0086721D02*
X0125932Y0086721D01*
X0125932Y0076721D02*
X0131132Y0076721D01*
X0131132Y0066721D02*
X0125932Y0066721D01*
X0155932Y0066721D02*
X0161132Y0066721D01*
X0161132Y0076721D02*
X0155932Y0076721D01*
X0155932Y0086721D02*
X0161132Y0086721D01*
X0161132Y0096721D02*
X0155932Y0096721D01*
X0155932Y0106721D02*
X0161132Y0106721D01*
X0161132Y0116721D02*
X0155932Y0116721D01*
X0155932Y0126721D02*
X0161132Y0126721D01*
X0161132Y0136721D02*
X0155932Y0136721D01*
X0155932Y0146721D02*
X0161132Y0146721D01*
X0161132Y0156721D02*
X0155932Y0156721D01*
X0155932Y0166721D02*
X0161132Y0166721D01*
X0161132Y0176721D02*
X0155932Y0176721D01*
X0155932Y0186721D02*
X0161132Y0186721D01*
X0161132Y0196721D02*
X0155932Y0196721D01*
D16*
X0202430Y0051957D03*
X0202430Y0044123D03*
X0202430Y0036288D03*
X0202430Y0028454D03*
X0202430Y0020619D03*
D17*
X0179792Y0043847D03*
X0176643Y0048572D03*
X0173493Y0043847D03*
X0170343Y0048572D03*
X0182942Y0048572D03*
D18*
X0191013Y0028493D03*
X0162272Y0028493D03*
D19*
X0157887Y0034022D02*
X0119920Y0034022D01*
X0120721Y0033221D02*
X0118378Y0035564D01*
X0115064Y0035564D01*
X0112721Y0033221D01*
X0112721Y0029907D01*
X0115064Y0027564D01*
X0118378Y0027564D01*
X0120721Y0029907D01*
X0120721Y0033221D01*
X0120721Y0032423D02*
X0156313Y0032423D01*
X0156329Y0032464D02*
X0155262Y0029887D01*
X0155262Y0027098D01*
X0156329Y0024522D01*
X0158301Y0022550D01*
X0160878Y0021483D01*
X0163667Y0021483D01*
X0166243Y0022550D01*
X0168215Y0024522D01*
X0169283Y0027098D01*
X0169283Y0029887D01*
X0168215Y0032464D01*
X0166243Y0034436D01*
X0163667Y0035503D01*
X0160878Y0035503D01*
X0158301Y0034436D01*
X0156329Y0032464D01*
X0155650Y0030825D02*
X0151769Y0030825D01*
X0150968Y0031626D02*
X0147199Y0031626D01*
X0144533Y0028960D01*
X0144533Y0025191D01*
X0147199Y0022526D01*
X0150968Y0022526D01*
X0153633Y0025191D01*
X0153633Y0028960D01*
X0150968Y0031626D01*
X0153368Y0029226D02*
X0155262Y0029226D01*
X0155262Y0027628D02*
X0153633Y0027628D01*
X0153633Y0026029D02*
X0155705Y0026029D01*
X0156421Y0024431D02*
X0152873Y0024431D01*
X0151275Y0022832D02*
X0158019Y0022832D01*
X0166526Y0022832D02*
X0186759Y0022832D01*
X0187042Y0022550D02*
X0189618Y0021483D01*
X0192407Y0021483D01*
X0194984Y0022550D01*
X0196956Y0024522D01*
X0197855Y0026694D01*
X0198276Y0025678D01*
X0199418Y0024536D01*
X0198276Y0023395D01*
X0197530Y0021594D01*
X0197530Y0019644D01*
X0198276Y0017843D01*
X0199654Y0016465D01*
X0201455Y0015719D01*
X0203405Y0015719D01*
X0205206Y0016465D01*
X0206584Y0017843D01*
X0206693Y0018106D01*
X0206693Y0013443D01*
X0013443Y0013443D01*
X0013443Y0072630D01*
X0013754Y0072319D01*
X0015628Y0071543D01*
X0017657Y0071543D01*
X0019531Y0072319D01*
X0020966Y0073754D01*
X0021743Y0075628D01*
X0021743Y0077657D01*
X0020966Y0079531D01*
X0019531Y0080966D01*
X0018406Y0081432D01*
X0018754Y0081545D01*
X0019525Y0081938D01*
X0020226Y0082447D01*
X0020838Y0083060D01*
X0021347Y0083760D01*
X0021740Y0084531D01*
X0022007Y0085355D01*
X0022143Y0086210D01*
X0022143Y0086442D01*
X0016843Y0086442D01*
X0016843Y0086843D01*
X0022143Y0086843D01*
X0022143Y0087075D01*
X0022007Y0087930D01*
X0021740Y0088754D01*
X0021347Y0089525D01*
X0020838Y0090226D01*
X0020226Y0090838D01*
X0019525Y0091347D01*
X0018754Y0091740D01*
X0018406Y0091853D01*
X0019531Y0092319D01*
X0019953Y0092740D01*
X0027159Y0085534D01*
X0027159Y0072070D01*
X0028448Y0070781D01*
X0035831Y0063397D01*
X0035831Y0060852D01*
X0038175Y0058509D01*
X0041488Y0058509D01*
X0043288Y0060309D01*
X0090979Y0060309D01*
X0115192Y0084521D01*
X0122514Y0084521D01*
X0122541Y0084455D01*
X0123666Y0083330D01*
X0125137Y0082721D01*
X0131928Y0082721D01*
X0133398Y0083330D01*
X0134523Y0084455D01*
X0135132Y0085926D01*
X0135132Y0087517D01*
X0134523Y0088987D01*
X0133398Y0090112D01*
X0131928Y0090721D01*
X0125137Y0090721D01*
X0123666Y0090112D01*
X0122541Y0088987D01*
X0122514Y0088921D01*
X0113369Y0088921D01*
X0112080Y0087633D01*
X0089156Y0064709D01*
X0043288Y0064709D01*
X0041488Y0066509D01*
X0038943Y0066509D01*
X0031559Y0073892D01*
X0031559Y0087357D01*
X0021743Y0097173D01*
X0021743Y0097657D01*
X0020966Y0099531D01*
X0019531Y0100966D01*
X0017898Y0101643D01*
X0019531Y0102319D01*
X0020966Y0103754D01*
X0021743Y0105628D01*
X0021743Y0107657D01*
X0020966Y0109531D01*
X0019531Y0110966D01*
X0017898Y0111643D01*
X0019531Y0112319D01*
X0020966Y0113754D01*
X0021743Y0115628D01*
X0021743Y0117657D01*
X0020966Y0119531D01*
X0019531Y0120966D01*
X0017898Y0121643D01*
X0019531Y0122319D01*
X0020966Y0123754D01*
X0021743Y0125628D01*
X0021743Y0127657D01*
X0020966Y0129531D01*
X0019531Y0130966D01*
X0017898Y0131643D01*
X0019531Y0132319D01*
X0020966Y0133754D01*
X0021743Y0135628D01*
X0021743Y0137657D01*
X0021457Y0138346D01*
X0057633Y0174521D01*
X0122514Y0174521D01*
X0122541Y0174455D01*
X0123666Y0173330D01*
X0125137Y0172721D01*
X0131928Y0172721D01*
X0133398Y0173330D01*
X0134523Y0174455D01*
X0135132Y0175926D01*
X0135132Y0177517D01*
X0134523Y0178987D01*
X0133398Y0180112D01*
X0131928Y0180721D01*
X0125137Y0180721D01*
X0123666Y0180112D01*
X0122541Y0178987D01*
X0122514Y0178921D01*
X0055810Y0178921D01*
X0021195Y0144306D01*
X0021743Y0145628D01*
X0021743Y0147657D01*
X0021457Y0148346D01*
X0057633Y0184521D01*
X0122514Y0184521D01*
X0122541Y0184455D01*
X0123666Y0183330D01*
X0125137Y0182721D01*
X0131928Y0182721D01*
X0133398Y0183330D01*
X0134523Y0184455D01*
X0135132Y0185926D01*
X0135132Y0187517D01*
X0134523Y0188987D01*
X0133398Y0190112D01*
X0131928Y0190721D01*
X0125137Y0190721D01*
X0123666Y0190112D01*
X0122541Y0188987D01*
X0122514Y0188921D01*
X0055810Y0188921D01*
X0054521Y0187633D01*
X0021033Y0154144D01*
X0021664Y0155667D01*
X0021664Y0157696D01*
X0020887Y0159571D01*
X0019453Y0161005D01*
X0017820Y0161682D01*
X0019453Y0162358D01*
X0020887Y0163793D01*
X0021664Y0165667D01*
X0021664Y0167696D01*
X0020887Y0169571D01*
X0019453Y0171005D01*
X0017820Y0171682D01*
X0019453Y0172358D01*
X0020887Y0173793D01*
X0021664Y0175667D01*
X0021664Y0177696D01*
X0020887Y0179571D01*
X0019453Y0181005D01*
X0018327Y0181472D01*
X0018675Y0181585D01*
X0019446Y0181978D01*
X0020147Y0182487D01*
X0020759Y0183099D01*
X0021268Y0183799D01*
X0021661Y0184571D01*
X0021928Y0185394D01*
X0022064Y0186249D01*
X0022064Y0186482D01*
X0016764Y0186482D01*
X0016764Y0186882D01*
X0022064Y0186882D01*
X0022064Y0187115D01*
X0021928Y0187970D01*
X0021661Y0188793D01*
X0021268Y0189565D01*
X0020759Y0190265D01*
X0020147Y0190877D01*
X0019446Y0191386D01*
X0018675Y0191779D01*
X0018327Y0191892D01*
X0019453Y0192358D01*
X0020887Y0193793D01*
X0021189Y0194521D01*
X0122514Y0194521D01*
X0122541Y0194455D01*
X0123666Y0193330D01*
X0125137Y0192721D01*
X0131928Y0192721D01*
X0133398Y0193330D01*
X0133664Y0193596D01*
X0137395Y0189865D01*
X0137395Y0063735D01*
X0130810Y0057150D01*
X0097345Y0057150D01*
X0065415Y0025219D01*
X0065150Y0025485D01*
X0062604Y0025485D01*
X0053882Y0034207D01*
X0052593Y0035496D01*
X0037239Y0035496D01*
X0033071Y0039664D01*
X0033357Y0040352D01*
X0033357Y0042381D01*
X0032580Y0044256D01*
X0031146Y0045690D01*
X0029271Y0046467D01*
X0027242Y0046467D01*
X0025368Y0045690D01*
X0023933Y0044256D01*
X0023157Y0042381D01*
X0023157Y0040352D01*
X0023933Y0038478D01*
X0025368Y0037043D01*
X0027242Y0036267D01*
X0029271Y0036267D01*
X0029960Y0036552D01*
X0035416Y0031096D01*
X0050771Y0031096D01*
X0059493Y0022374D01*
X0059493Y0019828D01*
X0061836Y0017485D01*
X0065150Y0017485D01*
X0067493Y0019828D01*
X0067493Y0021075D01*
X0099168Y0052750D01*
X0132633Y0052750D01*
X0140507Y0060624D01*
X0141795Y0061912D01*
X0141795Y0191688D01*
X0135850Y0197633D01*
X0134562Y0198921D01*
X0134551Y0198921D01*
X0134523Y0198987D01*
X0133398Y0200112D01*
X0131928Y0200721D01*
X0125137Y0200721D01*
X0123666Y0200112D01*
X0122541Y0198987D01*
X0122514Y0198921D01*
X0021156Y0198921D01*
X0020887Y0199571D01*
X0019453Y0201005D01*
X0017578Y0201782D01*
X0015549Y0201782D01*
X0013675Y0201005D01*
X0013443Y0200773D01*
X0013443Y0206693D01*
X0206693Y0206693D01*
X0206693Y0151106D01*
X0205157Y0151743D01*
X0203128Y0151743D01*
X0201254Y0150966D01*
X0199819Y0149531D01*
X0199043Y0147657D01*
X0199043Y0145628D01*
X0199819Y0143754D01*
X0201254Y0142319D01*
X0202887Y0141643D01*
X0201254Y0140966D01*
X0199819Y0139531D01*
X0199043Y0137657D01*
X0199043Y0135628D01*
X0199819Y0133754D01*
X0201254Y0132319D01*
X0202887Y0131643D01*
X0201254Y0130966D01*
X0199819Y0129531D01*
X0199043Y0127657D01*
X0199043Y0125628D01*
X0199819Y0123754D01*
X0201254Y0122319D01*
X0202887Y0121643D01*
X0201254Y0120966D01*
X0199819Y0119531D01*
X0199043Y0117657D01*
X0199043Y0115628D01*
X0199819Y0113754D01*
X0201254Y0112319D01*
X0202887Y0111643D01*
X0201254Y0110966D01*
X0199819Y0109531D01*
X0199043Y0107657D01*
X0199043Y0105628D01*
X0199819Y0103754D01*
X0201254Y0102319D01*
X0202887Y0101643D01*
X0201254Y0100966D01*
X0199819Y0099531D01*
X0199043Y0097657D01*
X0199043Y0095628D01*
X0199819Y0093754D01*
X0201254Y0092319D01*
X0202887Y0091643D01*
X0201254Y0090966D01*
X0199819Y0089531D01*
X0199043Y0087657D01*
X0199043Y0085628D01*
X0199507Y0084508D01*
X0190760Y0075761D01*
X0188293Y0075761D01*
X0185950Y0073417D01*
X0185950Y0070872D01*
X0183999Y0068921D01*
X0164551Y0068921D01*
X0164523Y0068987D01*
X0163398Y0070112D01*
X0161928Y0070721D01*
X0155137Y0070721D01*
X0153666Y0070112D01*
X0152541Y0068987D01*
X0151932Y0067517D01*
X0151932Y0065926D01*
X0152541Y0064455D01*
X0153666Y0063330D01*
X0155137Y0062721D01*
X0156332Y0062721D01*
X0156332Y0046579D01*
X0147343Y0046579D01*
X0145543Y0048379D01*
X0142230Y0048379D01*
X0139887Y0046036D01*
X0139887Y0042722D01*
X0142230Y0040379D01*
X0145543Y0040379D01*
X0147343Y0042179D01*
X0159444Y0042179D01*
X0160732Y0043467D01*
X0160732Y0062721D01*
X0161928Y0062721D01*
X0163398Y0063330D01*
X0164523Y0064455D01*
X0164551Y0064521D01*
X0185822Y0064521D01*
X0189061Y0067761D01*
X0191606Y0067761D01*
X0193950Y0070104D01*
X0193950Y0072728D01*
X0199159Y0077937D01*
X0199043Y0077657D01*
X0199043Y0075628D01*
X0199819Y0073754D01*
X0201254Y0072319D01*
X0203128Y0071543D01*
X0205157Y0071543D01*
X0206693Y0072179D01*
X0206693Y0054470D01*
X0206584Y0054733D01*
X0205206Y0056111D01*
X0203405Y0056857D01*
X0201455Y0056857D01*
X0199654Y0056111D01*
X0198276Y0054733D01*
X0197530Y0052932D01*
X0197530Y0050983D01*
X0198276Y0049182D01*
X0199418Y0048040D01*
X0198276Y0046898D01*
X0197530Y0045098D01*
X0197530Y0043148D01*
X0198276Y0041347D01*
X0199418Y0040205D01*
X0198276Y0039064D01*
X0197530Y0037263D01*
X0197530Y0035314D01*
X0198276Y0033513D01*
X0199418Y0032371D01*
X0198276Y0031229D01*
X0197871Y0030253D01*
X0196956Y0032464D01*
X0194984Y0034436D01*
X0192407Y0035503D01*
X0189618Y0035503D01*
X0187042Y0034436D01*
X0185070Y0032464D01*
X0184002Y0029887D01*
X0184002Y0027098D01*
X0185070Y0024522D01*
X0187042Y0022550D01*
X0185161Y0024431D02*
X0168124Y0024431D01*
X0168840Y0026029D02*
X0184445Y0026029D01*
X0184002Y0027628D02*
X0169283Y0027628D01*
X0169283Y0029226D02*
X0184002Y0029226D01*
X0184391Y0030825D02*
X0168894Y0030825D01*
X0168232Y0032423D02*
X0185053Y0032423D01*
X0186627Y0034022D02*
X0166658Y0034022D01*
X0171241Y0040478D02*
X0172702Y0039872D01*
X0174284Y0039872D01*
X0175744Y0040478D01*
X0176643Y0041376D01*
X0177541Y0040478D01*
X0179001Y0039872D01*
X0180583Y0039872D01*
X0182044Y0040478D01*
X0183162Y0041596D01*
X0183767Y0043057D01*
X0183767Y0044611D01*
X0185193Y0045202D01*
X0186311Y0046320D01*
X0186917Y0047781D01*
X0186917Y0049362D01*
X0186895Y0049414D01*
X0187751Y0050269D01*
X0189039Y0051558D01*
X0189039Y0058064D01*
X0189536Y0058561D01*
X0190020Y0059730D01*
X0190020Y0060996D01*
X0189536Y0062165D01*
X0188641Y0063060D01*
X0187472Y0063544D01*
X0186207Y0063544D01*
X0185037Y0063060D01*
X0184143Y0062165D01*
X0183658Y0060996D01*
X0183658Y0059730D01*
X0184143Y0058561D01*
X0184639Y0058064D01*
X0184639Y0053381D01*
X0183784Y0052525D01*
X0183732Y0052546D01*
X0182151Y0052546D01*
X0180690Y0051941D01*
X0179792Y0051043D01*
X0178894Y0051941D01*
X0178843Y0051963D01*
X0178843Y0058064D01*
X0179339Y0058561D01*
X0179824Y0059730D01*
X0179824Y0060996D01*
X0179339Y0062165D01*
X0178444Y0063060D01*
X0177275Y0063544D01*
X0176010Y0063544D01*
X0174841Y0063060D01*
X0173946Y0062165D01*
X0173461Y0060996D01*
X0173461Y0059730D01*
X0173946Y0058561D01*
X0174443Y0058064D01*
X0174443Y0051963D01*
X0174391Y0051941D01*
X0173493Y0051043D01*
X0172595Y0051941D01*
X0171134Y0052546D01*
X0169553Y0052546D01*
X0168092Y0051941D01*
X0166974Y0050823D01*
X0166369Y0049362D01*
X0166369Y0047781D01*
X0166974Y0046320D01*
X0168092Y0045202D01*
X0169518Y0044611D01*
X0169518Y0043057D01*
X0170123Y0041596D01*
X0171241Y0040478D01*
X0171391Y0040416D02*
X0145580Y0040416D01*
X0147179Y0042014D02*
X0169950Y0042014D01*
X0169518Y0043613D02*
X0160732Y0043613D01*
X0160732Y0045211D02*
X0168082Y0045211D01*
X0166771Y0046810D02*
X0160732Y0046810D01*
X0160732Y0048408D02*
X0166369Y0048408D01*
X0166635Y0050007D02*
X0160732Y0050007D01*
X0160732Y0051605D02*
X0167756Y0051605D01*
X0172931Y0051605D02*
X0174055Y0051605D01*
X0174443Y0053204D02*
X0160732Y0053204D01*
X0160732Y0054802D02*
X0174443Y0054802D01*
X0174443Y0056401D02*
X0160732Y0056401D01*
X0160732Y0057999D02*
X0174443Y0057999D01*
X0173516Y0059598D02*
X0160732Y0059598D01*
X0160732Y0061196D02*
X0173545Y0061196D01*
X0174576Y0062795D02*
X0162106Y0062795D01*
X0164461Y0064393D02*
X0206693Y0064393D01*
X0206693Y0062795D02*
X0188906Y0062795D01*
X0189937Y0061196D02*
X0206693Y0061196D01*
X0206693Y0059598D02*
X0189966Y0059598D01*
X0189039Y0057999D02*
X0206693Y0057999D01*
X0206693Y0056401D02*
X0204507Y0056401D01*
X0206515Y0054802D02*
X0206693Y0054802D01*
X0200353Y0056401D02*
X0189039Y0056401D01*
X0189039Y0054802D02*
X0198345Y0054802D01*
X0197642Y0053204D02*
X0189039Y0053204D01*
X0189039Y0051605D02*
X0197530Y0051605D01*
X0197934Y0050007D02*
X0187488Y0050007D01*
X0186917Y0048408D02*
X0199049Y0048408D01*
X0198239Y0046810D02*
X0186514Y0046810D01*
X0185203Y0045211D02*
X0197577Y0045211D01*
X0197530Y0043613D02*
X0183767Y0043613D01*
X0183335Y0042014D02*
X0198000Y0042014D01*
X0199207Y0040416D02*
X0181894Y0040416D01*
X0177690Y0040416D02*
X0175595Y0040416D01*
X0176643Y0048572D02*
X0176643Y0060363D01*
X0178843Y0057999D02*
X0184639Y0057999D01*
X0184639Y0056401D02*
X0178843Y0056401D01*
X0178843Y0054802D02*
X0184639Y0054802D01*
X0184463Y0053204D02*
X0178843Y0053204D01*
X0179230Y0051605D02*
X0180354Y0051605D01*
X0182942Y0048572D02*
X0186839Y0052469D01*
X0186839Y0060363D01*
X0183741Y0061196D02*
X0179741Y0061196D01*
X0179769Y0059598D02*
X0183713Y0059598D01*
X0184773Y0062795D02*
X0178709Y0062795D01*
X0184910Y0066721D02*
X0189950Y0071761D01*
X0190776Y0072666D01*
X0202587Y0084477D01*
X0202587Y0086446D01*
X0204143Y0086643D01*
X0199043Y0086773D02*
X0182642Y0086773D01*
X0182642Y0088371D02*
X0199338Y0088371D01*
X0200257Y0089970D02*
X0182642Y0089970D01*
X0182642Y0091568D02*
X0202707Y0091568D01*
X0200406Y0093167D02*
X0182642Y0093167D01*
X0182642Y0094765D02*
X0199400Y0094765D01*
X0199043Y0096364D02*
X0182642Y0096364D01*
X0182642Y0097199D02*
X0172796Y0107045D01*
X0172796Y0107748D01*
X0172312Y0108917D01*
X0171417Y0109812D01*
X0170248Y0110296D01*
X0168982Y0110296D01*
X0167813Y0109812D01*
X0166918Y0108917D01*
X0166434Y0107748D01*
X0166434Y0106482D01*
X0166918Y0105313D01*
X0167813Y0104418D01*
X0168982Y0103934D01*
X0169685Y0103934D01*
X0178242Y0095377D01*
X0178242Y0077426D01*
X0177745Y0076929D01*
X0177261Y0075760D01*
X0177261Y0074494D01*
X0177745Y0073325D01*
X0178640Y0072430D01*
X0179809Y0071946D01*
X0181074Y0071946D01*
X0182244Y0072430D01*
X0183139Y0073325D01*
X0183623Y0074494D01*
X0183623Y0075760D01*
X0183139Y0076929D01*
X0182642Y0077426D01*
X0182642Y0097199D01*
X0181879Y0097962D02*
X0199169Y0097962D01*
X0199848Y0099561D02*
X0180281Y0099561D01*
X0178682Y0101159D02*
X0201720Y0101159D01*
X0200815Y0102758D02*
X0177084Y0102758D01*
X0175485Y0104356D02*
X0199569Y0104356D01*
X0199043Y0105955D02*
X0173886Y0105955D01*
X0172796Y0107553D02*
X0199043Y0107553D01*
X0199662Y0109152D02*
X0172077Y0109152D01*
X0169615Y0107115D02*
X0180442Y0096288D01*
X0180442Y0075127D01*
X0177472Y0073984D02*
X0164052Y0073984D01*
X0164523Y0074455D02*
X0165132Y0075926D01*
X0165132Y0077517D01*
X0164523Y0078987D01*
X0163398Y0080112D01*
X0161928Y0080721D01*
X0155137Y0080721D01*
X0153666Y0080112D01*
X0152541Y0078987D01*
X0151932Y0077517D01*
X0151932Y0075926D01*
X0152541Y0074455D01*
X0153666Y0073330D01*
X0155137Y0072721D01*
X0161928Y0072721D01*
X0163398Y0073330D01*
X0164523Y0074455D01*
X0164990Y0075583D02*
X0177261Y0075583D01*
X0177998Y0077181D02*
X0165132Y0077181D01*
X0164609Y0078780D02*
X0178242Y0078780D01*
X0178242Y0080379D02*
X0162755Y0080379D01*
X0161928Y0082721D02*
X0163398Y0083330D01*
X0164523Y0084455D01*
X0165132Y0085926D01*
X0165132Y0087517D01*
X0164523Y0088987D01*
X0163398Y0090112D01*
X0161928Y0090721D01*
X0155137Y0090721D01*
X0153666Y0090112D01*
X0152541Y0088987D01*
X0151932Y0087517D01*
X0151932Y0085926D01*
X0152541Y0084455D01*
X0153666Y0083330D01*
X0155137Y0082721D01*
X0161928Y0082721D01*
X0163643Y0083576D02*
X0178242Y0083576D01*
X0178242Y0085174D02*
X0164821Y0085174D01*
X0165132Y0086773D02*
X0178242Y0086773D01*
X0178242Y0088371D02*
X0164778Y0088371D01*
X0163541Y0089970D02*
X0178242Y0089970D01*
X0178242Y0091568D02*
X0149669Y0091568D01*
X0149669Y0089970D02*
X0153524Y0089970D01*
X0152286Y0088371D02*
X0149669Y0088371D01*
X0149669Y0086773D02*
X0151932Y0086773D01*
X0152244Y0085174D02*
X0149669Y0085174D01*
X0149669Y0083576D02*
X0153421Y0083576D01*
X0154309Y0080379D02*
X0149669Y0080379D01*
X0149669Y0081977D02*
X0178242Y0081977D01*
X0182642Y0081977D02*
X0185950Y0081977D01*
X0185950Y0083417D02*
X0185950Y0080104D01*
X0188293Y0077761D01*
X0191606Y0077761D01*
X0193950Y0080104D01*
X0193950Y0083417D01*
X0191606Y0085761D01*
X0188293Y0085761D01*
X0185950Y0083417D01*
X0186108Y0083576D02*
X0182642Y0083576D01*
X0182642Y0085174D02*
X0187706Y0085174D01*
X0192193Y0085174D02*
X0199231Y0085174D01*
X0198575Y0083576D02*
X0193792Y0083576D01*
X0193950Y0081977D02*
X0196976Y0081977D01*
X0195377Y0080379D02*
X0193950Y0080379D01*
X0193779Y0078780D02*
X0192626Y0078780D01*
X0192180Y0077181D02*
X0182886Y0077181D01*
X0182642Y0078780D02*
X0187273Y0078780D01*
X0185950Y0080379D02*
X0182642Y0080379D01*
X0183623Y0075583D02*
X0188115Y0075583D01*
X0186517Y0073984D02*
X0183412Y0073984D01*
X0182137Y0072386D02*
X0185950Y0072386D01*
X0185865Y0070787D02*
X0149669Y0070787D01*
X0149669Y0069189D02*
X0152743Y0069189D01*
X0151963Y0067590D02*
X0149669Y0067590D01*
X0149669Y0067091D02*
X0149669Y0126873D01*
X0155518Y0132721D01*
X0161928Y0132721D01*
X0163398Y0133330D01*
X0164523Y0134455D01*
X0165132Y0135926D01*
X0165132Y0137517D01*
X0164523Y0138987D01*
X0163398Y0140112D01*
X0161928Y0140721D01*
X0155137Y0140721D01*
X0153666Y0140112D01*
X0152541Y0138987D01*
X0151932Y0137517D01*
X0151932Y0135926D01*
X0152098Y0135525D01*
X0146558Y0129984D01*
X0145269Y0128696D01*
X0145269Y0067091D01*
X0144772Y0066594D01*
X0144288Y0065425D01*
X0144288Y0064159D01*
X0144772Y0062990D01*
X0145667Y0062095D01*
X0146837Y0061611D01*
X0148102Y0061611D01*
X0149271Y0062095D01*
X0150166Y0062990D01*
X0150650Y0064159D01*
X0150650Y0065425D01*
X0150166Y0066594D01*
X0149669Y0067091D01*
X0150416Y0065992D02*
X0151932Y0065992D01*
X0152603Y0064393D02*
X0150650Y0064393D01*
X0149971Y0062795D02*
X0154959Y0062795D01*
X0156332Y0061196D02*
X0141079Y0061196D01*
X0141795Y0062795D02*
X0144968Y0062795D01*
X0144288Y0064393D02*
X0141795Y0064393D01*
X0141795Y0065992D02*
X0144523Y0065992D01*
X0145269Y0067590D02*
X0141795Y0067590D01*
X0141795Y0069189D02*
X0145269Y0069189D01*
X0145269Y0070787D02*
X0141795Y0070787D01*
X0141795Y0072386D02*
X0145269Y0072386D01*
X0145269Y0073984D02*
X0141795Y0073984D01*
X0141795Y0075583D02*
X0145269Y0075583D01*
X0145269Y0077181D02*
X0141795Y0077181D01*
X0141795Y0078780D02*
X0145269Y0078780D01*
X0145269Y0080379D02*
X0141795Y0080379D01*
X0141795Y0081977D02*
X0145269Y0081977D01*
X0145269Y0083576D02*
X0141795Y0083576D01*
X0141795Y0085174D02*
X0145269Y0085174D01*
X0145269Y0086773D02*
X0141795Y0086773D01*
X0141795Y0088371D02*
X0145269Y0088371D01*
X0145269Y0089970D02*
X0141795Y0089970D01*
X0141795Y0091568D02*
X0145269Y0091568D01*
X0145269Y0093167D02*
X0141795Y0093167D01*
X0141795Y0094765D02*
X0145269Y0094765D01*
X0145269Y0096364D02*
X0141795Y0096364D01*
X0141795Y0097962D02*
X0145269Y0097962D01*
X0145269Y0099561D02*
X0141795Y0099561D01*
X0141795Y0101159D02*
X0145269Y0101159D01*
X0145269Y0102758D02*
X0141795Y0102758D01*
X0141795Y0104356D02*
X0145269Y0104356D01*
X0145269Y0105955D02*
X0141795Y0105955D01*
X0141795Y0107553D02*
X0145269Y0107553D01*
X0145269Y0109152D02*
X0141795Y0109152D01*
X0141795Y0110750D02*
X0145269Y0110750D01*
X0145269Y0112349D02*
X0141795Y0112349D01*
X0141795Y0113947D02*
X0145269Y0113947D01*
X0145269Y0115546D02*
X0141795Y0115546D01*
X0141795Y0117144D02*
X0145269Y0117144D01*
X0145269Y0118743D02*
X0141795Y0118743D01*
X0141795Y0120341D02*
X0145269Y0120341D01*
X0145269Y0121940D02*
X0141795Y0121940D01*
X0141795Y0123538D02*
X0145269Y0123538D01*
X0145269Y0125137D02*
X0141795Y0125137D01*
X0141795Y0126735D02*
X0145269Y0126735D01*
X0145269Y0128334D02*
X0141795Y0128334D01*
X0141795Y0129932D02*
X0146506Y0129932D01*
X0148105Y0131531D02*
X0141795Y0131531D01*
X0141795Y0133129D02*
X0149703Y0133129D01*
X0151302Y0134728D02*
X0141795Y0134728D01*
X0141795Y0136326D02*
X0151932Y0136326D01*
X0152101Y0137925D02*
X0141795Y0137925D01*
X0141795Y0139523D02*
X0153078Y0139523D01*
X0154243Y0142644D02*
X0154902Y0142430D01*
X0155586Y0142321D01*
X0158532Y0142321D01*
X0158532Y0146721D01*
X0158532Y0146721D01*
X0151532Y0146721D01*
X0151532Y0146375D01*
X0151641Y0145691D01*
X0151855Y0145032D01*
X0152169Y0144415D01*
X0152576Y0143855D01*
X0153066Y0143365D01*
X0153626Y0142958D01*
X0154243Y0142644D01*
X0154092Y0142720D02*
X0141795Y0142720D01*
X0141795Y0141122D02*
X0174166Y0141122D01*
X0173194Y0140150D02*
X0173194Y0136836D01*
X0175537Y0134493D01*
X0178851Y0134493D01*
X0181194Y0136836D01*
X0181194Y0140150D01*
X0178851Y0142493D01*
X0175537Y0142493D01*
X0173194Y0140150D01*
X0173194Y0139523D02*
X0163987Y0139523D01*
X0164963Y0137925D02*
X0173194Y0137925D01*
X0173703Y0136326D02*
X0165132Y0136326D01*
X0164636Y0134728D02*
X0175302Y0134728D01*
X0175309Y0131114D02*
X0172644Y0128448D01*
X0172644Y0124679D01*
X0175309Y0122014D01*
X0179078Y0122014D01*
X0181744Y0124679D01*
X0181744Y0128448D01*
X0179078Y0131114D01*
X0175309Y0131114D01*
X0174128Y0129932D02*
X0163578Y0129932D01*
X0163398Y0130112D02*
X0161928Y0130721D01*
X0155137Y0130721D01*
X0153666Y0130112D01*
X0152541Y0128987D01*
X0151932Y0127517D01*
X0151932Y0125926D01*
X0152541Y0124455D01*
X0153666Y0123330D01*
X0155137Y0122721D01*
X0161928Y0122721D01*
X0163398Y0123330D01*
X0164523Y0124455D01*
X0165132Y0125926D01*
X0165132Y0127517D01*
X0164523Y0128987D01*
X0163398Y0130112D01*
X0164794Y0128334D02*
X0172644Y0128334D01*
X0172644Y0126735D02*
X0165132Y0126735D01*
X0164806Y0125137D02*
X0172644Y0125137D01*
X0173784Y0123538D02*
X0163606Y0123538D01*
X0161928Y0120721D02*
X0163398Y0120112D01*
X0164523Y0118987D01*
X0164551Y0118921D01*
X0173245Y0118921D01*
X0173336Y0119141D01*
X0174616Y0120421D01*
X0176289Y0121114D01*
X0178099Y0121114D01*
X0179771Y0120421D01*
X0181051Y0119141D01*
X0181744Y0117469D01*
X0181744Y0115659D01*
X0181051Y0113986D01*
X0179771Y0112706D01*
X0178099Y0112014D01*
X0176289Y0112014D01*
X0174616Y0112706D01*
X0173336Y0113986D01*
X0173115Y0114521D01*
X0164551Y0114521D01*
X0164523Y0114455D01*
X0163398Y0113330D01*
X0161928Y0112721D01*
X0155137Y0112721D01*
X0153666Y0113330D01*
X0152541Y0114455D01*
X0151932Y0115926D01*
X0151932Y0117517D01*
X0152541Y0118987D01*
X0153666Y0120112D01*
X0155137Y0120721D01*
X0161928Y0120721D01*
X0162845Y0120341D02*
X0174537Y0120341D01*
X0177036Y0116721D02*
X0177194Y0116564D01*
X0177036Y0116721D02*
X0158532Y0116721D01*
X0154219Y0120341D02*
X0149669Y0120341D01*
X0149669Y0118743D02*
X0152440Y0118743D01*
X0151932Y0117144D02*
X0149669Y0117144D01*
X0149669Y0115546D02*
X0152090Y0115546D01*
X0153049Y0113947D02*
X0149669Y0113947D01*
X0149669Y0112349D02*
X0175480Y0112349D01*
X0173376Y0113947D02*
X0164015Y0113947D01*
X0161928Y0110721D02*
X0163398Y0110112D01*
X0164523Y0108987D01*
X0165132Y0107517D01*
X0165132Y0105926D01*
X0164523Y0104455D01*
X0163398Y0103330D01*
X0161928Y0102721D01*
X0155137Y0102721D01*
X0153666Y0103330D01*
X0152541Y0104455D01*
X0151932Y0105926D01*
X0151932Y0107517D01*
X0152541Y0108987D01*
X0153666Y0110112D01*
X0155137Y0110721D01*
X0161928Y0110721D01*
X0164359Y0109152D02*
X0167153Y0109152D01*
X0166434Y0107553D02*
X0165117Y0107553D01*
X0165132Y0105955D02*
X0166652Y0105955D01*
X0167963Y0104356D02*
X0164424Y0104356D01*
X0162016Y0102758D02*
X0170861Y0102758D01*
X0172459Y0101159D02*
X0149669Y0101159D01*
X0149669Y0099561D02*
X0153115Y0099561D01*
X0153666Y0100112D02*
X0152541Y0098987D01*
X0151932Y0097517D01*
X0151932Y0095926D01*
X0152541Y0094455D01*
X0153666Y0093330D01*
X0155137Y0092721D01*
X0161928Y0092721D01*
X0163398Y0093330D01*
X0164523Y0094455D01*
X0165132Y0095926D01*
X0165132Y0097517D01*
X0164523Y0098987D01*
X0163398Y0100112D01*
X0161928Y0100721D01*
X0155137Y0100721D01*
X0153666Y0100112D01*
X0152117Y0097962D02*
X0149669Y0097962D01*
X0149669Y0096364D02*
X0151932Y0096364D01*
X0152413Y0094765D02*
X0149669Y0094765D01*
X0149669Y0093167D02*
X0154061Y0093167D01*
X0163003Y0093167D02*
X0178242Y0093167D01*
X0178242Y0094765D02*
X0164652Y0094765D01*
X0165132Y0096364D02*
X0177255Y0096364D01*
X0175657Y0097962D02*
X0164948Y0097962D01*
X0163950Y0099561D02*
X0174058Y0099561D01*
X0178907Y0112349D02*
X0201224Y0112349D01*
X0201038Y0110750D02*
X0149669Y0110750D01*
X0149669Y0109152D02*
X0152706Y0109152D01*
X0151947Y0107553D02*
X0149669Y0107553D01*
X0149669Y0105955D02*
X0151932Y0105955D01*
X0152641Y0104356D02*
X0149669Y0104356D01*
X0149669Y0102758D02*
X0155049Y0102758D01*
X0137395Y0102758D02*
X0132016Y0102758D01*
X0131928Y0102721D02*
X0133398Y0103330D01*
X0134523Y0104455D01*
X0135132Y0105926D01*
X0135132Y0107517D01*
X0134523Y0108987D01*
X0133398Y0110112D01*
X0131928Y0110721D01*
X0125137Y0110721D01*
X0123666Y0110112D01*
X0122541Y0108987D01*
X0122514Y0108921D01*
X0119894Y0108921D01*
X0119234Y0110516D01*
X0117799Y0111950D01*
X0116166Y0112627D01*
X0117799Y0113303D01*
X0119234Y0114738D01*
X0120010Y0116612D01*
X0120010Y0118641D01*
X0119463Y0119963D01*
X0121932Y0117493D01*
X0121932Y0115926D01*
X0122541Y0114455D01*
X0123666Y0113330D01*
X0125137Y0112721D01*
X0131928Y0112721D01*
X0133398Y0113330D01*
X0134523Y0114455D01*
X0135132Y0115926D01*
X0135132Y0117517D01*
X0134523Y0118987D01*
X0133398Y0120112D01*
X0131928Y0120721D01*
X0125137Y0120721D01*
X0124988Y0120660D01*
X0119725Y0125923D01*
X0120010Y0126612D01*
X0120010Y0128641D01*
X0119234Y0130516D01*
X0117799Y0131950D01*
X0115925Y0132727D01*
X0113896Y0132727D01*
X0112021Y0131950D01*
X0110587Y0130516D01*
X0109810Y0128641D01*
X0109810Y0126612D01*
X0110587Y0124738D01*
X0112021Y0123303D01*
X0113654Y0122627D01*
X0112021Y0121950D01*
X0110587Y0120516D01*
X0109810Y0118641D01*
X0109810Y0116612D01*
X0110587Y0114738D01*
X0112021Y0113303D01*
X0113654Y0112627D01*
X0112021Y0111950D01*
X0110587Y0110516D01*
X0109810Y0108641D01*
X0109810Y0106612D01*
X0110587Y0104738D01*
X0112021Y0103303D01*
X0113896Y0102527D01*
X0115925Y0102527D01*
X0117799Y0103303D01*
X0119017Y0104521D01*
X0122514Y0104521D01*
X0122541Y0104455D01*
X0123666Y0103330D01*
X0125137Y0102721D01*
X0131928Y0102721D01*
X0131928Y0100721D02*
X0133398Y0100112D01*
X0134523Y0098987D01*
X0135132Y0097517D01*
X0135132Y0095926D01*
X0134523Y0094455D01*
X0133398Y0093330D01*
X0131928Y0092721D01*
X0125137Y0092721D01*
X0123666Y0093330D01*
X0122541Y0094455D01*
X0121932Y0095926D01*
X0121932Y0097517D01*
X0122541Y0098987D01*
X0123666Y0100112D01*
X0125137Y0100721D01*
X0131928Y0100721D01*
X0133950Y0099561D02*
X0137395Y0099561D01*
X0137395Y0101159D02*
X0019065Y0101159D01*
X0019970Y0102758D02*
X0113338Y0102758D01*
X0110968Y0104356D02*
X0021216Y0104356D01*
X0021743Y0105955D02*
X0110083Y0105955D01*
X0109810Y0107553D02*
X0021743Y0107553D01*
X0021123Y0109152D02*
X0110022Y0109152D01*
X0110821Y0110750D02*
X0019747Y0110750D01*
X0019561Y0112349D02*
X0112983Y0112349D01*
X0111377Y0113947D02*
X0021046Y0113947D01*
X0021708Y0115546D02*
X0110252Y0115546D01*
X0109810Y0117144D02*
X0021743Y0117144D01*
X0021293Y0118743D02*
X0109852Y0118743D01*
X0110514Y0120341D02*
X0020156Y0120341D01*
X0018616Y0121940D02*
X0112011Y0121940D01*
X0111786Y0123538D02*
X0020751Y0123538D01*
X0021539Y0125137D02*
X0110421Y0125137D01*
X0109810Y0126735D02*
X0021743Y0126735D01*
X0021462Y0128334D02*
X0109810Y0128334D01*
X0110345Y0129932D02*
X0020565Y0129932D01*
X0018168Y0131531D02*
X0111602Y0131531D01*
X0114910Y0127627D02*
X0125816Y0116721D01*
X0128532Y0116721D01*
X0132845Y0120341D02*
X0137395Y0120341D01*
X0137395Y0118743D02*
X0134625Y0118743D01*
X0135132Y0117144D02*
X0137395Y0117144D01*
X0137395Y0115546D02*
X0134975Y0115546D01*
X0134015Y0113947D02*
X0137395Y0113947D01*
X0137395Y0112349D02*
X0116837Y0112349D01*
X0118443Y0113947D02*
X0123049Y0113947D01*
X0122090Y0115546D02*
X0119568Y0115546D01*
X0120010Y0117144D02*
X0121932Y0117144D01*
X0120683Y0118743D02*
X0119968Y0118743D01*
X0123708Y0121940D02*
X0137395Y0121940D01*
X0137395Y0123538D02*
X0133606Y0123538D01*
X0133398Y0123330D02*
X0134523Y0124455D01*
X0135132Y0125926D01*
X0135132Y0127517D01*
X0134523Y0128987D01*
X0133398Y0130112D01*
X0131928Y0130721D01*
X0125137Y0130721D01*
X0123666Y0130112D01*
X0122541Y0128987D01*
X0121932Y0127517D01*
X0121932Y0125926D01*
X0122541Y0124455D01*
X0123666Y0123330D01*
X0125137Y0122721D01*
X0131928Y0122721D01*
X0133398Y0123330D01*
X0134806Y0125137D02*
X0137395Y0125137D01*
X0137395Y0126735D02*
X0135132Y0126735D01*
X0134794Y0128334D02*
X0137395Y0128334D01*
X0137395Y0129932D02*
X0133578Y0129932D01*
X0131928Y0132721D02*
X0133398Y0133330D01*
X0134523Y0134455D01*
X0135132Y0135926D01*
X0135132Y0137517D01*
X0134523Y0138987D01*
X0133398Y0140112D01*
X0131928Y0140721D01*
X0125137Y0140721D01*
X0123666Y0140112D01*
X0122541Y0138987D01*
X0121932Y0137517D01*
X0121932Y0135926D01*
X0122541Y0134455D01*
X0123666Y0133330D01*
X0125137Y0132721D01*
X0131928Y0132721D01*
X0132913Y0133129D02*
X0137395Y0133129D01*
X0137395Y0131531D02*
X0118219Y0131531D01*
X0119475Y0129932D02*
X0123487Y0129932D01*
X0122271Y0128334D02*
X0120010Y0128334D01*
X0120010Y0126735D02*
X0121932Y0126735D01*
X0122259Y0125137D02*
X0120511Y0125137D01*
X0122110Y0123538D02*
X0123458Y0123538D01*
X0124151Y0133129D02*
X0020342Y0133129D01*
X0021370Y0134728D02*
X0122428Y0134728D01*
X0121932Y0136326D02*
X0021743Y0136326D01*
X0021632Y0137925D02*
X0122101Y0137925D01*
X0123078Y0139523D02*
X0022635Y0139523D01*
X0024233Y0141122D02*
X0137395Y0141122D01*
X0137395Y0142720D02*
X0025832Y0142720D01*
X0027430Y0144319D02*
X0122678Y0144319D01*
X0122541Y0144455D02*
X0123666Y0143330D01*
X0125137Y0142721D01*
X0131928Y0142721D01*
X0133398Y0143330D01*
X0134523Y0144455D01*
X0135132Y0145926D01*
X0135132Y0147517D01*
X0134523Y0148987D01*
X0133398Y0150112D01*
X0131928Y0150721D01*
X0125137Y0150721D01*
X0123666Y0150112D01*
X0122541Y0148987D01*
X0121932Y0147517D01*
X0121932Y0145926D01*
X0122541Y0144455D01*
X0121936Y0145917D02*
X0029029Y0145917D01*
X0030627Y0147516D02*
X0121932Y0147516D01*
X0122669Y0149114D02*
X0032226Y0149114D01*
X0033824Y0150713D02*
X0125117Y0150713D01*
X0125137Y0152721D02*
X0123666Y0153330D01*
X0122541Y0154455D01*
X0121932Y0155926D01*
X0121932Y0157517D01*
X0122541Y0158987D01*
X0123666Y0160112D01*
X0125137Y0160721D01*
X0131928Y0160721D01*
X0133398Y0160112D01*
X0134523Y0158987D01*
X0135132Y0157517D01*
X0135132Y0155926D01*
X0134523Y0154455D01*
X0133398Y0153330D01*
X0131928Y0152721D01*
X0125137Y0152721D01*
X0123087Y0153910D02*
X0037021Y0153910D01*
X0035423Y0152312D02*
X0137395Y0152312D01*
X0137395Y0153910D02*
X0133978Y0153910D01*
X0134960Y0155509D02*
X0137395Y0155509D01*
X0137395Y0157107D02*
X0135132Y0157107D01*
X0134640Y0158706D02*
X0137395Y0158706D01*
X0137395Y0160304D02*
X0132935Y0160304D01*
X0131928Y0162721D02*
X0133398Y0163330D01*
X0134523Y0164455D01*
X0135132Y0165926D01*
X0135132Y0167517D01*
X0134523Y0168987D01*
X0133398Y0170112D01*
X0131928Y0170721D01*
X0125137Y0170721D01*
X0123666Y0170112D01*
X0122541Y0168987D01*
X0121932Y0167517D01*
X0121932Y0165926D01*
X0122541Y0164455D01*
X0123666Y0163330D01*
X0125137Y0162721D01*
X0131928Y0162721D01*
X0133569Y0163501D02*
X0137395Y0163501D01*
X0137395Y0161903D02*
X0045014Y0161903D01*
X0046612Y0163501D02*
X0123496Y0163501D01*
X0122274Y0165100D02*
X0048211Y0165100D01*
X0049809Y0166698D02*
X0121932Y0166698D01*
X0122255Y0168297D02*
X0051408Y0168297D01*
X0053006Y0169895D02*
X0123449Y0169895D01*
X0124241Y0173092D02*
X0056203Y0173092D01*
X0054605Y0171494D02*
X0137395Y0171494D01*
X0137395Y0173092D02*
X0132823Y0173092D01*
X0134621Y0174691D02*
X0137395Y0174691D01*
X0137395Y0176289D02*
X0135132Y0176289D01*
X0134979Y0177888D02*
X0137395Y0177888D01*
X0137395Y0179486D02*
X0134024Y0179486D01*
X0137395Y0181085D02*
X0054196Y0181085D01*
X0055795Y0182683D02*
X0137395Y0182683D01*
X0137395Y0184282D02*
X0134350Y0184282D01*
X0135113Y0185880D02*
X0137395Y0185880D01*
X0137395Y0187479D02*
X0135132Y0187479D01*
X0134433Y0189077D02*
X0137395Y0189077D01*
X0136585Y0190676D02*
X0132038Y0190676D01*
X0134986Y0192274D02*
X0019250Y0192274D01*
X0020348Y0190676D02*
X0125027Y0190676D01*
X0122631Y0189077D02*
X0021516Y0189077D01*
X0022006Y0187479D02*
X0054368Y0187479D01*
X0052769Y0185880D02*
X0022005Y0185880D01*
X0021514Y0184282D02*
X0051170Y0184282D01*
X0049572Y0182683D02*
X0020343Y0182683D01*
X0019261Y0181085D02*
X0047973Y0181085D01*
X0046375Y0179486D02*
X0020922Y0179486D01*
X0021585Y0177888D02*
X0044776Y0177888D01*
X0043178Y0176289D02*
X0021664Y0176289D01*
X0021259Y0174691D02*
X0041579Y0174691D01*
X0039981Y0173092D02*
X0020187Y0173092D01*
X0018274Y0171494D02*
X0038382Y0171494D01*
X0036784Y0169895D02*
X0020563Y0169895D01*
X0021415Y0168297D02*
X0035185Y0168297D01*
X0033587Y0166698D02*
X0021664Y0166698D01*
X0021429Y0165100D02*
X0031988Y0165100D01*
X0030390Y0163501D02*
X0020595Y0163501D01*
X0018352Y0161903D02*
X0028791Y0161903D01*
X0027193Y0160304D02*
X0020154Y0160304D01*
X0021246Y0158706D02*
X0025594Y0158706D01*
X0023996Y0157107D02*
X0021664Y0157107D01*
X0021598Y0155509D02*
X0022397Y0155509D01*
X0025423Y0152312D02*
X0029200Y0152312D01*
X0030799Y0153910D02*
X0027021Y0153910D01*
X0028620Y0155509D02*
X0032397Y0155509D01*
X0033996Y0157107D02*
X0030218Y0157107D01*
X0031817Y0158706D02*
X0035594Y0158706D01*
X0037193Y0160304D02*
X0033415Y0160304D01*
X0035014Y0161903D02*
X0038791Y0161903D01*
X0040390Y0163501D02*
X0036612Y0163501D01*
X0038211Y0165100D02*
X0041988Y0165100D01*
X0043587Y0166698D02*
X0039809Y0166698D01*
X0041408Y0168297D02*
X0045185Y0168297D01*
X0046784Y0169895D02*
X0043006Y0169895D01*
X0044605Y0171494D02*
X0048382Y0171494D01*
X0049981Y0173092D02*
X0046203Y0173092D01*
X0047802Y0174691D02*
X0051579Y0174691D01*
X0053178Y0176289D02*
X0049400Y0176289D01*
X0050999Y0177888D02*
X0054776Y0177888D01*
X0056721Y0176721D02*
X0016643Y0136643D01*
X0021200Y0144319D02*
X0021208Y0144319D01*
X0021743Y0145917D02*
X0022806Y0145917D01*
X0021743Y0147516D02*
X0024405Y0147516D01*
X0026003Y0149114D02*
X0022226Y0149114D01*
X0023824Y0150713D02*
X0027602Y0150713D01*
X0016643Y0146643D02*
X0056721Y0186721D01*
X0128532Y0186721D01*
X0122715Y0184282D02*
X0057393Y0184282D01*
X0052597Y0179486D02*
X0123040Y0179486D01*
X0128532Y0176721D02*
X0056721Y0176721D01*
X0043415Y0160304D02*
X0124129Y0160304D01*
X0122425Y0158706D02*
X0041817Y0158706D01*
X0040218Y0157107D02*
X0121932Y0157107D01*
X0122105Y0155509D02*
X0038620Y0155509D01*
X0020920Y0193873D02*
X0123124Y0193873D01*
X0128532Y0196682D02*
X0128532Y0196721D01*
X0016603Y0196721D01*
X0016564Y0196682D01*
X0020191Y0200267D02*
X0124040Y0200267D01*
X0128532Y0196721D02*
X0133650Y0196721D01*
X0139595Y0190776D01*
X0139595Y0062824D01*
X0131721Y0054950D01*
X0098257Y0054950D01*
X0064792Y0021485D01*
X0063493Y0021485D01*
X0051682Y0033296D01*
X0036328Y0033296D01*
X0028257Y0041367D01*
X0024889Y0045211D02*
X0013443Y0045211D01*
X0013443Y0043613D02*
X0023667Y0043613D01*
X0023157Y0042014D02*
X0013443Y0042014D01*
X0013443Y0040416D02*
X0023157Y0040416D01*
X0023793Y0038817D02*
X0013443Y0038817D01*
X0013443Y0037219D02*
X0025192Y0037219D01*
X0030892Y0035620D02*
X0013443Y0035620D01*
X0013443Y0034022D02*
X0032491Y0034022D01*
X0034089Y0032423D02*
X0013443Y0032423D01*
X0013443Y0030825D02*
X0051042Y0030825D01*
X0052641Y0029226D02*
X0013443Y0029226D01*
X0013443Y0027628D02*
X0054239Y0027628D01*
X0054531Y0026320D02*
X0052657Y0027097D01*
X0050628Y0027097D01*
X0048754Y0026320D01*
X0047319Y0024886D01*
X0046543Y0023011D01*
X0046543Y0020982D01*
X0047319Y0019108D01*
X0048754Y0017673D01*
X0050628Y0016897D01*
X0052657Y0016897D01*
X0054531Y0017673D01*
X0055966Y0019108D01*
X0056743Y0020982D01*
X0056743Y0023011D01*
X0055966Y0024886D01*
X0054531Y0026320D01*
X0054823Y0026029D02*
X0055838Y0026029D01*
X0056155Y0024431D02*
X0057436Y0024431D01*
X0056743Y0022832D02*
X0059035Y0022832D01*
X0059493Y0021234D02*
X0056743Y0021234D01*
X0056184Y0019635D02*
X0059686Y0019635D01*
X0061285Y0018037D02*
X0054895Y0018037D01*
X0048390Y0018037D02*
X0032139Y0018037D01*
X0032580Y0018478D02*
X0033357Y0020352D01*
X0033357Y0022381D01*
X0032580Y0024256D01*
X0031146Y0025690D01*
X0029271Y0026467D01*
X0027242Y0026467D01*
X0025368Y0025690D01*
X0023933Y0024256D01*
X0023157Y0022381D01*
X0023157Y0020352D01*
X0023933Y0018478D01*
X0025368Y0017043D01*
X0027242Y0016267D01*
X0029271Y0016267D01*
X0031146Y0017043D01*
X0032580Y0018478D01*
X0033060Y0019635D02*
X0047101Y0019635D01*
X0046543Y0021234D02*
X0033357Y0021234D01*
X0033170Y0022832D02*
X0046543Y0022832D01*
X0047130Y0024431D02*
X0032405Y0024431D01*
X0030328Y0026029D02*
X0048462Y0026029D01*
X0055666Y0032423D02*
X0059493Y0032423D01*
X0059493Y0033201D02*
X0059493Y0030655D01*
X0061836Y0028312D01*
X0065150Y0028312D01*
X0067493Y0030655D01*
X0067493Y0033969D01*
X0065150Y0036312D01*
X0062604Y0036312D01*
X0056743Y0042173D01*
X0056743Y0043011D01*
X0055966Y0044886D01*
X0054531Y0046320D01*
X0052657Y0047097D01*
X0050628Y0047097D01*
X0048754Y0046320D01*
X0047319Y0044886D01*
X0046543Y0043011D01*
X0046543Y0040982D01*
X0047319Y0039108D01*
X0048754Y0037673D01*
X0050628Y0036897D01*
X0052657Y0036897D01*
X0054531Y0037673D01*
X0054776Y0037918D01*
X0059493Y0033201D01*
X0058672Y0034022D02*
X0054068Y0034022D01*
X0053434Y0037219D02*
X0055475Y0037219D01*
X0057073Y0035620D02*
X0037115Y0035620D01*
X0035516Y0037219D02*
X0049851Y0037219D01*
X0047610Y0038817D02*
X0033918Y0038817D01*
X0033357Y0040416D02*
X0046777Y0040416D01*
X0046543Y0042014D02*
X0033357Y0042014D01*
X0032847Y0043613D02*
X0046792Y0043613D01*
X0047644Y0045211D02*
X0031625Y0045211D01*
X0036677Y0050007D02*
X0013443Y0050007D01*
X0013443Y0051605D02*
X0035831Y0051605D01*
X0035831Y0050852D02*
X0038175Y0048509D01*
X0041488Y0048509D01*
X0043288Y0050309D01*
X0053408Y0050309D01*
X0059493Y0044224D01*
X0059493Y0041679D01*
X0061836Y0039335D01*
X0065150Y0039335D01*
X0067493Y0041679D01*
X0067493Y0044992D01*
X0065150Y0047335D01*
X0062604Y0047335D01*
X0055231Y0054709D01*
X0043288Y0054709D01*
X0041488Y0056509D01*
X0038175Y0056509D01*
X0035831Y0054166D01*
X0035831Y0050852D01*
X0035831Y0053204D02*
X0013443Y0053204D01*
X0013443Y0054802D02*
X0036468Y0054802D01*
X0038067Y0056401D02*
X0013443Y0056401D01*
X0013443Y0057999D02*
X0131660Y0057999D01*
X0133258Y0059598D02*
X0042578Y0059598D01*
X0041596Y0056401D02*
X0096597Y0056401D01*
X0094998Y0054802D02*
X0043195Y0054802D01*
X0039831Y0052509D02*
X0054320Y0052509D01*
X0063493Y0043335D01*
X0067493Y0043613D02*
X0083809Y0043613D01*
X0085407Y0045211D02*
X0067274Y0045211D01*
X0065675Y0046810D02*
X0087006Y0046810D01*
X0088604Y0048408D02*
X0061531Y0048408D01*
X0059933Y0050007D02*
X0090203Y0050007D01*
X0091801Y0051605D02*
X0058334Y0051605D01*
X0056736Y0053204D02*
X0093400Y0053204D01*
X0096425Y0050007D02*
X0134536Y0050007D01*
X0134487Y0050056D02*
X0137064Y0047479D01*
X0138887Y0047479D01*
X0140709Y0047479D01*
X0143287Y0050056D01*
X0143287Y0051879D01*
X0143287Y0053701D01*
X0140709Y0056279D01*
X0138887Y0056279D01*
X0138887Y0051879D01*
X0143287Y0051879D01*
X0138887Y0051879D01*
X0138887Y0051879D01*
X0138887Y0051879D01*
X0138887Y0056279D01*
X0137064Y0056279D01*
X0134487Y0053701D01*
X0134487Y0051879D01*
X0138886Y0051879D01*
X0138886Y0051879D01*
X0134487Y0051879D01*
X0134487Y0050056D01*
X0134487Y0051605D02*
X0098024Y0051605D01*
X0094827Y0048408D02*
X0136135Y0048408D01*
X0138887Y0048408D02*
X0138887Y0048408D01*
X0138887Y0047479D02*
X0138887Y0051879D01*
X0138887Y0051879D01*
X0138887Y0047479D01*
X0140661Y0046810D02*
X0105675Y0046810D01*
X0105150Y0047335D02*
X0101836Y0047335D01*
X0099493Y0044992D01*
X0099493Y0041679D01*
X0101836Y0039335D01*
X0105150Y0039335D01*
X0107493Y0041679D01*
X0107493Y0044992D01*
X0105150Y0047335D01*
X0107274Y0045211D02*
X0139887Y0045211D01*
X0139887Y0043613D02*
X0107493Y0043613D01*
X0107493Y0042014D02*
X0140594Y0042014D01*
X0142193Y0040416D02*
X0106230Y0040416D01*
X0105315Y0036712D02*
X0103493Y0036712D01*
X0103493Y0032312D01*
X0103493Y0032312D01*
X0107893Y0032312D01*
X0107893Y0034134D01*
X0105315Y0036712D01*
X0106407Y0035620D02*
X0197530Y0035620D01*
X0197530Y0037219D02*
X0083637Y0037219D01*
X0085236Y0038817D02*
X0198174Y0038817D01*
X0198065Y0034022D02*
X0195398Y0034022D01*
X0196972Y0032423D02*
X0199365Y0032423D01*
X0198108Y0030825D02*
X0197635Y0030825D01*
X0197580Y0026029D02*
X0198130Y0026029D01*
X0199312Y0024431D02*
X0196864Y0024431D01*
X0198043Y0022832D02*
X0195266Y0022832D01*
X0197530Y0021234D02*
X0121121Y0021234D01*
X0121121Y0021564D02*
X0116721Y0021564D01*
X0116721Y0021564D01*
X0112321Y0021564D01*
X0112321Y0023386D01*
X0114899Y0025964D01*
X0116721Y0025964D01*
X0116721Y0021564D01*
X0116721Y0021564D01*
X0112321Y0021564D01*
X0112321Y0019741D01*
X0114899Y0017164D01*
X0116721Y0017164D01*
X0116721Y0021564D01*
X0116721Y0025964D01*
X0118544Y0025964D01*
X0121121Y0023386D01*
X0121121Y0021564D01*
X0116721Y0021564D01*
X0116721Y0021564D01*
X0116721Y0021564D01*
X0116721Y0017164D01*
X0118544Y0017164D01*
X0121121Y0019741D01*
X0121121Y0021564D01*
X0121121Y0022832D02*
X0136508Y0022832D01*
X0136489Y0022842D02*
X0137183Y0022488D01*
X0137924Y0022247D01*
X0138694Y0022126D01*
X0139083Y0022126D01*
X0139083Y0027075D01*
X0139084Y0027075D01*
X0139084Y0027076D02*
X0139084Y0027076D01*
X0144033Y0027076D01*
X0144033Y0027465D01*
X0143912Y0028235D01*
X0143671Y0028976D01*
X0143317Y0029670D01*
X0142859Y0030300D01*
X0142308Y0030851D01*
X0141678Y0031309D01*
X0140984Y0031663D01*
X0140243Y0031904D01*
X0139473Y0032026D01*
X0139084Y0032026D01*
X0139084Y0027076D01*
X0139083Y0027076D01*
X0139083Y0027076D01*
X0134133Y0027076D01*
X0134133Y0027465D01*
X0134255Y0028235D01*
X0134496Y0028976D01*
X0134850Y0029670D01*
X0135308Y0030300D01*
X0135859Y0030851D01*
X0136489Y0031309D01*
X0137183Y0031663D01*
X0137924Y0031904D01*
X0138694Y0032026D01*
X0139083Y0032026D01*
X0139083Y0027076D01*
X0134133Y0027076D01*
X0134133Y0026686D01*
X0134255Y0025916D01*
X0134496Y0025175D01*
X0134850Y0024481D01*
X0135308Y0023851D01*
X0135859Y0023300D01*
X0136489Y0022842D01*
X0134887Y0024431D02*
X0120077Y0024431D01*
X0118442Y0027628D02*
X0134159Y0027628D01*
X0134238Y0026029D02*
X0072447Y0026029D01*
X0070849Y0024431D02*
X0100216Y0024431D01*
X0099093Y0023308D02*
X0099093Y0021485D01*
X0099093Y0019663D01*
X0101670Y0017085D01*
X0103493Y0017085D01*
X0105315Y0017085D01*
X0107893Y0019663D01*
X0107893Y0021485D01*
X0103493Y0021485D01*
X0103493Y0021485D01*
X0107893Y0021485D01*
X0107893Y0023308D01*
X0105315Y0025885D01*
X0103493Y0025885D01*
X0103493Y0021485D01*
X0103493Y0017085D01*
X0103493Y0021485D01*
X0103493Y0021485D01*
X0103493Y0021485D01*
X0099093Y0021485D01*
X0103493Y0021485D01*
X0103493Y0021485D01*
X0103493Y0025885D01*
X0101670Y0025885D01*
X0099093Y0023308D01*
X0099093Y0022832D02*
X0069250Y0022832D01*
X0067652Y0021234D02*
X0099093Y0021234D01*
X0099120Y0019635D02*
X0067300Y0019635D01*
X0065701Y0018037D02*
X0100719Y0018037D01*
X0103493Y0018037D02*
X0103493Y0018037D01*
X0103493Y0019635D02*
X0103493Y0019635D01*
X0103493Y0021234D02*
X0103493Y0021234D01*
X0103493Y0022832D02*
X0103493Y0022832D01*
X0103493Y0024431D02*
X0103493Y0024431D01*
X0106770Y0024431D02*
X0113366Y0024431D01*
X0112321Y0022832D02*
X0107893Y0022832D01*
X0107893Y0021234D02*
X0112321Y0021234D01*
X0112427Y0019635D02*
X0107865Y0019635D01*
X0106267Y0018037D02*
X0114026Y0018037D01*
X0116721Y0018037D02*
X0116721Y0018037D01*
X0116721Y0019635D02*
X0116721Y0019635D01*
X0116721Y0021234D02*
X0116721Y0021234D01*
X0116721Y0022832D02*
X0116721Y0022832D01*
X0116721Y0024431D02*
X0116721Y0024431D01*
X0115001Y0027628D02*
X0074046Y0027628D01*
X0075645Y0029226D02*
X0100356Y0029226D01*
X0099093Y0030489D02*
X0101670Y0027912D01*
X0103493Y0027912D01*
X0105315Y0027912D01*
X0107893Y0030489D01*
X0107893Y0032312D01*
X0103493Y0032312D01*
X0103493Y0032312D01*
X0103493Y0036712D01*
X0101670Y0036712D01*
X0099093Y0034134D01*
X0099093Y0032312D01*
X0103493Y0032312D01*
X0103493Y0032312D01*
X0103493Y0027912D01*
X0103493Y0032312D01*
X0103493Y0032312D01*
X0099093Y0032312D01*
X0099093Y0030489D01*
X0099093Y0030825D02*
X0077243Y0030825D01*
X0078842Y0032423D02*
X0099093Y0032423D01*
X0099093Y0034022D02*
X0080440Y0034022D01*
X0082039Y0035620D02*
X0100579Y0035620D01*
X0103493Y0035620D02*
X0103493Y0035620D01*
X0103493Y0034022D02*
X0103493Y0034022D01*
X0103493Y0032423D02*
X0103493Y0032423D01*
X0103493Y0030825D02*
X0103493Y0030825D01*
X0103493Y0029226D02*
X0103493Y0029226D01*
X0106630Y0029226D02*
X0113402Y0029226D01*
X0112721Y0030825D02*
X0107893Y0030825D01*
X0107893Y0032423D02*
X0112721Y0032423D01*
X0113522Y0034022D02*
X0107893Y0034022D01*
X0100756Y0040416D02*
X0086834Y0040416D01*
X0088433Y0042014D02*
X0099493Y0042014D01*
X0099493Y0043613D02*
X0090031Y0043613D01*
X0091630Y0045211D02*
X0099712Y0045211D01*
X0101310Y0046810D02*
X0093228Y0046810D01*
X0082210Y0042014D02*
X0067493Y0042014D01*
X0066230Y0040416D02*
X0080612Y0040416D01*
X0079013Y0038817D02*
X0060099Y0038817D01*
X0060756Y0040416D02*
X0058500Y0040416D01*
X0059493Y0042014D02*
X0056902Y0042014D01*
X0056493Y0043613D02*
X0059493Y0043613D01*
X0058506Y0045211D02*
X0055641Y0045211D01*
X0056907Y0046810D02*
X0053350Y0046810D01*
X0055309Y0048408D02*
X0013443Y0048408D01*
X0013443Y0046810D02*
X0049935Y0046810D01*
X0053710Y0050007D02*
X0042986Y0050007D01*
X0037085Y0059598D02*
X0013443Y0059598D01*
X0013443Y0061196D02*
X0035831Y0061196D01*
X0035831Y0062795D02*
X0013443Y0062795D01*
X0013443Y0064393D02*
X0034835Y0064393D01*
X0033237Y0065992D02*
X0013443Y0065992D01*
X0013443Y0067590D02*
X0031638Y0067590D01*
X0030040Y0069189D02*
X0013443Y0069189D01*
X0013443Y0070787D02*
X0028441Y0070787D01*
X0027159Y0072386D02*
X0019598Y0072386D01*
X0021062Y0073984D02*
X0027159Y0073984D01*
X0027159Y0075583D02*
X0021724Y0075583D01*
X0021743Y0077181D02*
X0027159Y0077181D01*
X0027159Y0078780D02*
X0021277Y0078780D01*
X0020119Y0080379D02*
X0027159Y0080379D01*
X0027159Y0081977D02*
X0019578Y0081977D01*
X0021213Y0083576D02*
X0027159Y0083576D01*
X0027159Y0085174D02*
X0021948Y0085174D01*
X0021864Y0088371D02*
X0024322Y0088371D01*
X0022724Y0089970D02*
X0021024Y0089970D01*
X0021125Y0091568D02*
X0019090Y0091568D01*
X0019162Y0096643D02*
X0016643Y0096643D01*
X0019162Y0096643D02*
X0029359Y0086446D01*
X0029359Y0072981D01*
X0039831Y0062509D01*
X0090068Y0062509D01*
X0114280Y0086721D01*
X0128532Y0086721D01*
X0123524Y0089970D02*
X0028946Y0089970D01*
X0027348Y0091568D02*
X0137395Y0091568D01*
X0137395Y0089970D02*
X0133541Y0089970D01*
X0134778Y0088371D02*
X0137395Y0088371D01*
X0137395Y0086773D02*
X0135132Y0086773D01*
X0134821Y0085174D02*
X0137395Y0085174D01*
X0137395Y0083576D02*
X0133643Y0083576D01*
X0132821Y0080799D02*
X0132163Y0081013D01*
X0131479Y0081121D01*
X0128532Y0081121D01*
X0125586Y0081121D01*
X0124902Y0081013D01*
X0124243Y0080799D01*
X0123626Y0080484D01*
X0123066Y0080077D01*
X0122576Y0079588D01*
X0122169Y0079027D01*
X0121855Y0078410D01*
X0121641Y0077752D01*
X0121532Y0077068D01*
X0121532Y0076721D01*
X0121532Y0076375D01*
X0121641Y0075691D01*
X0121855Y0075032D01*
X0122169Y0074415D01*
X0122576Y0073855D01*
X0123066Y0073365D01*
X0123626Y0072958D01*
X0124243Y0072644D01*
X0124902Y0072430D01*
X0125586Y0072321D01*
X0128532Y0072321D01*
X0128532Y0076721D01*
X0128532Y0076721D01*
X0121532Y0076721D01*
X0128532Y0076721D01*
X0128532Y0076721D01*
X0128532Y0072321D01*
X0131479Y0072321D01*
X0132163Y0072430D01*
X0132821Y0072644D01*
X0133438Y0072958D01*
X0133999Y0073365D01*
X0134488Y0073855D01*
X0134895Y0074415D01*
X0135210Y0075032D01*
X0135424Y0075691D01*
X0135532Y0076375D01*
X0135532Y0076721D01*
X0128532Y0076721D01*
X0128532Y0081121D01*
X0128532Y0076721D01*
X0128532Y0076721D01*
X0128532Y0076721D01*
X0135532Y0076721D01*
X0135532Y0077068D01*
X0135424Y0077752D01*
X0135210Y0078410D01*
X0134895Y0079027D01*
X0134488Y0079588D01*
X0133999Y0080077D01*
X0133438Y0080484D01*
X0132821Y0080799D01*
X0133584Y0080379D02*
X0137395Y0080379D01*
X0137395Y0081977D02*
X0112647Y0081977D01*
X0112733Y0081239D02*
X0110156Y0078662D01*
X0110156Y0076839D01*
X0110156Y0075017D01*
X0112733Y0072439D01*
X0114556Y0072439D01*
X0116378Y0072439D01*
X0118956Y0075017D01*
X0118956Y0076839D01*
X0114556Y0076839D01*
X0114556Y0072439D01*
X0114556Y0076839D01*
X0114556Y0076839D01*
X0114556Y0076839D01*
X0110156Y0076839D01*
X0114556Y0076839D01*
X0114556Y0076839D01*
X0118956Y0076839D01*
X0118956Y0078662D01*
X0116378Y0081239D01*
X0114556Y0081239D01*
X0114556Y0076839D01*
X0114556Y0076839D01*
X0114556Y0081239D01*
X0112733Y0081239D01*
X0111873Y0080379D02*
X0111049Y0080379D01*
X0110274Y0078780D02*
X0109450Y0078780D01*
X0110156Y0077181D02*
X0107852Y0077181D01*
X0106253Y0075583D02*
X0110156Y0075583D01*
X0111188Y0073984D02*
X0104655Y0073984D01*
X0103056Y0072386D02*
X0125178Y0072386D01*
X0125137Y0070721D02*
X0123666Y0070112D01*
X0122541Y0068987D01*
X0121932Y0067517D01*
X0121932Y0065926D01*
X0122541Y0064455D01*
X0123666Y0063330D01*
X0125137Y0062721D01*
X0131928Y0062721D01*
X0133398Y0063330D01*
X0134523Y0064455D01*
X0135132Y0065926D01*
X0135132Y0067517D01*
X0134523Y0068987D01*
X0133398Y0070112D01*
X0131928Y0070721D01*
X0125137Y0070721D01*
X0122743Y0069189D02*
X0117863Y0069189D01*
X0118556Y0068496D02*
X0116213Y0070839D01*
X0112899Y0070839D01*
X0110556Y0068496D01*
X0110556Y0065183D01*
X0112899Y0062839D01*
X0116213Y0062839D01*
X0118556Y0065183D01*
X0118556Y0068496D01*
X0118556Y0067590D02*
X0121963Y0067590D01*
X0121932Y0065992D02*
X0118556Y0065992D01*
X0117767Y0064393D02*
X0122603Y0064393D01*
X0124959Y0062795D02*
X0093465Y0062795D01*
X0091867Y0061196D02*
X0134857Y0061196D01*
X0136455Y0062795D02*
X0132106Y0062795D01*
X0134461Y0064393D02*
X0137395Y0064393D01*
X0137395Y0065992D02*
X0135132Y0065992D01*
X0135102Y0067590D02*
X0137395Y0067590D01*
X0137395Y0069189D02*
X0134321Y0069189D01*
X0137395Y0070787D02*
X0116265Y0070787D01*
X0112847Y0070787D02*
X0101458Y0070787D01*
X0099859Y0069189D02*
X0111249Y0069189D01*
X0110556Y0067590D02*
X0098261Y0067590D01*
X0096662Y0065992D02*
X0110556Y0065992D01*
X0111345Y0064393D02*
X0095064Y0064393D01*
X0092038Y0067590D02*
X0037861Y0067590D01*
X0036262Y0069189D02*
X0093637Y0069189D01*
X0095235Y0070787D02*
X0034664Y0070787D01*
X0033065Y0072386D02*
X0096834Y0072386D01*
X0098432Y0073984D02*
X0031559Y0073984D01*
X0031559Y0075583D02*
X0100031Y0075583D01*
X0101629Y0077181D02*
X0031559Y0077181D01*
X0031559Y0078780D02*
X0103228Y0078780D01*
X0104826Y0080379D02*
X0031559Y0080379D01*
X0031559Y0081977D02*
X0106425Y0081977D01*
X0108023Y0083576D02*
X0031559Y0083576D01*
X0031559Y0085174D02*
X0109622Y0085174D01*
X0111220Y0086773D02*
X0031559Y0086773D01*
X0030545Y0088371D02*
X0112819Y0088371D01*
X0114246Y0083576D02*
X0123421Y0083576D01*
X0123480Y0080379D02*
X0117239Y0080379D01*
X0118838Y0078780D02*
X0122043Y0078780D01*
X0121550Y0077181D02*
X0118956Y0077181D01*
X0118956Y0075583D02*
X0121676Y0075583D01*
X0122482Y0073984D02*
X0117924Y0073984D01*
X0114556Y0073984D02*
X0114556Y0073984D01*
X0114556Y0075583D02*
X0114556Y0075583D01*
X0114556Y0077181D02*
X0114556Y0077181D01*
X0114556Y0078780D02*
X0114556Y0078780D01*
X0114556Y0080379D02*
X0114556Y0080379D01*
X0128532Y0080379D02*
X0128532Y0080379D01*
X0128532Y0078780D02*
X0128532Y0078780D01*
X0128532Y0077181D02*
X0128532Y0077181D01*
X0128532Y0075583D02*
X0128532Y0075583D01*
X0128532Y0073984D02*
X0128532Y0073984D01*
X0128532Y0072386D02*
X0128532Y0072386D01*
X0131887Y0072386D02*
X0137395Y0072386D01*
X0137395Y0073984D02*
X0134583Y0073984D01*
X0135389Y0075583D02*
X0137395Y0075583D01*
X0137395Y0077181D02*
X0135514Y0077181D01*
X0135022Y0078780D02*
X0137395Y0078780D01*
X0149669Y0078780D02*
X0152455Y0078780D01*
X0151932Y0077181D02*
X0149669Y0077181D01*
X0149669Y0075583D02*
X0152074Y0075583D01*
X0153012Y0073984D02*
X0149669Y0073984D01*
X0149669Y0072386D02*
X0178746Y0072386D01*
X0184267Y0069189D02*
X0164321Y0069189D01*
X0158532Y0066721D02*
X0184910Y0066721D01*
X0187292Y0065992D02*
X0206693Y0065992D01*
X0206693Y0067590D02*
X0188891Y0067590D01*
X0193035Y0069189D02*
X0206693Y0069189D01*
X0206693Y0070787D02*
X0193950Y0070787D01*
X0193950Y0072386D02*
X0201187Y0072386D01*
X0199723Y0073984D02*
X0195206Y0073984D01*
X0196804Y0075583D02*
X0199061Y0075583D01*
X0199043Y0077181D02*
X0198403Y0077181D01*
X0199739Y0113947D02*
X0181012Y0113947D01*
X0181697Y0115546D02*
X0199077Y0115546D01*
X0199043Y0117144D02*
X0181744Y0117144D01*
X0181216Y0118743D02*
X0199492Y0118743D01*
X0200629Y0120341D02*
X0179851Y0120341D01*
X0180603Y0123538D02*
X0200034Y0123538D01*
X0199246Y0125137D02*
X0181744Y0125137D01*
X0181744Y0126735D02*
X0199043Y0126735D01*
X0199323Y0128334D02*
X0181744Y0128334D01*
X0180260Y0129932D02*
X0200220Y0129932D01*
X0202617Y0131531D02*
X0154327Y0131531D01*
X0153487Y0129932D02*
X0152729Y0129932D01*
X0152271Y0128334D02*
X0151130Y0128334D01*
X0151932Y0126735D02*
X0149669Y0126735D01*
X0149669Y0125137D02*
X0152259Y0125137D01*
X0153458Y0123538D02*
X0149669Y0123538D01*
X0149669Y0121940D02*
X0202169Y0121940D01*
X0200443Y0133129D02*
X0162913Y0133129D01*
X0158532Y0136721D02*
X0157312Y0135658D01*
X0155343Y0135658D01*
X0147469Y0127784D01*
X0147469Y0064792D01*
X0147230Y0055879D02*
X0144887Y0053536D01*
X0144887Y0050222D01*
X0147230Y0047879D01*
X0150543Y0047879D01*
X0152887Y0050222D01*
X0152887Y0053536D01*
X0150543Y0055879D01*
X0147230Y0055879D01*
X0146153Y0054802D02*
X0142186Y0054802D01*
X0143287Y0053204D02*
X0144887Y0053204D01*
X0144887Y0051605D02*
X0143287Y0051605D01*
X0143237Y0050007D02*
X0145102Y0050007D01*
X0146700Y0048408D02*
X0141639Y0048408D01*
X0138887Y0050007D02*
X0138887Y0050007D01*
X0138887Y0051605D02*
X0138887Y0051605D01*
X0138887Y0053204D02*
X0138887Y0053204D01*
X0138887Y0054802D02*
X0138887Y0054802D01*
X0136284Y0056401D02*
X0156332Y0056401D01*
X0156332Y0057999D02*
X0137882Y0057999D01*
X0139481Y0059598D02*
X0156332Y0059598D01*
X0156332Y0054802D02*
X0151620Y0054802D01*
X0152887Y0053204D02*
X0156332Y0053204D01*
X0156332Y0051605D02*
X0152887Y0051605D01*
X0152672Y0050007D02*
X0156332Y0050007D01*
X0156332Y0048408D02*
X0151073Y0048408D01*
X0147112Y0046810D02*
X0156332Y0046810D01*
X0158532Y0044379D02*
X0143887Y0044379D01*
X0134487Y0053204D02*
X0133087Y0053204D01*
X0134685Y0054802D02*
X0135588Y0054802D01*
X0158532Y0044379D02*
X0158532Y0066721D01*
X0137395Y0093167D02*
X0133003Y0093167D01*
X0134652Y0094765D02*
X0137395Y0094765D01*
X0137395Y0096364D02*
X0135132Y0096364D01*
X0134948Y0097962D02*
X0137395Y0097962D01*
X0137395Y0104356D02*
X0134424Y0104356D01*
X0135132Y0105955D02*
X0137395Y0105955D01*
X0137395Y0107553D02*
X0135117Y0107553D01*
X0134359Y0109152D02*
X0137395Y0109152D01*
X0137395Y0110750D02*
X0118999Y0110750D01*
X0119799Y0109152D02*
X0122706Y0109152D01*
X0122641Y0104356D02*
X0118852Y0104356D01*
X0116482Y0102758D02*
X0125049Y0102758D01*
X0123115Y0099561D02*
X0020937Y0099561D01*
X0021616Y0097962D02*
X0122117Y0097962D01*
X0121932Y0096364D02*
X0022552Y0096364D01*
X0024151Y0094765D02*
X0122413Y0094765D01*
X0124061Y0093167D02*
X0025749Y0093167D01*
X0025921Y0086773D02*
X0016843Y0086773D01*
X0013687Y0072386D02*
X0013443Y0072386D01*
X0042005Y0065992D02*
X0090440Y0065992D01*
X0077415Y0037219D02*
X0061697Y0037219D01*
X0065841Y0035620D02*
X0075816Y0035620D01*
X0074217Y0034022D02*
X0067440Y0034022D01*
X0067493Y0032423D02*
X0072619Y0032423D01*
X0071020Y0030825D02*
X0067493Y0030825D01*
X0066064Y0029226D02*
X0069422Y0029226D01*
X0067823Y0027628D02*
X0060462Y0027628D01*
X0060922Y0029226D02*
X0058863Y0029226D01*
X0059493Y0030825D02*
X0057265Y0030825D01*
X0062060Y0026029D02*
X0066225Y0026029D01*
X0063493Y0032312D02*
X0053808Y0041997D01*
X0051643Y0041997D01*
X0026185Y0026029D02*
X0013443Y0026029D01*
X0013443Y0024431D02*
X0024108Y0024431D01*
X0023343Y0022832D02*
X0013443Y0022832D01*
X0013443Y0021234D02*
X0023157Y0021234D01*
X0023454Y0019635D02*
X0013443Y0019635D01*
X0013443Y0018037D02*
X0024375Y0018037D01*
X0026829Y0016438D02*
X0013443Y0016438D01*
X0013443Y0014840D02*
X0206693Y0014840D01*
X0206693Y0016438D02*
X0205141Y0016438D01*
X0206664Y0018037D02*
X0206693Y0018037D01*
X0199719Y0016438D02*
X0029684Y0016438D01*
X0119417Y0018037D02*
X0198196Y0018037D01*
X0197534Y0019635D02*
X0121015Y0019635D01*
X0120040Y0029226D02*
X0134624Y0029226D01*
X0135832Y0030825D02*
X0120721Y0030825D01*
X0139083Y0030825D02*
X0139084Y0030825D01*
X0139083Y0029226D02*
X0139084Y0029226D01*
X0139083Y0027628D02*
X0139084Y0027628D01*
X0139084Y0027076D02*
X0144033Y0027076D01*
X0144033Y0026686D01*
X0143912Y0025916D01*
X0143671Y0025175D01*
X0143317Y0024481D01*
X0142859Y0023851D01*
X0142308Y0023300D01*
X0141678Y0022842D01*
X0140984Y0022488D01*
X0140243Y0022247D01*
X0139473Y0022126D01*
X0139084Y0022126D01*
X0139084Y0027075D01*
X0139083Y0026029D02*
X0139084Y0026029D01*
X0139083Y0024431D02*
X0139084Y0024431D01*
X0139083Y0022832D02*
X0139084Y0022832D01*
X0141658Y0022832D02*
X0146892Y0022832D01*
X0145294Y0024431D02*
X0143280Y0024431D01*
X0143929Y0026029D02*
X0144533Y0026029D01*
X0144533Y0027628D02*
X0144008Y0027628D01*
X0143543Y0029226D02*
X0144799Y0029226D01*
X0146398Y0030825D02*
X0142335Y0030825D01*
X0128532Y0106721D02*
X0115816Y0106721D01*
X0114910Y0107627D01*
X0134636Y0134728D02*
X0137395Y0134728D01*
X0137395Y0136326D02*
X0135132Y0136326D01*
X0134963Y0137925D02*
X0137395Y0137925D01*
X0137395Y0139523D02*
X0133987Y0139523D01*
X0134387Y0144319D02*
X0137395Y0144319D01*
X0137395Y0145917D02*
X0135129Y0145917D01*
X0135132Y0147516D02*
X0137395Y0147516D01*
X0137395Y0149114D02*
X0134396Y0149114D01*
X0131948Y0150713D02*
X0137395Y0150713D01*
X0141795Y0150713D02*
X0154075Y0150713D01*
X0154243Y0150799D02*
X0153626Y0150484D01*
X0153066Y0150077D01*
X0152576Y0149588D01*
X0152169Y0149027D01*
X0151855Y0148410D01*
X0151641Y0147752D01*
X0151532Y0147068D01*
X0151532Y0146721D01*
X0158532Y0146721D01*
X0158532Y0146721D01*
X0158532Y0142321D01*
X0161479Y0142321D01*
X0162163Y0142430D01*
X0162821Y0142644D01*
X0163438Y0142958D01*
X0163999Y0143365D01*
X0164488Y0143855D01*
X0164895Y0144415D01*
X0165210Y0145032D01*
X0165424Y0145691D01*
X0165532Y0146375D01*
X0165532Y0146721D01*
X0158532Y0146721D01*
X0158532Y0151121D01*
X0155586Y0151121D01*
X0154902Y0151013D01*
X0154243Y0150799D01*
X0155137Y0152721D02*
X0153666Y0153330D01*
X0152541Y0154455D01*
X0151932Y0155926D01*
X0151932Y0157517D01*
X0152541Y0158987D01*
X0153666Y0160112D01*
X0155137Y0160721D01*
X0161928Y0160721D01*
X0163398Y0160112D01*
X0164523Y0158987D01*
X0165132Y0157517D01*
X0165132Y0155926D01*
X0164523Y0154455D01*
X0163398Y0153330D01*
X0161928Y0152721D01*
X0155137Y0152721D01*
X0153087Y0153910D02*
X0141795Y0153910D01*
X0141795Y0152312D02*
X0206693Y0152312D01*
X0206693Y0153910D02*
X0163978Y0153910D01*
X0164960Y0155509D02*
X0206693Y0155509D01*
X0206693Y0157107D02*
X0165132Y0157107D01*
X0164640Y0158706D02*
X0206693Y0158706D01*
X0206693Y0160304D02*
X0162935Y0160304D01*
X0161928Y0162721D02*
X0163398Y0163330D01*
X0164523Y0164455D01*
X0165132Y0165926D01*
X0165132Y0167517D01*
X0164523Y0168987D01*
X0163398Y0170112D01*
X0161928Y0170721D01*
X0155137Y0170721D01*
X0153666Y0170112D01*
X0152541Y0168987D01*
X0151932Y0167517D01*
X0151932Y0165926D01*
X0152541Y0164455D01*
X0153666Y0163330D01*
X0155137Y0162721D01*
X0161928Y0162721D01*
X0163569Y0163501D02*
X0206693Y0163501D01*
X0206693Y0161903D02*
X0141795Y0161903D01*
X0141795Y0163501D02*
X0153496Y0163501D01*
X0152274Y0165100D02*
X0141795Y0165100D01*
X0141795Y0166698D02*
X0151932Y0166698D01*
X0152255Y0168297D02*
X0141795Y0168297D01*
X0141795Y0169895D02*
X0153449Y0169895D01*
X0155137Y0172721D02*
X0161928Y0172721D01*
X0163398Y0173330D01*
X0164523Y0174455D01*
X0165132Y0175926D01*
X0165132Y0177517D01*
X0164523Y0178987D01*
X0163398Y0180112D01*
X0161928Y0180721D01*
X0155137Y0180721D01*
X0153666Y0180112D01*
X0152541Y0178987D01*
X0151932Y0177517D01*
X0151932Y0175926D01*
X0152541Y0174455D01*
X0153666Y0173330D01*
X0155137Y0172721D01*
X0154241Y0173092D02*
X0141795Y0173092D01*
X0141795Y0171494D02*
X0206693Y0171494D01*
X0206693Y0173092D02*
X0162823Y0173092D01*
X0164621Y0174691D02*
X0175339Y0174691D01*
X0175537Y0174493D02*
X0178851Y0174493D01*
X0180651Y0176293D01*
X0188814Y0176293D01*
X0195872Y0183351D01*
X0198417Y0183351D01*
X0200761Y0185694D01*
X0200761Y0189008D01*
X0198417Y0191351D01*
X0195104Y0191351D01*
X0192761Y0189008D01*
X0192761Y0186462D01*
X0186991Y0180693D01*
X0180651Y0180693D01*
X0178851Y0182493D01*
X0175537Y0182493D01*
X0173194Y0180150D01*
X0173194Y0176836D01*
X0175537Y0174493D01*
X0173741Y0176289D02*
X0165132Y0176289D01*
X0164979Y0177888D02*
X0173194Y0177888D01*
X0173194Y0179486D02*
X0164024Y0179486D01*
X0161928Y0182721D02*
X0163398Y0183330D01*
X0164523Y0184455D01*
X0165132Y0185926D01*
X0165132Y0187517D01*
X0164523Y0188987D01*
X0163398Y0190112D01*
X0161928Y0190721D01*
X0155137Y0190721D01*
X0153666Y0190112D01*
X0152541Y0188987D01*
X0151932Y0187517D01*
X0151932Y0185926D01*
X0152541Y0184455D01*
X0153666Y0183330D01*
X0155137Y0182721D01*
X0161928Y0182721D01*
X0164350Y0184282D02*
X0173937Y0184282D01*
X0172957Y0185261D02*
X0175301Y0182918D01*
X0178614Y0182918D01*
X0180957Y0185261D01*
X0180957Y0188575D01*
X0178614Y0190918D01*
X0175301Y0190918D01*
X0172957Y0188575D01*
X0172957Y0185261D01*
X0172957Y0185880D02*
X0165113Y0185880D01*
X0165132Y0187479D02*
X0172957Y0187479D01*
X0173460Y0189077D02*
X0164433Y0189077D01*
X0162038Y0190676D02*
X0175058Y0190676D01*
X0175135Y0192518D02*
X0172557Y0195096D01*
X0172557Y0196918D01*
X0176957Y0196918D01*
X0176957Y0196918D01*
X0172557Y0196918D01*
X0172557Y0198741D01*
X0175135Y0201318D01*
X0176957Y0201318D01*
X0176957Y0196918D01*
X0176958Y0196918D01*
X0176958Y0196918D01*
X0181357Y0196918D01*
X0181357Y0195096D01*
X0178780Y0192518D01*
X0176958Y0192518D01*
X0176958Y0196918D01*
X0181357Y0196918D01*
X0181357Y0198741D01*
X0178780Y0201318D01*
X0176958Y0201318D01*
X0176958Y0196918D01*
X0176957Y0196918D01*
X0176957Y0192518D01*
X0175135Y0192518D01*
X0173780Y0193873D02*
X0164501Y0193873D01*
X0164488Y0193855D02*
X0164895Y0194415D01*
X0165210Y0195032D01*
X0165424Y0195691D01*
X0165532Y0196375D01*
X0165532Y0196721D01*
X0158532Y0196721D01*
X0158532Y0196721D01*
X0158532Y0192321D01*
X0155586Y0192321D01*
X0154902Y0192430D01*
X0154243Y0192644D01*
X0153626Y0192958D01*
X0153066Y0193365D01*
X0152576Y0193855D01*
X0152169Y0194415D01*
X0151855Y0195032D01*
X0151641Y0195691D01*
X0151532Y0196375D01*
X0151532Y0196721D01*
X0158532Y0196721D01*
X0158532Y0196721D01*
X0151532Y0196721D01*
X0151532Y0197068D01*
X0151641Y0197752D01*
X0151855Y0198410D01*
X0152169Y0199027D01*
X0152576Y0199588D01*
X0153066Y0200077D01*
X0153626Y0200484D01*
X0154243Y0200799D01*
X0154902Y0201013D01*
X0155586Y0201121D01*
X0158532Y0201121D01*
X0158532Y0196721D01*
X0158532Y0192321D01*
X0161479Y0192321D01*
X0162163Y0192430D01*
X0162821Y0192644D01*
X0163438Y0192958D01*
X0163999Y0193365D01*
X0164488Y0193855D01*
X0165353Y0195471D02*
X0172557Y0195471D01*
X0172557Y0197070D02*
X0165532Y0197070D01*
X0165532Y0197068D02*
X0165424Y0197752D01*
X0165210Y0198410D01*
X0164895Y0199027D01*
X0164488Y0199588D01*
X0163999Y0200077D01*
X0163438Y0200484D01*
X0162821Y0200799D01*
X0162163Y0201013D01*
X0161479Y0201121D01*
X0158532Y0201121D01*
X0158532Y0196721D01*
X0158532Y0196721D01*
X0158532Y0196721D01*
X0165532Y0196721D01*
X0165532Y0197068D01*
X0165078Y0198668D02*
X0172557Y0198668D01*
X0174084Y0200267D02*
X0163738Y0200267D01*
X0158532Y0200267D02*
X0158532Y0200267D01*
X0158532Y0198668D02*
X0158532Y0198668D01*
X0158532Y0197070D02*
X0158532Y0197070D01*
X0158532Y0195471D02*
X0158532Y0195471D01*
X0158532Y0193873D02*
X0158532Y0193873D01*
X0155027Y0190676D02*
X0141795Y0190676D01*
X0141795Y0189077D02*
X0152631Y0189077D01*
X0151932Y0187479D02*
X0141795Y0187479D01*
X0141795Y0185880D02*
X0151951Y0185880D01*
X0152715Y0184282D02*
X0141795Y0184282D01*
X0141795Y0182683D02*
X0188981Y0182683D01*
X0187383Y0181085D02*
X0180259Y0181085D01*
X0177194Y0178493D02*
X0187902Y0178493D01*
X0196761Y0187351D01*
X0199348Y0184282D02*
X0206693Y0184282D01*
X0206693Y0185880D02*
X0200761Y0185880D01*
X0200761Y0187479D02*
X0206693Y0187479D01*
X0206693Y0189077D02*
X0200691Y0189077D01*
X0199093Y0190676D02*
X0206693Y0190676D01*
X0206693Y0192274D02*
X0141209Y0192274D01*
X0139610Y0193873D02*
X0152563Y0193873D01*
X0151712Y0195471D02*
X0138012Y0195471D01*
X0136413Y0197070D02*
X0151533Y0197070D01*
X0151986Y0198668D02*
X0134815Y0198668D01*
X0133025Y0200267D02*
X0153327Y0200267D01*
X0153040Y0179486D02*
X0141795Y0179486D01*
X0141795Y0177888D02*
X0152086Y0177888D01*
X0151932Y0176289D02*
X0141795Y0176289D01*
X0141795Y0174691D02*
X0152444Y0174691D01*
X0163615Y0169895D02*
X0206693Y0169895D01*
X0206693Y0168297D02*
X0164809Y0168297D01*
X0165132Y0166698D02*
X0206693Y0166698D01*
X0206693Y0165100D02*
X0164790Y0165100D01*
X0154129Y0160304D02*
X0141795Y0160304D01*
X0141795Y0158706D02*
X0152425Y0158706D01*
X0151932Y0157107D02*
X0141795Y0157107D01*
X0141795Y0155509D02*
X0152105Y0155509D01*
X0152232Y0149114D02*
X0141795Y0149114D01*
X0141795Y0147516D02*
X0151603Y0147516D01*
X0151605Y0145917D02*
X0141795Y0145917D01*
X0141795Y0144319D02*
X0152239Y0144319D01*
X0158532Y0144319D02*
X0158532Y0144319D01*
X0158532Y0145917D02*
X0158532Y0145917D01*
X0158532Y0146721D02*
X0158532Y0146721D01*
X0158532Y0146721D01*
X0158532Y0151121D01*
X0161479Y0151121D01*
X0162163Y0151013D01*
X0162821Y0150799D01*
X0163438Y0150484D01*
X0163999Y0150077D01*
X0164488Y0149588D01*
X0164895Y0149027D01*
X0165210Y0148410D01*
X0165424Y0147752D01*
X0165532Y0147068D01*
X0165532Y0146721D01*
X0158532Y0146721D01*
X0158532Y0147516D02*
X0158532Y0147516D01*
X0158532Y0149114D02*
X0158532Y0149114D01*
X0158532Y0150713D02*
X0158532Y0150713D01*
X0162990Y0150713D02*
X0201001Y0150713D01*
X0199646Y0149114D02*
X0164832Y0149114D01*
X0165461Y0147516D02*
X0199043Y0147516D01*
X0199043Y0145917D02*
X0165460Y0145917D01*
X0164826Y0144319D02*
X0199585Y0144319D01*
X0200852Y0142720D02*
X0162972Y0142720D01*
X0158532Y0142720D02*
X0158532Y0142720D01*
X0180222Y0141122D02*
X0201630Y0141122D01*
X0199816Y0139523D02*
X0181194Y0139523D01*
X0181194Y0137925D02*
X0199154Y0137925D01*
X0199043Y0136326D02*
X0180684Y0136326D01*
X0179086Y0134728D02*
X0199415Y0134728D01*
X0206693Y0174691D02*
X0179048Y0174691D01*
X0180647Y0176289D02*
X0206693Y0176289D01*
X0206693Y0177888D02*
X0190408Y0177888D01*
X0192007Y0179486D02*
X0206693Y0179486D01*
X0206693Y0181085D02*
X0193605Y0181085D01*
X0195204Y0182683D02*
X0206693Y0182683D01*
X0206693Y0193873D02*
X0199505Y0193873D01*
X0198583Y0192951D02*
X0201161Y0195529D01*
X0201161Y0197351D01*
X0196761Y0197351D01*
X0196761Y0197351D01*
X0196761Y0192951D01*
X0198583Y0192951D01*
X0196761Y0192951D02*
X0196761Y0197351D01*
X0196761Y0197351D01*
X0201161Y0197351D01*
X0201161Y0199174D01*
X0198583Y0201751D01*
X0196761Y0201751D01*
X0196761Y0197351D01*
X0196761Y0197351D01*
X0196760Y0197351D02*
X0192361Y0197351D01*
X0192361Y0195529D01*
X0194938Y0192951D01*
X0196761Y0192951D01*
X0196761Y0193873D02*
X0196761Y0193873D01*
X0196761Y0195471D02*
X0196761Y0195471D01*
X0196761Y0197070D02*
X0196761Y0197070D01*
X0196760Y0197351D02*
X0196760Y0197351D01*
X0192361Y0197351D01*
X0192361Y0199174D01*
X0194938Y0201751D01*
X0196761Y0201751D01*
X0196761Y0197351D01*
X0196761Y0198668D02*
X0196761Y0198668D01*
X0196761Y0200267D02*
X0196761Y0200267D01*
X0200067Y0200267D02*
X0206693Y0200267D01*
X0206693Y0201865D02*
X0013443Y0201865D01*
X0013443Y0203464D02*
X0206693Y0203464D01*
X0206693Y0205062D02*
X0013443Y0205062D01*
X0013443Y0206661D02*
X0206693Y0206661D01*
X0206693Y0198668D02*
X0201161Y0198668D01*
X0201161Y0197070D02*
X0206693Y0197070D01*
X0206693Y0195471D02*
X0201103Y0195471D01*
X0194428Y0190676D02*
X0178857Y0190676D01*
X0180455Y0189077D02*
X0192830Y0189077D01*
X0192761Y0187479D02*
X0180957Y0187479D01*
X0180957Y0185880D02*
X0192178Y0185880D01*
X0190580Y0184282D02*
X0179978Y0184282D01*
X0174129Y0181085D02*
X0141795Y0181085D01*
X0137395Y0169895D02*
X0133615Y0169895D01*
X0134809Y0168297D02*
X0137395Y0168297D01*
X0137395Y0166698D02*
X0135132Y0166698D01*
X0134790Y0165100D02*
X0137395Y0165100D01*
X0128532Y0166682D02*
X0128532Y0166721D01*
X0128532Y0156721D02*
X0128532Y0156682D01*
X0176957Y0193873D02*
X0176958Y0193873D01*
X0176957Y0195471D02*
X0176958Y0195471D01*
X0176957Y0197070D02*
X0176958Y0197070D01*
X0176957Y0198668D02*
X0176958Y0198668D01*
X0176957Y0200267D02*
X0176958Y0200267D01*
X0179831Y0200267D02*
X0193454Y0200267D01*
X0192361Y0198668D02*
X0181357Y0198668D01*
X0181357Y0197070D02*
X0192361Y0197070D01*
X0192418Y0195471D02*
X0181357Y0195471D01*
X0180135Y0193873D02*
X0194016Y0193873D01*
D20*
X0169615Y0107115D03*
X0180442Y0075127D03*
X0176643Y0060363D03*
X0186839Y0060363D03*
X0147469Y0064792D03*
M02*
