%
M48
M72
T01C0.02362
T02C0.03150
T03C0.03200
T04C0.04000
T05C0.07480
%
T01
X147469Y64792
X176643Y60363
X186839Y60363
X180442Y75127
X169615Y107115
T02
X170343Y48572
X173493Y43847
X176643Y48572
X179792Y43847
X182942Y48572
T03
X39831Y52509
X39831Y62509
X63493Y43335
X63493Y32312
X63493Y21485
X103493Y21485
X103493Y32312
X103493Y43335
X116721Y31564
X116721Y21564
X139083Y27076
X149083Y27076
X143887Y44379
X148887Y51879
X138887Y51879
X128532Y66721
X128532Y76721
X128532Y86721
X128532Y96721
X128532Y106721
X128532Y116721
X128532Y126721
X128532Y136721
X128532Y146721
X128532Y156721
X128532Y166721
X128532Y176721
X128532Y186721
X128532Y196721
X158532Y196721
X158532Y186721
X158532Y176721
X158532Y166721
X158532Y156721
X158532Y146721
X158532Y136721
X158532Y126721
X158532Y116721
X158532Y106721
X158532Y96721
X158532Y86721
X158532Y76721
X158532Y66721
X189950Y71761
X189950Y81761
X177194Y116564
X177194Y126564
X177194Y138493
X177194Y178493
X176957Y186918
X176957Y196918
X196761Y197351
X196761Y187351
X114556Y76839
X114556Y66839
T04
X28257Y21367
X28257Y41367
X51643Y41997
X51643Y21997
X16643Y76643
X16643Y86643
X16643Y96643
X16643Y106643
X16643Y116643
X16643Y126643
X16643Y136643
X16643Y146643
X16564Y156682
X16564Y166682
X16564Y176682
X16564Y186682
X16564Y196682
X114910Y127627
X114910Y117627
X114910Y107627
X202430Y51957
X202430Y44123
X202430Y36288
X202430Y28454
X202430Y20619
X204143Y76643
X204143Y86643
X204143Y96643
X204143Y106643
X204143Y116643
X204143Y126643
X204143Y136643
X204143Y146643
T05
X162272Y28493
X191013Y28493
M30
