G75*
%MOIN*%
%OFA0B0*%
%FSLAX25Y25*%
%IPPOS*%
%LPD*%
%AMOC8*
5,1,8,0,0,1.08239X$1,22.5*
%
%ADD10C,0.00000*%
%ADD11OC8,0.05200*%
%ADD12OC8,0.06300*%
%ADD13C,0.06300*%
%ADD14C,0.07400*%
%ADD15C,0.05200*%
%ADD16C,0.07000*%
%ADD17C,0.05150*%
%ADD18C,0.11220*%
%ADD19C,0.01600*%
%ADD20C,0.03962*%
D10*
X0011643Y0011643D02*
X0011643Y0208493D01*
X0208493Y0208493D01*
X0208493Y0011643D01*
X0011643Y0011643D01*
D11*
X0039831Y0052509D03*
X0039831Y0062509D03*
X0063493Y0043335D03*
X0063493Y0032312D03*
X0063493Y0021485D03*
X0103493Y0021485D03*
X0103493Y0032312D03*
X0103493Y0043335D03*
X0116721Y0031564D03*
X0116721Y0021564D03*
X0143887Y0044379D03*
X0148887Y0051879D03*
X0138887Y0051879D03*
X0114556Y0066839D03*
X0114556Y0076839D03*
X0177194Y0138493D03*
X0177194Y0178493D03*
X0176957Y0186918D03*
X0176957Y0196918D03*
X0196761Y0197351D03*
X0196761Y0187351D03*
X0189950Y0081761D03*
X0189950Y0071761D03*
D12*
X0149083Y0027076D03*
X0177194Y0126564D03*
D13*
X0177194Y0116564D03*
X0139083Y0027076D03*
D14*
X0204143Y0076643D03*
X0204143Y0086643D03*
X0204143Y0096643D03*
X0204143Y0106643D03*
X0204143Y0116643D03*
X0204143Y0126643D03*
X0204143Y0136643D03*
X0204143Y0146643D03*
X0114910Y0127627D03*
X0114910Y0117627D03*
X0114910Y0107627D03*
X0051643Y0041997D03*
X0051643Y0021997D03*
X0028257Y0021367D03*
X0028257Y0041367D03*
X0016643Y0076643D03*
X0016643Y0086643D03*
X0016643Y0096643D03*
X0016643Y0106643D03*
X0016643Y0116643D03*
X0016643Y0126643D03*
X0016643Y0136643D03*
X0016643Y0146643D03*
X0016564Y0156682D03*
X0016564Y0166682D03*
X0016564Y0176682D03*
X0016564Y0186682D03*
X0016564Y0196682D03*
D15*
X0125932Y0196721D02*
X0131132Y0196721D01*
X0131132Y0186721D02*
X0125932Y0186721D01*
X0125932Y0176721D02*
X0131132Y0176721D01*
X0131132Y0166721D02*
X0125932Y0166721D01*
X0125932Y0156721D02*
X0131132Y0156721D01*
X0131132Y0146721D02*
X0125932Y0146721D01*
X0125932Y0136721D02*
X0131132Y0136721D01*
X0131132Y0126721D02*
X0125932Y0126721D01*
X0125932Y0116721D02*
X0131132Y0116721D01*
X0131132Y0106721D02*
X0125932Y0106721D01*
X0125932Y0096721D02*
X0131132Y0096721D01*
X0131132Y0086721D02*
X0125932Y0086721D01*
X0125932Y0076721D02*
X0131132Y0076721D01*
X0131132Y0066721D02*
X0125932Y0066721D01*
X0155932Y0066721D02*
X0161132Y0066721D01*
X0161132Y0076721D02*
X0155932Y0076721D01*
X0155932Y0086721D02*
X0161132Y0086721D01*
X0161132Y0096721D02*
X0155932Y0096721D01*
X0155932Y0106721D02*
X0161132Y0106721D01*
X0161132Y0116721D02*
X0155932Y0116721D01*
X0155932Y0126721D02*
X0161132Y0126721D01*
X0161132Y0136721D02*
X0155932Y0136721D01*
X0155932Y0146721D02*
X0161132Y0146721D01*
X0161132Y0156721D02*
X0155932Y0156721D01*
X0155932Y0166721D02*
X0161132Y0166721D01*
X0161132Y0176721D02*
X0155932Y0176721D01*
X0155932Y0186721D02*
X0161132Y0186721D01*
X0161132Y0196721D02*
X0155932Y0196721D01*
D16*
X0202430Y0051957D03*
X0202430Y0044123D03*
X0202430Y0036288D03*
X0202430Y0028454D03*
X0202430Y0020619D03*
D17*
X0179792Y0043847D03*
X0176643Y0048572D03*
X0173493Y0043847D03*
X0170343Y0048572D03*
X0182942Y0048572D03*
D18*
X0191013Y0028493D03*
X0162272Y0028493D03*
D19*
X0157604Y0034022D02*
X0120486Y0034022D01*
X0121121Y0033386D02*
X0118544Y0035964D01*
X0116721Y0035964D01*
X0114899Y0035964D01*
X0112321Y0033386D01*
X0112321Y0031564D01*
X0116721Y0031564D01*
X0116721Y0031564D01*
X0116721Y0035964D01*
X0116721Y0031564D01*
X0116721Y0031564D01*
X0112321Y0031564D01*
X0112321Y0029741D01*
X0114899Y0027164D01*
X0116721Y0027164D01*
X0116721Y0031564D01*
X0116721Y0031564D01*
X0121121Y0031564D01*
X0121121Y0033386D01*
X0121121Y0032423D02*
X0156096Y0032423D01*
X0156160Y0032577D02*
X0155062Y0029927D01*
X0155062Y0027059D01*
X0156160Y0024409D01*
X0158188Y0022380D01*
X0160838Y0021283D01*
X0163707Y0021283D01*
X0166357Y0022380D01*
X0168385Y0024409D01*
X0169483Y0027059D01*
X0169483Y0029927D01*
X0168385Y0032577D01*
X0166357Y0034605D01*
X0165807Y0034833D01*
X0173655Y0034833D01*
X0174537Y0035198D01*
X0179011Y0039672D01*
X0180623Y0039672D01*
X0182157Y0040308D01*
X0183331Y0041482D01*
X0183967Y0043017D01*
X0183967Y0044305D01*
X0184621Y0044517D01*
X0185235Y0044830D01*
X0185792Y0045235D01*
X0186279Y0045722D01*
X0186408Y0045900D01*
X0186408Y0044630D01*
X0186773Y0043748D01*
X0187448Y0043072D01*
X0195592Y0034929D01*
X0196267Y0034254D01*
X0197149Y0033888D01*
X0197904Y0033888D01*
X0198106Y0033399D01*
X0199135Y0032371D01*
X0198106Y0031342D01*
X0197871Y0030775D01*
X0197125Y0032577D01*
X0195097Y0034605D01*
X0192447Y0035703D01*
X0189578Y0035703D01*
X0186928Y0034605D01*
X0184900Y0032577D01*
X0183802Y0029927D01*
X0183802Y0027059D01*
X0184900Y0024409D01*
X0186928Y0022380D01*
X0189578Y0021283D01*
X0192447Y0021283D01*
X0195097Y0022380D01*
X0197125Y0024409D01*
X0197855Y0026171D01*
X0198106Y0025565D01*
X0199135Y0024536D01*
X0198106Y0023508D01*
X0197330Y0021633D01*
X0197330Y0019604D01*
X0198106Y0017730D01*
X0199394Y0016443D01*
X0030707Y0016443D01*
X0031139Y0016663D01*
X0031840Y0017172D01*
X0032452Y0017784D01*
X0032961Y0018484D01*
X0033354Y0019256D01*
X0033621Y0020079D01*
X0033757Y0020934D01*
X0033757Y0021167D01*
X0028457Y0021167D01*
X0028457Y0021567D01*
X0033757Y0021567D01*
X0033757Y0021800D01*
X0033621Y0022655D01*
X0033354Y0023478D01*
X0032961Y0024250D01*
X0032452Y0024950D01*
X0031840Y0025562D01*
X0031139Y0026071D01*
X0030368Y0026464D01*
X0029545Y0026731D01*
X0028690Y0026867D01*
X0028457Y0026867D01*
X0028457Y0021567D01*
X0028057Y0021567D01*
X0028057Y0026867D01*
X0027824Y0026867D01*
X0026969Y0026731D01*
X0026145Y0026464D01*
X0025374Y0026071D01*
X0024674Y0025562D01*
X0024062Y0024950D01*
X0023553Y0024250D01*
X0023160Y0023478D01*
X0022892Y0022655D01*
X0022757Y0021800D01*
X0022757Y0021567D01*
X0028057Y0021567D01*
X0028057Y0021167D01*
X0022757Y0021167D01*
X0022757Y0020934D01*
X0022892Y0020079D01*
X0023160Y0019256D01*
X0023553Y0018484D01*
X0024062Y0017784D01*
X0024674Y0017172D01*
X0025374Y0016663D01*
X0025807Y0016443D01*
X0016443Y0016443D01*
X0016443Y0076442D01*
X0016843Y0076442D01*
X0016843Y0076843D01*
X0022143Y0076843D01*
X0022143Y0077075D01*
X0022007Y0077930D01*
X0021740Y0078754D01*
X0021347Y0079525D01*
X0020838Y0080226D01*
X0020226Y0080838D01*
X0019525Y0081347D01*
X0018754Y0081740D01*
X0018699Y0081757D01*
X0019645Y0082149D01*
X0021136Y0083640D01*
X0021943Y0085588D01*
X0021943Y0087697D01*
X0021136Y0089645D01*
X0019645Y0091136D01*
X0018421Y0091643D01*
X0019645Y0092149D01*
X0021136Y0093640D01*
X0021943Y0095588D01*
X0021943Y0097697D01*
X0021765Y0098126D01*
X0049243Y0070648D01*
X0049243Y0046739D01*
X0048640Y0046490D01*
X0047149Y0044999D01*
X0046343Y0043051D01*
X0046343Y0040943D01*
X0047149Y0038995D01*
X0048640Y0037504D01*
X0050588Y0036697D01*
X0052697Y0036697D01*
X0054645Y0037504D01*
X0056136Y0038995D01*
X0056943Y0040943D01*
X0056943Y0043051D01*
X0056136Y0044999D01*
X0054645Y0046490D01*
X0054043Y0046739D01*
X0054043Y0070648D01*
X0077715Y0094321D01*
X0122393Y0094321D01*
X0123553Y0093161D01*
X0125097Y0092521D01*
X0131968Y0092521D01*
X0133511Y0093161D01*
X0134693Y0094342D01*
X0135332Y0095886D01*
X0135332Y0097557D01*
X0134693Y0099100D01*
X0133511Y0100282D01*
X0131968Y0100921D01*
X0125097Y0100921D01*
X0123553Y0100282D01*
X0122393Y0099121D01*
X0076244Y0099121D01*
X0075362Y0098756D01*
X0074687Y0098081D01*
X0051643Y0075037D01*
X0021693Y0104986D01*
X0021943Y0105588D01*
X0021943Y0107697D01*
X0021136Y0109645D01*
X0019645Y0111136D01*
X0018421Y0111643D01*
X0019645Y0112149D01*
X0021136Y0113640D01*
X0021943Y0115588D01*
X0021943Y0117697D01*
X0021693Y0118299D01*
X0037715Y0134321D01*
X0122393Y0134321D01*
X0123553Y0133161D01*
X0125097Y0132521D01*
X0131968Y0132521D01*
X0133511Y0133161D01*
X0134693Y0134342D01*
X0135332Y0135886D01*
X0135332Y0137557D01*
X0134693Y0139100D01*
X0133511Y0140282D01*
X0131968Y0140921D01*
X0125097Y0140921D01*
X0123553Y0140282D01*
X0122393Y0139121D01*
X0036244Y0139121D01*
X0035362Y0138756D01*
X0034687Y0138081D01*
X0021765Y0125159D01*
X0021943Y0125588D01*
X0021943Y0127697D01*
X0021693Y0128299D01*
X0037715Y0144321D01*
X0122393Y0144321D01*
X0123553Y0143161D01*
X0125097Y0142521D01*
X0131968Y0142521D01*
X0133511Y0143161D01*
X0134693Y0144342D01*
X0135332Y0145886D01*
X0135332Y0147557D01*
X0134693Y0149100D01*
X0133511Y0150282D01*
X0131968Y0150921D01*
X0125097Y0150921D01*
X0123553Y0150282D01*
X0122393Y0149121D01*
X0036244Y0149121D01*
X0035362Y0148756D01*
X0034687Y0148081D01*
X0021765Y0135159D01*
X0021943Y0135588D01*
X0021943Y0137697D01*
X0021136Y0139645D01*
X0019645Y0141136D01*
X0018421Y0141643D01*
X0019645Y0142149D01*
X0021136Y0143640D01*
X0021943Y0145588D01*
X0021943Y0147697D01*
X0021136Y0149645D01*
X0019645Y0151136D01*
X0018334Y0151679D01*
X0019566Y0152189D01*
X0021057Y0153680D01*
X0021323Y0154321D01*
X0122393Y0154321D01*
X0123553Y0153161D01*
X0125097Y0152521D01*
X0131968Y0152521D01*
X0133511Y0153161D01*
X0134693Y0154342D01*
X0135332Y0155886D01*
X0135332Y0157557D01*
X0134693Y0159100D01*
X0133511Y0160282D01*
X0131968Y0160921D01*
X0125097Y0160921D01*
X0123553Y0160282D01*
X0122393Y0159121D01*
X0021290Y0159121D01*
X0021057Y0159684D01*
X0019566Y0161175D01*
X0018342Y0161682D01*
X0019566Y0162189D01*
X0021057Y0163680D01*
X0021323Y0164321D01*
X0122393Y0164321D01*
X0123553Y0163161D01*
X0125097Y0162521D01*
X0131968Y0162521D01*
X0133511Y0163161D01*
X0134693Y0164342D01*
X0135332Y0165886D01*
X0135332Y0167557D01*
X0134693Y0169100D01*
X0133511Y0170282D01*
X0131968Y0170921D01*
X0125097Y0170921D01*
X0123553Y0170282D01*
X0122393Y0169121D01*
X0021290Y0169121D01*
X0021057Y0169684D01*
X0019566Y0171175D01*
X0018620Y0171567D01*
X0018675Y0171585D01*
X0019446Y0171978D01*
X0020147Y0172487D01*
X0020759Y0173099D01*
X0021268Y0173799D01*
X0021661Y0174571D01*
X0021928Y0175394D01*
X0022064Y0176249D01*
X0022064Y0176482D01*
X0016764Y0176482D01*
X0016764Y0176882D01*
X0022064Y0176882D01*
X0022064Y0177115D01*
X0021928Y0177970D01*
X0021661Y0178793D01*
X0021268Y0179565D01*
X0020759Y0180265D01*
X0020147Y0180877D01*
X0019446Y0181386D01*
X0018675Y0181779D01*
X0018620Y0181797D01*
X0019566Y0182189D01*
X0021057Y0183680D01*
X0021864Y0185628D01*
X0021864Y0187736D01*
X0021057Y0189684D01*
X0019566Y0191175D01*
X0018342Y0191682D01*
X0019566Y0192189D01*
X0021057Y0193680D01*
X0021864Y0195628D01*
X0021864Y0197736D01*
X0021057Y0199684D01*
X0019566Y0201175D01*
X0017618Y0201982D01*
X0016443Y0201982D01*
X0016443Y0203693D01*
X0203693Y0203693D01*
X0203693Y0151943D01*
X0203088Y0151943D01*
X0201140Y0151136D01*
X0200743Y0150739D01*
X0184262Y0167220D01*
X0183380Y0167586D01*
X0171062Y0167586D01*
X0164499Y0174148D01*
X0164693Y0174342D01*
X0165332Y0175886D01*
X0165332Y0177557D01*
X0164693Y0179100D01*
X0163511Y0180282D01*
X0161968Y0180921D01*
X0155097Y0180921D01*
X0153553Y0180282D01*
X0152372Y0179100D01*
X0151732Y0177557D01*
X0151732Y0175886D01*
X0152372Y0174342D01*
X0153553Y0173161D01*
X0155097Y0172521D01*
X0159338Y0172521D01*
X0160938Y0170921D01*
X0155097Y0170921D01*
X0153553Y0170282D01*
X0152372Y0169100D01*
X0151732Y0167557D01*
X0151732Y0165886D01*
X0152372Y0164342D01*
X0153553Y0163161D01*
X0155097Y0162521D01*
X0159338Y0162521D01*
X0160938Y0160921D01*
X0155097Y0160921D01*
X0153553Y0160282D01*
X0152372Y0159100D01*
X0151732Y0157557D01*
X0151732Y0155886D01*
X0152372Y0154342D01*
X0153553Y0153161D01*
X0155097Y0152521D01*
X0159338Y0152521D01*
X0160938Y0150921D01*
X0155097Y0150921D01*
X0153553Y0150282D01*
X0152372Y0149100D01*
X0151732Y0147557D01*
X0151732Y0145886D01*
X0152372Y0144342D01*
X0153553Y0143161D01*
X0155097Y0142521D01*
X0161968Y0142521D01*
X0163511Y0143161D01*
X0164693Y0144342D01*
X0165332Y0145886D01*
X0165332Y0146527D01*
X0167718Y0144141D01*
X0168393Y0143466D01*
X0169275Y0143101D01*
X0181908Y0143101D01*
X0198843Y0126167D01*
X0198843Y0125588D01*
X0199649Y0123640D01*
X0201140Y0122149D01*
X0202364Y0121643D01*
X0201140Y0121136D01*
X0199649Y0119645D01*
X0199400Y0119043D01*
X0190968Y0119043D01*
X0190086Y0118677D01*
X0170530Y0099121D01*
X0164672Y0099121D01*
X0163511Y0100282D01*
X0161968Y0100921D01*
X0155097Y0100921D01*
X0153553Y0100282D01*
X0152372Y0099100D01*
X0151732Y0097557D01*
X0151732Y0095886D01*
X0152372Y0094342D01*
X0153553Y0093161D01*
X0155097Y0092521D01*
X0161968Y0092521D01*
X0163511Y0093161D01*
X0164672Y0094321D01*
X0172002Y0094321D01*
X0172884Y0094687D01*
X0173559Y0095362D01*
X0192440Y0114243D01*
X0199400Y0114243D01*
X0199649Y0113640D01*
X0201140Y0112149D01*
X0202364Y0111643D01*
X0201140Y0111136D01*
X0199649Y0109645D01*
X0199400Y0109043D01*
X0190811Y0109043D01*
X0189929Y0108677D01*
X0170373Y0089121D01*
X0164672Y0089121D01*
X0163511Y0090282D01*
X0161968Y0090921D01*
X0155097Y0090921D01*
X0153553Y0090282D01*
X0152372Y0089100D01*
X0151732Y0087557D01*
X0151732Y0085886D01*
X0152372Y0084342D01*
X0153553Y0083161D01*
X0155097Y0082521D01*
X0161968Y0082521D01*
X0163511Y0083161D01*
X0164672Y0084321D01*
X0171844Y0084321D01*
X0172726Y0084687D01*
X0192282Y0104243D01*
X0199400Y0104243D01*
X0199649Y0103640D01*
X0201140Y0102149D01*
X0202364Y0101643D01*
X0201140Y0101136D01*
X0199649Y0099645D01*
X0199400Y0099043D01*
X0190653Y0099043D01*
X0189771Y0098677D01*
X0170215Y0079121D01*
X0164672Y0079121D01*
X0163511Y0080282D01*
X0161968Y0080921D01*
X0155097Y0080921D01*
X0153553Y0080282D01*
X0152372Y0079100D01*
X0151732Y0077557D01*
X0151732Y0075886D01*
X0152372Y0074342D01*
X0153553Y0073161D01*
X0155097Y0072521D01*
X0161968Y0072521D01*
X0163511Y0073161D01*
X0164672Y0074321D01*
X0171687Y0074321D01*
X0172569Y0074687D01*
X0173244Y0075362D01*
X0192125Y0094243D01*
X0199400Y0094243D01*
X0199649Y0093640D01*
X0201140Y0092149D01*
X0202364Y0091643D01*
X0201140Y0091136D01*
X0199649Y0089645D01*
X0198843Y0087697D01*
X0198843Y0085588D01*
X0199649Y0083640D01*
X0201140Y0082149D01*
X0202086Y0081757D01*
X0202031Y0081740D01*
X0201260Y0081347D01*
X0200560Y0080838D01*
X0199947Y0080226D01*
X0199438Y0079525D01*
X0199045Y0078754D01*
X0198778Y0077930D01*
X0198643Y0077075D01*
X0198643Y0076843D01*
X0203693Y0076843D01*
X0203693Y0076442D01*
X0198643Y0076442D01*
X0198643Y0076210D01*
X0198778Y0075355D01*
X0199045Y0074531D01*
X0199438Y0073760D01*
X0199947Y0073060D01*
X0200560Y0072447D01*
X0201260Y0071938D01*
X0202031Y0071545D01*
X0202855Y0071278D01*
X0203693Y0071145D01*
X0203693Y0056955D01*
X0203444Y0057057D01*
X0201415Y0057057D01*
X0199541Y0056281D01*
X0198106Y0054846D01*
X0197330Y0052972D01*
X0197330Y0050943D01*
X0198106Y0049069D01*
X0199135Y0048040D01*
X0198139Y0047044D01*
X0197113Y0048070D01*
X0197113Y0067474D01*
X0196748Y0068356D01*
X0194150Y0070955D01*
X0194150Y0073500D01*
X0191689Y0075961D01*
X0188210Y0075961D01*
X0185750Y0073500D01*
X0185750Y0070021D01*
X0188210Y0067561D01*
X0190755Y0067561D01*
X0192313Y0066003D01*
X0192313Y0046598D01*
X0192679Y0045716D01*
X0193354Y0045041D01*
X0196307Y0042088D01*
X0197189Y0041723D01*
X0197904Y0041723D01*
X0198106Y0041234D01*
X0199135Y0040205D01*
X0198119Y0039190D01*
X0191208Y0046101D01*
X0191208Y0054443D01*
X0190842Y0055325D01*
X0190167Y0056000D01*
X0189285Y0056365D01*
X0169866Y0056365D01*
X0168984Y0056000D01*
X0168309Y0055325D01*
X0167943Y0054443D01*
X0167943Y0052076D01*
X0166804Y0050936D01*
X0166193Y0049462D01*
X0151050Y0064605D01*
X0151050Y0065504D01*
X0150505Y0066821D01*
X0149498Y0067828D01*
X0148182Y0068373D01*
X0146757Y0068373D01*
X0145441Y0067828D01*
X0144433Y0066821D01*
X0143888Y0065504D01*
X0143888Y0064080D01*
X0144433Y0062764D01*
X0145441Y0061756D01*
X0146757Y0061211D01*
X0147656Y0061211D01*
X0167088Y0041779D01*
X0167763Y0041104D01*
X0168645Y0040739D01*
X0170698Y0040739D01*
X0171128Y0040308D01*
X0172352Y0039801D01*
X0172184Y0039633D01*
X0138621Y0039633D01*
X0130932Y0047322D01*
X0130932Y0062521D01*
X0131968Y0062521D01*
X0133511Y0063161D01*
X0134693Y0064342D01*
X0135332Y0065886D01*
X0135332Y0067557D01*
X0134693Y0069100D01*
X0133511Y0070282D01*
X0131968Y0070921D01*
X0125097Y0070921D01*
X0123553Y0070282D01*
X0122372Y0069100D01*
X0121732Y0067557D01*
X0121732Y0065886D01*
X0122372Y0064342D01*
X0123553Y0063161D01*
X0125097Y0062521D01*
X0126132Y0062521D01*
X0126132Y0045850D01*
X0126498Y0044968D01*
X0135592Y0035874D01*
X0136267Y0035198D01*
X0137149Y0034833D01*
X0158738Y0034833D01*
X0158188Y0034605D01*
X0156160Y0032577D01*
X0155434Y0030825D02*
X0152335Y0030825D01*
X0151134Y0032026D02*
X0149084Y0032026D01*
X0149084Y0027076D01*
X0154033Y0027076D01*
X0154033Y0029126D01*
X0151134Y0032026D01*
X0149083Y0032026D02*
X0147033Y0032026D01*
X0144133Y0029126D01*
X0144133Y0027076D01*
X0149083Y0027076D01*
X0149083Y0027076D01*
X0149083Y0032026D01*
X0149083Y0030825D02*
X0149084Y0030825D01*
X0149083Y0029226D02*
X0149084Y0029226D01*
X0149083Y0027628D02*
X0149084Y0027628D01*
X0149084Y0027076D02*
X0149083Y0027076D01*
X0144133Y0027076D01*
X0144133Y0025025D01*
X0147033Y0022126D01*
X0149083Y0022126D01*
X0149083Y0027075D01*
X0149084Y0027075D01*
X0149084Y0027076D02*
X0149084Y0027076D01*
X0154033Y0027076D01*
X0154033Y0025025D01*
X0151134Y0022126D01*
X0149084Y0022126D01*
X0149084Y0027075D01*
X0149083Y0026029D02*
X0149084Y0026029D01*
X0149083Y0024431D02*
X0149084Y0024431D01*
X0149083Y0022832D02*
X0149084Y0022832D01*
X0151840Y0022832D02*
X0157736Y0022832D01*
X0156151Y0024431D02*
X0153439Y0024431D01*
X0154033Y0026029D02*
X0155489Y0026029D01*
X0155062Y0027628D02*
X0154033Y0027628D01*
X0153933Y0029226D02*
X0155062Y0029226D01*
X0146327Y0022832D02*
X0141251Y0022832D01*
X0141774Y0023049D02*
X0143110Y0024385D01*
X0143833Y0026131D01*
X0143833Y0028020D01*
X0143110Y0029766D01*
X0141774Y0031102D01*
X0140028Y0031826D01*
X0138139Y0031826D01*
X0136393Y0031102D01*
X0135057Y0029766D01*
X0134333Y0028020D01*
X0134333Y0026131D01*
X0135057Y0024385D01*
X0136393Y0023049D01*
X0138139Y0022326D01*
X0140028Y0022326D01*
X0141774Y0023049D01*
X0143129Y0024431D02*
X0144728Y0024431D01*
X0144133Y0026029D02*
X0143791Y0026029D01*
X0143833Y0027628D02*
X0144133Y0027628D01*
X0144234Y0029226D02*
X0143334Y0029226D01*
X0142052Y0030825D02*
X0145832Y0030825D01*
X0137627Y0037233D02*
X0173178Y0037233D01*
X0179792Y0043847D01*
X0183967Y0043613D02*
X0186908Y0043613D01*
X0186408Y0045211D02*
X0185759Y0045211D01*
X0188808Y0045107D02*
X0188808Y0053965D01*
X0170343Y0053965D01*
X0170343Y0048572D01*
X0167473Y0051605D02*
X0164050Y0051605D01*
X0165649Y0050007D02*
X0166419Y0050007D01*
X0167943Y0053204D02*
X0162452Y0053204D01*
X0160853Y0054802D02*
X0168092Y0054802D01*
X0173607Y0058334D02*
X0173061Y0059651D01*
X0173061Y0061075D01*
X0173607Y0062392D01*
X0174243Y0063027D01*
X0174243Y0071805D01*
X0174608Y0072687D01*
X0175283Y0073362D01*
X0175283Y0073362D01*
X0176861Y0074940D01*
X0176861Y0075839D01*
X0177406Y0077155D01*
X0178413Y0078163D01*
X0179729Y0078708D01*
X0181154Y0078708D01*
X0182470Y0078163D01*
X0183478Y0077155D01*
X0184023Y0075839D01*
X0184023Y0074414D01*
X0183478Y0073098D01*
X0182470Y0072091D01*
X0181154Y0071546D01*
X0180255Y0071546D01*
X0179043Y0070333D01*
X0179043Y0063027D01*
X0179678Y0062392D01*
X0180224Y0061075D01*
X0180224Y0059651D01*
X0179678Y0058334D01*
X0178671Y0057327D01*
X0177355Y0056782D01*
X0175930Y0056782D01*
X0174614Y0057327D01*
X0173607Y0058334D01*
X0173942Y0057999D02*
X0157656Y0057999D01*
X0159255Y0056401D02*
X0192313Y0056401D01*
X0192313Y0057999D02*
X0179343Y0057999D01*
X0180202Y0059598D02*
X0192313Y0059598D01*
X0192313Y0061196D02*
X0180173Y0061196D01*
X0179275Y0062795D02*
X0192313Y0062795D01*
X0192313Y0064393D02*
X0179043Y0064393D01*
X0179043Y0065992D02*
X0192313Y0065992D01*
X0194713Y0066997D02*
X0189950Y0071761D01*
X0194150Y0072386D02*
X0200644Y0072386D01*
X0199324Y0073984D02*
X0193665Y0073984D01*
X0192067Y0075583D02*
X0198742Y0075583D01*
X0198659Y0077181D02*
X0183451Y0077181D01*
X0184023Y0075583D02*
X0187832Y0075583D01*
X0188127Y0077361D02*
X0185550Y0079938D01*
X0185550Y0081761D01*
X0189949Y0081761D01*
X0189949Y0081761D01*
X0189950Y0081761D02*
X0189950Y0086161D01*
X0189950Y0081761D01*
X0189950Y0081761D01*
X0194350Y0081761D01*
X0194350Y0083583D01*
X0191772Y0086161D01*
X0189950Y0086161D01*
X0188127Y0086161D01*
X0185550Y0083583D01*
X0185550Y0081761D01*
X0189949Y0081761D01*
X0189950Y0081760D02*
X0189950Y0081760D01*
X0189950Y0077361D01*
X0191772Y0077361D01*
X0194350Y0079938D01*
X0194350Y0081761D01*
X0189950Y0081761D01*
X0189950Y0081761D01*
X0189950Y0081760D02*
X0189950Y0077361D01*
X0188127Y0077361D01*
X0186708Y0078780D02*
X0176662Y0078780D01*
X0177432Y0077181D02*
X0175064Y0077181D01*
X0173465Y0075583D02*
X0176861Y0075583D01*
X0175905Y0073984D02*
X0164335Y0073984D01*
X0163511Y0070282D02*
X0161968Y0070921D01*
X0155097Y0070921D01*
X0153553Y0070282D01*
X0152372Y0069100D01*
X0151732Y0067557D01*
X0151732Y0065886D01*
X0152372Y0064342D01*
X0153553Y0063161D01*
X0155097Y0062521D01*
X0161968Y0062521D01*
X0163511Y0063161D01*
X0164693Y0064342D01*
X0165332Y0065886D01*
X0165332Y0067557D01*
X0164693Y0069100D01*
X0163511Y0070282D01*
X0162291Y0070787D02*
X0174243Y0070787D01*
X0174243Y0069189D02*
X0164604Y0069189D01*
X0165318Y0067590D02*
X0174243Y0067590D01*
X0174243Y0065992D02*
X0165332Y0065992D01*
X0164714Y0064393D02*
X0174243Y0064393D01*
X0174010Y0062795D02*
X0162628Y0062795D01*
X0156058Y0059598D02*
X0173083Y0059598D01*
X0173112Y0061196D02*
X0154459Y0061196D01*
X0154436Y0062795D02*
X0152861Y0062795D01*
X0152350Y0064393D02*
X0151262Y0064393D01*
X0150848Y0065992D02*
X0151732Y0065992D01*
X0151746Y0067590D02*
X0149735Y0067590D01*
X0152460Y0069189D02*
X0134604Y0069189D01*
X0135318Y0067590D02*
X0145203Y0067590D01*
X0144090Y0065992D02*
X0135332Y0065992D01*
X0134714Y0064393D02*
X0143888Y0064393D01*
X0144420Y0062795D02*
X0132628Y0062795D01*
X0130932Y0061196D02*
X0147671Y0061196D01*
X0149269Y0059598D02*
X0130932Y0059598D01*
X0130932Y0057999D02*
X0150868Y0057999D01*
X0150709Y0056279D02*
X0148887Y0056279D01*
X0148887Y0051879D01*
X0153287Y0051879D01*
X0153287Y0053701D01*
X0150709Y0056279D01*
X0152466Y0056401D02*
X0130932Y0056401D01*
X0130932Y0054802D02*
X0135871Y0054802D01*
X0134687Y0053618D02*
X0137147Y0056079D01*
X0140626Y0056079D01*
X0143087Y0053618D01*
X0143087Y0050139D01*
X0140626Y0047679D01*
X0137147Y0047679D01*
X0134687Y0050139D01*
X0134687Y0053618D01*
X0134687Y0053204D02*
X0130932Y0053204D01*
X0130932Y0051605D02*
X0134687Y0051605D01*
X0134819Y0050007D02*
X0130932Y0050007D01*
X0130932Y0048408D02*
X0136417Y0048408D01*
X0139687Y0046118D02*
X0139687Y0042639D01*
X0142147Y0040179D01*
X0145626Y0040179D01*
X0148087Y0042639D01*
X0148087Y0046118D01*
X0145626Y0048579D01*
X0142147Y0048579D01*
X0139687Y0046118D01*
X0139687Y0045211D02*
X0133043Y0045211D01*
X0134641Y0043613D02*
X0139687Y0043613D01*
X0140311Y0042014D02*
X0136240Y0042014D01*
X0137838Y0040416D02*
X0141910Y0040416D01*
X0145863Y0040416D02*
X0171020Y0040416D01*
X0169123Y0043139D02*
X0173060Y0043139D01*
X0173493Y0043847D01*
X0169123Y0043139D02*
X0147469Y0064792D01*
X0147064Y0056279D02*
X0144487Y0053701D01*
X0144487Y0051879D01*
X0148886Y0051879D01*
X0148886Y0051879D01*
X0148887Y0051879D02*
X0148887Y0056279D01*
X0147064Y0056279D01*
X0145588Y0054802D02*
X0141903Y0054802D01*
X0143087Y0053204D02*
X0144487Y0053204D01*
X0144487Y0051879D02*
X0144487Y0050056D01*
X0147064Y0047479D01*
X0148887Y0047479D01*
X0150709Y0047479D01*
X0153287Y0050056D01*
X0153287Y0051879D01*
X0148887Y0051879D01*
X0148887Y0051879D01*
X0148887Y0051879D01*
X0148887Y0047479D01*
X0148887Y0051879D01*
X0148887Y0051879D01*
X0148886Y0051879D02*
X0144487Y0051879D01*
X0144487Y0051605D02*
X0143087Y0051605D01*
X0142954Y0050007D02*
X0144536Y0050007D01*
X0145797Y0048408D02*
X0146135Y0048408D01*
X0147395Y0046810D02*
X0162058Y0046810D01*
X0163656Y0045211D02*
X0148087Y0045211D01*
X0148087Y0043613D02*
X0165255Y0043613D01*
X0166853Y0042014D02*
X0147462Y0042014D01*
X0148887Y0048408D02*
X0148887Y0048408D01*
X0148887Y0050007D02*
X0148887Y0050007D01*
X0148887Y0051605D02*
X0148887Y0051605D01*
X0148887Y0053204D02*
X0148887Y0053204D01*
X0148887Y0054802D02*
X0148887Y0054802D01*
X0152186Y0054802D02*
X0154065Y0054802D01*
X0153287Y0053204D02*
X0155663Y0053204D01*
X0157262Y0051605D02*
X0153287Y0051605D01*
X0153237Y0050007D02*
X0158861Y0050007D01*
X0160459Y0048408D02*
X0151639Y0048408D01*
X0141976Y0048408D02*
X0141356Y0048408D01*
X0140378Y0046810D02*
X0131444Y0046810D01*
X0128532Y0046328D02*
X0137627Y0037233D01*
X0135846Y0035620D02*
X0118887Y0035620D01*
X0116721Y0035620D02*
X0116721Y0035620D01*
X0116721Y0034022D02*
X0116721Y0034022D01*
X0116721Y0032423D02*
X0116721Y0032423D01*
X0116721Y0031564D02*
X0116721Y0031564D01*
X0116721Y0027164D01*
X0118544Y0027164D01*
X0121121Y0029741D01*
X0121121Y0031564D01*
X0116721Y0031564D01*
X0116721Y0030825D02*
X0116721Y0030825D01*
X0116721Y0029226D02*
X0116721Y0029226D01*
X0116721Y0027628D02*
X0116721Y0027628D01*
X0114435Y0027628D02*
X0016443Y0027628D01*
X0016443Y0029226D02*
X0060639Y0029226D01*
X0061753Y0028112D02*
X0059293Y0030572D01*
X0059293Y0034052D01*
X0061753Y0036512D01*
X0065233Y0036512D01*
X0067693Y0034052D01*
X0067693Y0030572D01*
X0065233Y0028112D01*
X0061753Y0028112D01*
X0059293Y0030825D02*
X0016443Y0030825D01*
X0016443Y0032423D02*
X0059293Y0032423D01*
X0059293Y0034022D02*
X0016443Y0034022D01*
X0016443Y0035620D02*
X0060862Y0035620D01*
X0061753Y0039135D02*
X0065233Y0039135D01*
X0067693Y0041596D01*
X0067693Y0045075D01*
X0065233Y0047535D01*
X0061753Y0047535D01*
X0059293Y0045075D01*
X0059293Y0041596D01*
X0061753Y0039135D01*
X0060473Y0040416D02*
X0056724Y0040416D01*
X0056943Y0042014D02*
X0059293Y0042014D01*
X0059293Y0043613D02*
X0056710Y0043613D01*
X0055923Y0045211D02*
X0059429Y0045211D01*
X0061028Y0046810D02*
X0054043Y0046810D01*
X0054043Y0048408D02*
X0126132Y0048408D01*
X0126132Y0046810D02*
X0106241Y0046810D01*
X0105315Y0047735D02*
X0103493Y0047735D01*
X0103493Y0043336D01*
X0103493Y0043336D01*
X0103493Y0047735D01*
X0101670Y0047735D01*
X0099093Y0045158D01*
X0099093Y0043335D01*
X0099093Y0041513D01*
X0101670Y0038935D01*
X0103493Y0038935D01*
X0105315Y0038935D01*
X0107893Y0041513D01*
X0107893Y0043335D01*
X0103493Y0043335D01*
X0103493Y0038935D01*
X0103493Y0043335D01*
X0103493Y0043335D01*
X0103493Y0043335D01*
X0099093Y0043335D01*
X0103493Y0043335D01*
X0103493Y0043335D01*
X0107893Y0043335D01*
X0107893Y0045158D01*
X0105315Y0047735D01*
X0103493Y0046810D02*
X0103493Y0046810D01*
X0103493Y0045211D02*
X0103493Y0045211D01*
X0103493Y0043613D02*
X0103493Y0043613D01*
X0103493Y0042014D02*
X0103493Y0042014D01*
X0103493Y0040416D02*
X0103493Y0040416D01*
X0106796Y0040416D02*
X0131050Y0040416D01*
X0129451Y0042014D02*
X0107893Y0042014D01*
X0107893Y0043613D02*
X0127853Y0043613D01*
X0126397Y0045211D02*
X0107840Y0045211D01*
X0100745Y0046810D02*
X0065958Y0046810D01*
X0067557Y0045211D02*
X0099146Y0045211D01*
X0099093Y0043613D02*
X0067693Y0043613D01*
X0067693Y0042014D02*
X0099093Y0042014D01*
X0100190Y0040416D02*
X0066513Y0040416D01*
X0066124Y0035620D02*
X0100862Y0035620D01*
X0101753Y0036512D02*
X0099293Y0034052D01*
X0099293Y0030572D01*
X0101753Y0028112D01*
X0105233Y0028112D01*
X0107693Y0030572D01*
X0107693Y0034052D01*
X0105233Y0036512D01*
X0101753Y0036512D01*
X0099293Y0034022D02*
X0067693Y0034022D01*
X0067693Y0032423D02*
X0099293Y0032423D01*
X0099293Y0030825D02*
X0067693Y0030825D01*
X0066347Y0029226D02*
X0100639Y0029226D01*
X0101753Y0025685D02*
X0099293Y0023225D01*
X0099293Y0019745D01*
X0101753Y0017285D01*
X0105233Y0017285D01*
X0107693Y0019745D01*
X0107693Y0023225D01*
X0105233Y0025685D01*
X0101753Y0025685D01*
X0100499Y0024431D02*
X0066487Y0024431D01*
X0067693Y0023225D02*
X0065233Y0025685D01*
X0061753Y0025685D01*
X0059293Y0023225D01*
X0059293Y0019745D01*
X0061753Y0017285D01*
X0065233Y0017285D01*
X0067693Y0019745D01*
X0067693Y0023225D01*
X0067693Y0022832D02*
X0099293Y0022832D01*
X0099293Y0021234D02*
X0067693Y0021234D01*
X0067583Y0019635D02*
X0099403Y0019635D01*
X0101002Y0018037D02*
X0065984Y0018037D01*
X0061002Y0018037D02*
X0055460Y0018037D01*
X0055226Y0017802D02*
X0055838Y0018414D01*
X0056347Y0019114D01*
X0056740Y0019886D01*
X0057007Y0020709D01*
X0057143Y0021564D01*
X0057142Y0021797D01*
X0051843Y0021797D01*
X0051843Y0022197D01*
X0057143Y0022197D01*
X0057143Y0022430D01*
X0057007Y0023285D01*
X0056740Y0024108D01*
X0056347Y0024879D01*
X0055838Y0025580D01*
X0055226Y0026192D01*
X0054525Y0026701D01*
X0053754Y0027094D01*
X0052930Y0027361D01*
X0052075Y0027497D01*
X0051843Y0027497D01*
X0051843Y0022197D01*
X0051442Y0022197D01*
X0051442Y0021797D01*
X0046143Y0021797D01*
X0046143Y0021564D01*
X0046278Y0020709D01*
X0046545Y0019886D01*
X0046938Y0019114D01*
X0047447Y0018414D01*
X0048060Y0017802D01*
X0048760Y0017293D01*
X0049531Y0016900D01*
X0050355Y0016632D01*
X0051210Y0016497D01*
X0051442Y0016497D01*
X0051442Y0021797D01*
X0051843Y0021797D01*
X0051843Y0016497D01*
X0052075Y0016497D01*
X0052930Y0016632D01*
X0053754Y0016900D01*
X0054525Y0017293D01*
X0055226Y0017802D01*
X0056612Y0019635D02*
X0059403Y0019635D01*
X0059293Y0021234D02*
X0057090Y0021234D01*
X0057079Y0022832D02*
X0059293Y0022832D01*
X0060499Y0024431D02*
X0056575Y0024431D01*
X0055388Y0026029D02*
X0134376Y0026029D01*
X0134333Y0027628D02*
X0119008Y0027628D01*
X0118461Y0025764D02*
X0114982Y0025764D01*
X0112521Y0023303D01*
X0112521Y0019824D01*
X0114982Y0017364D01*
X0118461Y0017364D01*
X0120921Y0019824D01*
X0120921Y0023303D01*
X0118461Y0025764D01*
X0119794Y0024431D02*
X0135038Y0024431D01*
X0136916Y0022832D02*
X0120921Y0022832D01*
X0120921Y0021234D02*
X0197330Y0021234D01*
X0197330Y0019635D02*
X0120732Y0019635D01*
X0119134Y0018037D02*
X0197979Y0018037D01*
X0197826Y0022832D02*
X0195549Y0022832D01*
X0197134Y0024431D02*
X0199029Y0024431D01*
X0197914Y0026029D02*
X0197796Y0026029D01*
X0197851Y0030825D02*
X0197892Y0030825D01*
X0197189Y0032423D02*
X0199082Y0032423D01*
X0196827Y0034022D02*
X0195681Y0034022D01*
X0194901Y0035620D02*
X0192647Y0035620D01*
X0193302Y0037219D02*
X0176558Y0037219D01*
X0178156Y0038817D02*
X0191704Y0038817D01*
X0190105Y0040416D02*
X0182265Y0040416D01*
X0183552Y0042014D02*
X0188507Y0042014D01*
X0188808Y0045107D02*
X0197627Y0036288D01*
X0202430Y0036288D01*
X0198925Y0040416D02*
X0196893Y0040416D01*
X0196485Y0042014D02*
X0195295Y0042014D01*
X0194782Y0043613D02*
X0193696Y0043613D01*
X0193184Y0045211D02*
X0192098Y0045211D01*
X0192313Y0046810D02*
X0191208Y0046810D01*
X0191208Y0048408D02*
X0192313Y0048408D01*
X0192313Y0050007D02*
X0191208Y0050007D01*
X0191208Y0051605D02*
X0192313Y0051605D01*
X0192313Y0053204D02*
X0191208Y0053204D01*
X0191059Y0054802D02*
X0192313Y0054802D01*
X0197113Y0054802D02*
X0198088Y0054802D01*
X0197426Y0053204D02*
X0197113Y0053204D01*
X0197113Y0051605D02*
X0197330Y0051605D01*
X0197113Y0050007D02*
X0197718Y0050007D01*
X0197113Y0048408D02*
X0198767Y0048408D01*
X0194713Y0047076D02*
X0197666Y0044123D01*
X0202430Y0044123D01*
X0194713Y0047076D02*
X0194713Y0066997D01*
X0197065Y0067590D02*
X0203693Y0067590D01*
X0203693Y0065992D02*
X0197113Y0065992D01*
X0197113Y0064393D02*
X0203693Y0064393D01*
X0203693Y0062795D02*
X0197113Y0062795D01*
X0197113Y0061196D02*
X0203693Y0061196D01*
X0203693Y0059598D02*
X0197113Y0059598D01*
X0197113Y0057999D02*
X0203693Y0057999D01*
X0199830Y0056401D02*
X0197113Y0056401D01*
X0188180Y0067590D02*
X0179043Y0067590D01*
X0179043Y0069189D02*
X0186582Y0069189D01*
X0185750Y0070787D02*
X0179496Y0070787D01*
X0182765Y0072386D02*
X0185750Y0072386D01*
X0186234Y0073984D02*
X0183845Y0073984D01*
X0180442Y0075127D02*
X0176643Y0071328D01*
X0176643Y0060363D01*
X0174483Y0072386D02*
X0055780Y0072386D01*
X0054182Y0070787D02*
X0112281Y0070787D01*
X0112733Y0071239D02*
X0110156Y0068662D01*
X0110156Y0066839D01*
X0110156Y0065017D01*
X0112733Y0062439D01*
X0114556Y0062439D01*
X0116378Y0062439D01*
X0118956Y0065017D01*
X0118956Y0066839D01*
X0114556Y0066839D01*
X0114556Y0062439D01*
X0114556Y0066839D01*
X0114556Y0066839D01*
X0114556Y0066839D01*
X0110156Y0066839D01*
X0114556Y0066839D01*
X0114556Y0066839D01*
X0118956Y0066839D01*
X0118956Y0068662D01*
X0116378Y0071239D01*
X0114556Y0071239D01*
X0114556Y0066839D01*
X0114556Y0066839D01*
X0114556Y0071239D01*
X0112733Y0071239D01*
X0112816Y0072639D02*
X0116296Y0072639D01*
X0118756Y0075100D01*
X0118756Y0078579D01*
X0116296Y0081039D01*
X0112816Y0081039D01*
X0110356Y0078579D01*
X0110356Y0075100D01*
X0112816Y0072639D01*
X0111471Y0073984D02*
X0057379Y0073984D01*
X0058977Y0075583D02*
X0110356Y0075583D01*
X0110356Y0077181D02*
X0060576Y0077181D01*
X0062174Y0078780D02*
X0110557Y0078780D01*
X0112155Y0080379D02*
X0063773Y0080379D01*
X0065371Y0081977D02*
X0173071Y0081977D01*
X0171473Y0080379D02*
X0163278Y0080379D01*
X0163926Y0083576D02*
X0174670Y0083576D01*
X0173214Y0085174D02*
X0176268Y0085174D01*
X0174812Y0086773D02*
X0177867Y0086773D01*
X0176411Y0088371D02*
X0179465Y0088371D01*
X0178009Y0089970D02*
X0181064Y0089970D01*
X0179608Y0091568D02*
X0182662Y0091568D01*
X0181206Y0093167D02*
X0184261Y0093167D01*
X0182805Y0094765D02*
X0185859Y0094765D01*
X0184403Y0096364D02*
X0187458Y0096364D01*
X0186002Y0097962D02*
X0189056Y0097962D01*
X0187600Y0099561D02*
X0199615Y0099561D01*
X0201197Y0101159D02*
X0189199Y0101159D01*
X0190797Y0102758D02*
X0200532Y0102758D01*
X0204143Y0106643D02*
X0191288Y0106643D01*
X0171367Y0086721D01*
X0158532Y0086721D01*
X0153241Y0089970D02*
X0133824Y0089970D01*
X0133511Y0090282D02*
X0131968Y0090921D01*
X0125097Y0090921D01*
X0123553Y0090282D01*
X0122372Y0089100D01*
X0121732Y0087557D01*
X0121732Y0085886D01*
X0122372Y0084342D01*
X0123553Y0083161D01*
X0125097Y0082521D01*
X0131968Y0082521D01*
X0133511Y0083161D01*
X0134693Y0084342D01*
X0135332Y0085886D01*
X0135332Y0087557D01*
X0134693Y0089100D01*
X0133511Y0090282D01*
X0134995Y0088371D02*
X0152070Y0088371D01*
X0151732Y0086773D02*
X0135332Y0086773D01*
X0135037Y0085174D02*
X0152027Y0085174D01*
X0153138Y0083576D02*
X0133926Y0083576D01*
X0133278Y0080379D02*
X0153787Y0080379D01*
X0152239Y0078780D02*
X0134826Y0078780D01*
X0134693Y0079100D02*
X0133511Y0080282D01*
X0131968Y0080921D01*
X0125097Y0080921D01*
X0123553Y0080282D01*
X0122372Y0079100D01*
X0121732Y0077557D01*
X0121732Y0075886D01*
X0122372Y0074342D01*
X0123553Y0073161D01*
X0125097Y0072521D01*
X0131968Y0072521D01*
X0133511Y0073161D01*
X0134693Y0074342D01*
X0135332Y0075886D01*
X0135332Y0077557D01*
X0134693Y0079100D01*
X0135332Y0077181D02*
X0151732Y0077181D01*
X0151858Y0075583D02*
X0135207Y0075583D01*
X0134335Y0073984D02*
X0152729Y0073984D01*
X0154774Y0070787D02*
X0132291Y0070787D01*
X0128532Y0066721D02*
X0128532Y0046328D01*
X0126132Y0050007D02*
X0054043Y0050007D01*
X0054043Y0051605D02*
X0126132Y0051605D01*
X0126132Y0053204D02*
X0054043Y0053204D01*
X0054043Y0054802D02*
X0126132Y0054802D01*
X0126132Y0056401D02*
X0054043Y0056401D01*
X0054043Y0057999D02*
X0126132Y0057999D01*
X0126132Y0059598D02*
X0054043Y0059598D01*
X0054043Y0061196D02*
X0126132Y0061196D01*
X0124436Y0062795D02*
X0116734Y0062795D01*
X0114556Y0062795D02*
X0114556Y0062795D01*
X0114556Y0064393D02*
X0114556Y0064393D01*
X0114556Y0065992D02*
X0114556Y0065992D01*
X0114556Y0067590D02*
X0114556Y0067590D01*
X0114556Y0069189D02*
X0114556Y0069189D01*
X0114556Y0070787D02*
X0114556Y0070787D01*
X0116830Y0070787D02*
X0124774Y0070787D01*
X0122460Y0069189D02*
X0118429Y0069189D01*
X0118956Y0067590D02*
X0121746Y0067590D01*
X0121732Y0065992D02*
X0118956Y0065992D01*
X0118332Y0064393D02*
X0122350Y0064393D01*
X0122729Y0073984D02*
X0117641Y0073984D01*
X0118756Y0075583D02*
X0121858Y0075583D01*
X0121732Y0077181D02*
X0118756Y0077181D01*
X0118555Y0078780D02*
X0122239Y0078780D01*
X0123787Y0080379D02*
X0116956Y0080379D01*
X0122027Y0085174D02*
X0068568Y0085174D01*
X0066970Y0083576D02*
X0123138Y0083576D01*
X0121732Y0086773D02*
X0070167Y0086773D01*
X0071765Y0088371D02*
X0122070Y0088371D01*
X0123241Y0089970D02*
X0073364Y0089970D01*
X0074962Y0091568D02*
X0172820Y0091568D01*
X0174418Y0093167D02*
X0163517Y0093167D01*
X0163824Y0089970D02*
X0171221Y0089970D01*
X0172962Y0094765D02*
X0176017Y0094765D01*
X0174561Y0096364D02*
X0177615Y0096364D01*
X0176159Y0097962D02*
X0179214Y0097962D01*
X0177758Y0099561D02*
X0180812Y0099561D01*
X0179356Y0101159D02*
X0182411Y0101159D01*
X0180955Y0102758D02*
X0184009Y0102758D01*
X0182553Y0104356D02*
X0185608Y0104356D01*
X0184152Y0105955D02*
X0187206Y0105955D01*
X0185750Y0107553D02*
X0188805Y0107553D01*
X0187349Y0109152D02*
X0199445Y0109152D01*
X0200755Y0110750D02*
X0188947Y0110750D01*
X0190546Y0112349D02*
X0200941Y0112349D01*
X0199522Y0113947D02*
X0192144Y0113947D01*
X0191446Y0116643D02*
X0171524Y0096721D01*
X0158532Y0096721D01*
X0153547Y0093167D02*
X0133517Y0093167D01*
X0134868Y0094765D02*
X0152196Y0094765D01*
X0151732Y0096364D02*
X0135332Y0096364D01*
X0135164Y0097962D02*
X0151900Y0097962D01*
X0152832Y0099561D02*
X0134233Y0099561D01*
X0132538Y0102758D02*
X0154019Y0102758D01*
X0154243Y0102644D02*
X0154902Y0102430D01*
X0155586Y0102321D01*
X0158532Y0102321D01*
X0158532Y0106721D01*
X0158532Y0106721D01*
X0151532Y0106721D01*
X0151532Y0106375D01*
X0151641Y0105691D01*
X0151855Y0105032D01*
X0152169Y0104415D01*
X0152576Y0103855D01*
X0153066Y0103365D01*
X0153626Y0102958D01*
X0154243Y0102644D01*
X0152212Y0104356D02*
X0134699Y0104356D01*
X0134693Y0104342D02*
X0135332Y0105886D01*
X0135332Y0107557D01*
X0134693Y0109100D01*
X0133511Y0110282D01*
X0131968Y0110921D01*
X0125097Y0110921D01*
X0123553Y0110282D01*
X0122372Y0109100D01*
X0121732Y0107557D01*
X0121732Y0105886D01*
X0122372Y0104342D01*
X0123553Y0103161D01*
X0125097Y0102521D01*
X0131968Y0102521D01*
X0133511Y0103161D01*
X0134693Y0104342D01*
X0135332Y0105955D02*
X0151599Y0105955D01*
X0151532Y0106721D02*
X0158532Y0106721D01*
X0158532Y0106721D01*
X0158532Y0102321D01*
X0161479Y0102321D01*
X0162163Y0102430D01*
X0162821Y0102644D01*
X0163438Y0102958D01*
X0163999Y0103365D01*
X0164488Y0103855D01*
X0164895Y0104415D01*
X0165210Y0105032D01*
X0165424Y0105691D01*
X0165532Y0106375D01*
X0165532Y0106721D01*
X0158532Y0106721D01*
X0158532Y0111121D01*
X0155586Y0111121D01*
X0154902Y0111013D01*
X0154243Y0110799D01*
X0153626Y0110484D01*
X0153066Y0110077D01*
X0152576Y0109588D01*
X0152169Y0109027D01*
X0151855Y0108410D01*
X0151641Y0107752D01*
X0151532Y0107068D01*
X0151532Y0106721D01*
X0151609Y0107553D02*
X0135332Y0107553D01*
X0134642Y0109152D02*
X0152259Y0109152D01*
X0154148Y0110750D02*
X0132381Y0110750D01*
X0131968Y0112521D02*
X0133511Y0113161D01*
X0134693Y0114342D01*
X0135332Y0115886D01*
X0135332Y0117557D01*
X0134693Y0119100D01*
X0133511Y0120282D01*
X0131968Y0120921D01*
X0125097Y0120921D01*
X0123553Y0120282D01*
X0122372Y0119100D01*
X0121732Y0117557D01*
X0121732Y0115886D01*
X0122372Y0114342D01*
X0123553Y0113161D01*
X0125097Y0112521D01*
X0131968Y0112521D01*
X0134298Y0113947D02*
X0152767Y0113947D01*
X0152372Y0114342D02*
X0153553Y0113161D01*
X0155097Y0112521D01*
X0161968Y0112521D01*
X0163511Y0113161D01*
X0164693Y0114342D01*
X0165332Y0115886D01*
X0165332Y0117557D01*
X0164693Y0119100D01*
X0163511Y0120282D01*
X0161968Y0120921D01*
X0155097Y0120921D01*
X0153553Y0120282D01*
X0152372Y0119100D01*
X0151732Y0117557D01*
X0151732Y0115886D01*
X0152372Y0114342D01*
X0151873Y0115546D02*
X0135191Y0115546D01*
X0135332Y0117144D02*
X0151732Y0117144D01*
X0152224Y0118743D02*
X0134841Y0118743D01*
X0133368Y0120341D02*
X0153697Y0120341D01*
X0155097Y0122521D02*
X0153553Y0123161D01*
X0152372Y0124342D01*
X0151732Y0125886D01*
X0151732Y0127557D01*
X0152372Y0129100D01*
X0153553Y0130282D01*
X0155097Y0130921D01*
X0161968Y0130921D01*
X0163511Y0130282D01*
X0164672Y0129121D01*
X0164758Y0129121D01*
X0165640Y0128756D01*
X0166315Y0128081D01*
X0171650Y0122746D01*
X0172015Y0121864D01*
X0172015Y0109779D01*
X0172651Y0109143D01*
X0173196Y0107827D01*
X0173196Y0106403D01*
X0172651Y0105086D01*
X0171643Y0104079D01*
X0170327Y0103534D01*
X0168903Y0103534D01*
X0167586Y0104079D01*
X0166579Y0105086D01*
X0166034Y0106403D01*
X0166034Y0107827D01*
X0166579Y0109143D01*
X0167215Y0109779D01*
X0167215Y0120392D01*
X0163979Y0123628D01*
X0163511Y0123161D01*
X0161968Y0122521D01*
X0155097Y0122521D01*
X0153176Y0123538D02*
X0134172Y0123538D01*
X0133999Y0123365D02*
X0134488Y0123855D01*
X0134895Y0124415D01*
X0135210Y0125032D01*
X0135424Y0125691D01*
X0135532Y0126375D01*
X0135532Y0126721D01*
X0128532Y0126721D01*
X0128532Y0126721D01*
X0128532Y0122321D01*
X0125586Y0122321D01*
X0124902Y0122430D01*
X0124243Y0122644D01*
X0123626Y0122958D01*
X0123066Y0123365D01*
X0122576Y0123855D01*
X0122169Y0124415D01*
X0121855Y0125032D01*
X0121641Y0125691D01*
X0121532Y0126375D01*
X0121532Y0126721D01*
X0128532Y0126721D01*
X0128532Y0126721D01*
X0121532Y0126721D01*
X0121532Y0127068D01*
X0121641Y0127752D01*
X0121855Y0128410D01*
X0122169Y0129027D01*
X0122576Y0129588D01*
X0123066Y0130077D01*
X0123626Y0130484D01*
X0124243Y0130799D01*
X0124902Y0131013D01*
X0125586Y0131121D01*
X0128532Y0131121D01*
X0128532Y0126721D01*
X0128532Y0122321D01*
X0131479Y0122321D01*
X0132163Y0122430D01*
X0132821Y0122644D01*
X0133438Y0122958D01*
X0133999Y0123365D01*
X0135244Y0125137D02*
X0152043Y0125137D01*
X0151732Y0126735D02*
X0135532Y0126735D01*
X0135532Y0126721D02*
X0135532Y0127068D01*
X0135424Y0127752D01*
X0135210Y0128410D01*
X0134895Y0129027D01*
X0134488Y0129588D01*
X0133999Y0130077D01*
X0133438Y0130484D01*
X0132821Y0130799D01*
X0132163Y0131013D01*
X0131479Y0131121D01*
X0128532Y0131121D01*
X0128532Y0126721D01*
X0128532Y0126721D01*
X0128532Y0126721D01*
X0135532Y0126721D01*
X0135235Y0128334D02*
X0152054Y0128334D01*
X0153204Y0129932D02*
X0134144Y0129932D01*
X0133436Y0133129D02*
X0153629Y0133129D01*
X0153553Y0133161D02*
X0155097Y0132521D01*
X0161968Y0132521D01*
X0163511Y0133161D01*
X0164693Y0134342D01*
X0165332Y0135886D01*
X0165332Y0137557D01*
X0164693Y0139100D01*
X0163511Y0140282D01*
X0161968Y0140921D01*
X0155097Y0140921D01*
X0153553Y0140282D01*
X0152372Y0139100D01*
X0151732Y0137557D01*
X0151732Y0135886D01*
X0152372Y0134342D01*
X0153553Y0133161D01*
X0152212Y0134728D02*
X0134853Y0134728D01*
X0135332Y0136326D02*
X0151732Y0136326D01*
X0151885Y0137925D02*
X0135180Y0137925D01*
X0134270Y0139523D02*
X0152795Y0139523D01*
X0154616Y0142720D02*
X0132449Y0142720D01*
X0134670Y0144319D02*
X0152395Y0144319D01*
X0151732Y0145917D02*
X0135332Y0145917D01*
X0135332Y0147516D02*
X0151732Y0147516D01*
X0152386Y0149114D02*
X0134679Y0149114D01*
X0132470Y0150713D02*
X0154594Y0150713D01*
X0152804Y0153910D02*
X0134261Y0153910D01*
X0135176Y0155509D02*
X0151889Y0155509D01*
X0151732Y0157107D02*
X0135332Y0157107D01*
X0134856Y0158706D02*
X0152208Y0158706D01*
X0153607Y0160304D02*
X0133458Y0160304D01*
X0133852Y0163501D02*
X0153213Y0163501D01*
X0152058Y0165100D02*
X0135007Y0165100D01*
X0135332Y0166698D02*
X0151732Y0166698D01*
X0152039Y0168297D02*
X0135026Y0168297D01*
X0133898Y0169895D02*
X0153166Y0169895D01*
X0153719Y0173092D02*
X0133346Y0173092D01*
X0133511Y0173161D02*
X0134693Y0174342D01*
X0135332Y0175886D01*
X0135332Y0177557D01*
X0134693Y0179100D01*
X0133511Y0180282D01*
X0131968Y0180921D01*
X0125097Y0180921D01*
X0123553Y0180282D01*
X0122372Y0179100D01*
X0121732Y0177557D01*
X0121732Y0175886D01*
X0122372Y0174342D01*
X0123553Y0173161D01*
X0125097Y0172521D01*
X0131968Y0172521D01*
X0133511Y0173161D01*
X0134837Y0174691D02*
X0152227Y0174691D01*
X0151732Y0176289D02*
X0135332Y0176289D01*
X0135195Y0177888D02*
X0151869Y0177888D01*
X0152758Y0179486D02*
X0134307Y0179486D01*
X0132359Y0182683D02*
X0154166Y0182683D01*
X0154243Y0182644D02*
X0154902Y0182430D01*
X0155586Y0182321D01*
X0158532Y0182321D01*
X0158532Y0186721D01*
X0158532Y0186721D01*
X0151532Y0186721D01*
X0151532Y0186375D01*
X0151641Y0185691D01*
X0151855Y0185032D01*
X0152169Y0184415D01*
X0152576Y0183855D01*
X0153066Y0183365D01*
X0153626Y0182958D01*
X0154243Y0182644D01*
X0152266Y0184282D02*
X0134632Y0184282D01*
X0134693Y0184342D02*
X0135332Y0185886D01*
X0135332Y0187557D01*
X0134693Y0189100D01*
X0133511Y0190282D01*
X0131968Y0190921D01*
X0125097Y0190921D01*
X0123553Y0190282D01*
X0122372Y0189100D01*
X0121732Y0187557D01*
X0121732Y0185886D01*
X0122372Y0184342D01*
X0123553Y0183161D01*
X0125097Y0182521D01*
X0131968Y0182521D01*
X0133511Y0183161D01*
X0134693Y0184342D01*
X0135330Y0185880D02*
X0151611Y0185880D01*
X0151532Y0186721D02*
X0158532Y0186721D01*
X0158532Y0186721D01*
X0158532Y0182321D01*
X0161479Y0182321D01*
X0162163Y0182430D01*
X0162821Y0182644D01*
X0163438Y0182958D01*
X0163999Y0183365D01*
X0164488Y0183855D01*
X0164895Y0184415D01*
X0165210Y0185032D01*
X0165424Y0185691D01*
X0165532Y0186375D01*
X0165532Y0186721D01*
X0158532Y0186721D01*
X0158532Y0191121D01*
X0155586Y0191121D01*
X0154902Y0191013D01*
X0154243Y0190799D01*
X0153626Y0190484D01*
X0153066Y0190077D01*
X0152576Y0189588D01*
X0152169Y0189027D01*
X0151855Y0188410D01*
X0151641Y0187752D01*
X0151532Y0187068D01*
X0151532Y0186721D01*
X0151597Y0187479D02*
X0135332Y0187479D01*
X0134702Y0189077D02*
X0152205Y0189077D01*
X0154002Y0190676D02*
X0132560Y0190676D01*
X0131968Y0192521D02*
X0133511Y0193161D01*
X0134693Y0194342D01*
X0135332Y0195886D01*
X0135332Y0197557D01*
X0134693Y0199100D01*
X0133511Y0200282D01*
X0131968Y0200921D01*
X0125097Y0200921D01*
X0123553Y0200282D01*
X0122372Y0199100D01*
X0121732Y0197557D01*
X0121732Y0195886D01*
X0122372Y0194342D01*
X0123553Y0193161D01*
X0125097Y0192521D01*
X0131968Y0192521D01*
X0134224Y0193873D02*
X0152841Y0193873D01*
X0152372Y0194342D02*
X0153553Y0193161D01*
X0155097Y0192521D01*
X0161968Y0192521D01*
X0163511Y0193161D01*
X0164693Y0194342D01*
X0165332Y0195886D01*
X0165332Y0197557D01*
X0164693Y0199100D01*
X0163511Y0200282D01*
X0161968Y0200921D01*
X0155097Y0200921D01*
X0153553Y0200282D01*
X0152372Y0199100D01*
X0151732Y0197557D01*
X0151732Y0195886D01*
X0152372Y0194342D01*
X0151904Y0195471D02*
X0135161Y0195471D01*
X0135332Y0197070D02*
X0151732Y0197070D01*
X0152193Y0198668D02*
X0134872Y0198668D01*
X0133526Y0200267D02*
X0153538Y0200267D01*
X0163526Y0200267D02*
X0174367Y0200267D01*
X0175218Y0201118D02*
X0172757Y0198658D01*
X0172757Y0195178D01*
X0175218Y0192718D01*
X0178697Y0192718D01*
X0181157Y0195178D01*
X0181157Y0198658D01*
X0178697Y0201118D01*
X0175218Y0201118D01*
X0172768Y0198668D02*
X0164872Y0198668D01*
X0165332Y0197070D02*
X0172757Y0197070D01*
X0172757Y0195471D02*
X0165161Y0195471D01*
X0164224Y0193873D02*
X0174063Y0193873D01*
X0175135Y0191318D02*
X0172557Y0188741D01*
X0172557Y0186918D01*
X0172557Y0185096D01*
X0175135Y0182518D01*
X0175279Y0182518D01*
X0172994Y0180233D01*
X0172994Y0176753D01*
X0175454Y0174293D01*
X0178933Y0174293D01*
X0181394Y0176753D01*
X0181394Y0180233D01*
X0178944Y0182682D01*
X0181357Y0185096D01*
X0181357Y0186918D01*
X0176958Y0186918D01*
X0176958Y0186918D01*
X0181357Y0186918D01*
X0181357Y0188741D01*
X0178780Y0191318D01*
X0176958Y0191318D01*
X0176958Y0186918D01*
X0176957Y0186918D01*
X0172557Y0186918D01*
X0176957Y0186918D01*
X0176957Y0186918D01*
X0176957Y0191318D01*
X0175135Y0191318D01*
X0174493Y0190676D02*
X0163063Y0190676D01*
X0162821Y0190799D02*
X0162163Y0191013D01*
X0161479Y0191121D01*
X0158532Y0191121D01*
X0158532Y0186721D01*
X0158532Y0186721D01*
X0158532Y0186721D01*
X0165532Y0186721D01*
X0165532Y0187068D01*
X0165424Y0187752D01*
X0165210Y0188410D01*
X0164895Y0189027D01*
X0164488Y0189588D01*
X0163999Y0190077D01*
X0163438Y0190484D01*
X0162821Y0190799D01*
X0164859Y0189077D02*
X0172894Y0189077D01*
X0172557Y0187479D02*
X0165467Y0187479D01*
X0165454Y0185880D02*
X0172557Y0185880D01*
X0173371Y0184282D02*
X0164799Y0184282D01*
X0162899Y0182683D02*
X0174970Y0182683D01*
X0173846Y0181085D02*
X0019861Y0181085D01*
X0020060Y0182683D02*
X0124706Y0182683D01*
X0122432Y0184282D02*
X0021306Y0184282D01*
X0021864Y0185880D02*
X0121735Y0185880D01*
X0121732Y0187479D02*
X0021864Y0187479D01*
X0021308Y0189077D02*
X0122362Y0189077D01*
X0124504Y0190676D02*
X0020065Y0190676D01*
X0019652Y0192274D02*
X0203693Y0192274D01*
X0203693Y0190676D02*
X0199376Y0190676D01*
X0198500Y0191551D02*
X0200961Y0189091D01*
X0200961Y0185611D01*
X0198500Y0183151D01*
X0195021Y0183151D01*
X0192561Y0185611D01*
X0192561Y0189091D01*
X0195021Y0191551D01*
X0198500Y0191551D01*
X0198500Y0193151D02*
X0195021Y0193151D01*
X0192561Y0195611D01*
X0192561Y0199091D01*
X0195021Y0201551D01*
X0198500Y0201551D01*
X0200961Y0199091D01*
X0200961Y0195611D01*
X0198500Y0193151D01*
X0199222Y0193873D02*
X0203693Y0193873D01*
X0203693Y0195471D02*
X0200820Y0195471D01*
X0200961Y0197070D02*
X0203693Y0197070D01*
X0203693Y0198668D02*
X0200961Y0198668D01*
X0199785Y0200267D02*
X0203693Y0200267D01*
X0203693Y0201865D02*
X0017899Y0201865D01*
X0016443Y0203464D02*
X0203693Y0203464D01*
X0193737Y0200267D02*
X0179548Y0200267D01*
X0181147Y0198668D02*
X0192561Y0198668D01*
X0192561Y0197070D02*
X0181157Y0197070D01*
X0181157Y0195471D02*
X0192701Y0195471D01*
X0194299Y0193873D02*
X0179852Y0193873D01*
X0179422Y0190676D02*
X0194146Y0190676D01*
X0192561Y0189077D02*
X0181021Y0189077D01*
X0181357Y0187479D02*
X0192561Y0187479D01*
X0192561Y0185880D02*
X0181357Y0185880D01*
X0180544Y0184282D02*
X0193890Y0184282D01*
X0199631Y0184282D02*
X0203693Y0184282D01*
X0203693Y0185880D02*
X0200961Y0185880D01*
X0200961Y0187479D02*
X0203693Y0187479D01*
X0203693Y0189077D02*
X0200961Y0189077D01*
X0203693Y0182683D02*
X0178945Y0182683D01*
X0180542Y0181085D02*
X0203693Y0181085D01*
X0203693Y0179486D02*
X0181394Y0179486D01*
X0181394Y0177888D02*
X0203693Y0177888D01*
X0203693Y0176289D02*
X0180930Y0176289D01*
X0179331Y0174691D02*
X0203693Y0174691D01*
X0203693Y0173092D02*
X0165555Y0173092D01*
X0164837Y0174691D02*
X0175056Y0174691D01*
X0173458Y0176289D02*
X0165332Y0176289D01*
X0165195Y0177888D02*
X0172994Y0177888D01*
X0172994Y0179486D02*
X0164307Y0179486D01*
X0158532Y0176721D02*
X0170068Y0165186D01*
X0182902Y0165186D01*
X0201446Y0146643D01*
X0204143Y0146643D01*
X0203693Y0152312D02*
X0199171Y0152312D01*
X0197572Y0153910D02*
X0203693Y0153910D01*
X0203693Y0155509D02*
X0195974Y0155509D01*
X0194375Y0157107D02*
X0203693Y0157107D01*
X0203693Y0158706D02*
X0192777Y0158706D01*
X0191178Y0160304D02*
X0203693Y0160304D01*
X0203693Y0161903D02*
X0189580Y0161903D01*
X0187981Y0163501D02*
X0203693Y0163501D01*
X0203693Y0165100D02*
X0186383Y0165100D01*
X0184784Y0166698D02*
X0203693Y0166698D01*
X0203693Y0168297D02*
X0170351Y0168297D01*
X0168752Y0169895D02*
X0203693Y0169895D01*
X0203693Y0171494D02*
X0167154Y0171494D01*
X0160366Y0171494D02*
X0018797Y0171494D01*
X0020752Y0173092D02*
X0123719Y0173092D01*
X0122227Y0174691D02*
X0021700Y0174691D01*
X0022064Y0176289D02*
X0121732Y0176289D01*
X0121869Y0177888D02*
X0021941Y0177888D01*
X0021308Y0179486D02*
X0122758Y0179486D01*
X0123166Y0169895D02*
X0020846Y0169895D01*
X0016603Y0166721D02*
X0128532Y0166721D01*
X0123213Y0163501D02*
X0020878Y0163501D01*
X0018875Y0161903D02*
X0159957Y0161903D01*
X0158532Y0156721D02*
X0169753Y0145501D01*
X0182902Y0145501D01*
X0201761Y0126643D01*
X0204143Y0126643D01*
X0201646Y0121940D02*
X0179570Y0121940D01*
X0179244Y0121614D02*
X0182144Y0124513D01*
X0182144Y0126564D01*
X0182144Y0128614D01*
X0179244Y0131514D01*
X0177194Y0131514D01*
X0177194Y0126564D01*
X0182144Y0126564D01*
X0177194Y0126564D01*
X0177194Y0126564D01*
X0177194Y0126564D01*
X0177194Y0131514D01*
X0175143Y0131514D01*
X0172244Y0128614D01*
X0172244Y0126564D01*
X0177194Y0126564D01*
X0177194Y0121614D01*
X0179244Y0121614D01*
X0178139Y0121314D02*
X0179884Y0120591D01*
X0181221Y0119254D01*
X0181944Y0117509D01*
X0181944Y0115619D01*
X0181221Y0113873D01*
X0179884Y0112537D01*
X0178139Y0111814D01*
X0176249Y0111814D01*
X0174503Y0112537D01*
X0173167Y0113873D01*
X0172444Y0115619D01*
X0172444Y0117509D01*
X0173167Y0119254D01*
X0174503Y0120591D01*
X0176249Y0121314D01*
X0178139Y0121314D01*
X0177194Y0121614D02*
X0177194Y0126564D01*
X0177194Y0126564D01*
X0177194Y0126564D01*
X0172244Y0126564D01*
X0172244Y0124513D01*
X0175143Y0121614D01*
X0177194Y0121614D01*
X0177194Y0121940D02*
X0177194Y0121940D01*
X0177194Y0123538D02*
X0177194Y0123538D01*
X0177194Y0125137D02*
X0177194Y0125137D01*
X0177194Y0126735D02*
X0177194Y0126735D01*
X0177194Y0128334D02*
X0177194Y0128334D01*
X0177194Y0129932D02*
X0177194Y0129932D01*
X0180825Y0129932D02*
X0195077Y0129932D01*
X0196675Y0128334D02*
X0182144Y0128334D01*
X0182144Y0126735D02*
X0198274Y0126735D01*
X0199030Y0125137D02*
X0182144Y0125137D01*
X0181169Y0123538D02*
X0199751Y0123538D01*
X0200346Y0120341D02*
X0180134Y0120341D01*
X0181432Y0118743D02*
X0190245Y0118743D01*
X0188553Y0117144D02*
X0181944Y0117144D01*
X0181913Y0115546D02*
X0186955Y0115546D01*
X0185356Y0113947D02*
X0181251Y0113947D01*
X0179430Y0112349D02*
X0183758Y0112349D01*
X0182159Y0110750D02*
X0172015Y0110750D01*
X0172015Y0112349D02*
X0174957Y0112349D01*
X0173136Y0113947D02*
X0172015Y0113947D01*
X0172015Y0115546D02*
X0172474Y0115546D01*
X0172444Y0117144D02*
X0172015Y0117144D01*
X0172015Y0118743D02*
X0172955Y0118743D01*
X0172015Y0120341D02*
X0174254Y0120341D01*
X0174817Y0121940D02*
X0171984Y0121940D01*
X0170857Y0123538D02*
X0173219Y0123538D01*
X0172244Y0125137D02*
X0169259Y0125137D01*
X0167660Y0126735D02*
X0172244Y0126735D01*
X0172244Y0128334D02*
X0166062Y0128334D01*
X0164280Y0126721D02*
X0158532Y0126721D01*
X0164280Y0126721D02*
X0169615Y0121387D01*
X0169615Y0107115D01*
X0166219Y0105955D02*
X0165466Y0105955D01*
X0165532Y0106721D02*
X0165532Y0107068D01*
X0165424Y0107752D01*
X0165210Y0108410D01*
X0164895Y0109027D01*
X0164488Y0109588D01*
X0163999Y0110077D01*
X0163438Y0110484D01*
X0162821Y0110799D01*
X0162163Y0111013D01*
X0161479Y0111121D01*
X0158532Y0111121D01*
X0158532Y0106721D01*
X0158532Y0106721D01*
X0158532Y0106721D01*
X0165532Y0106721D01*
X0165455Y0107553D02*
X0166034Y0107553D01*
X0166587Y0109152D02*
X0164805Y0109152D01*
X0162917Y0110750D02*
X0167215Y0110750D01*
X0167215Y0112349D02*
X0117360Y0112349D01*
X0117021Y0112530D02*
X0117793Y0112923D01*
X0118493Y0113432D01*
X0119105Y0114044D01*
X0119614Y0114744D01*
X0120007Y0115516D01*
X0120275Y0116339D01*
X0120410Y0117194D01*
X0120410Y0117427D01*
X0115110Y0117427D01*
X0115110Y0117827D01*
X0120410Y0117827D01*
X0120410Y0118060D01*
X0120275Y0118915D01*
X0120007Y0119738D01*
X0119614Y0120509D01*
X0119105Y0121210D01*
X0118493Y0121822D01*
X0117793Y0122331D01*
X0117021Y0122724D01*
X0116966Y0122742D01*
X0117912Y0123134D01*
X0119403Y0124625D01*
X0120210Y0126573D01*
X0120210Y0128681D01*
X0119403Y0130629D01*
X0117912Y0132120D01*
X0115964Y0132927D01*
X0113856Y0132927D01*
X0111908Y0132120D01*
X0110417Y0130629D01*
X0109610Y0128681D01*
X0109610Y0126573D01*
X0110417Y0124625D01*
X0111908Y0123134D01*
X0112854Y0122742D01*
X0112799Y0122724D01*
X0112028Y0122331D01*
X0111327Y0121822D01*
X0110715Y0121210D01*
X0110206Y0120509D01*
X0109813Y0119738D01*
X0109546Y0118915D01*
X0109410Y0118060D01*
X0109410Y0117827D01*
X0114710Y0117827D01*
X0114710Y0117427D01*
X0109410Y0117427D01*
X0109410Y0117194D01*
X0109546Y0116339D01*
X0109813Y0115516D01*
X0110206Y0114744D01*
X0110715Y0114044D01*
X0111327Y0113432D01*
X0112028Y0112923D01*
X0112799Y0112530D01*
X0112854Y0112512D01*
X0111908Y0112120D01*
X0110417Y0110629D01*
X0109610Y0108681D01*
X0109610Y0106573D01*
X0110417Y0104625D01*
X0111908Y0103134D01*
X0113856Y0102327D01*
X0115964Y0102327D01*
X0117912Y0103134D01*
X0119403Y0104625D01*
X0120210Y0106573D01*
X0120210Y0108681D01*
X0119403Y0110629D01*
X0117912Y0112120D01*
X0116966Y0112512D01*
X0117021Y0112530D01*
X0119009Y0113947D02*
X0122767Y0113947D01*
X0121873Y0115546D02*
X0120017Y0115546D01*
X0120402Y0117144D02*
X0121732Y0117144D01*
X0122224Y0118743D02*
X0120302Y0118743D01*
X0119700Y0120341D02*
X0123697Y0120341D01*
X0122893Y0123538D02*
X0118317Y0123538D01*
X0118331Y0121940D02*
X0165668Y0121940D01*
X0167215Y0120341D02*
X0163368Y0120341D01*
X0164841Y0118743D02*
X0167215Y0118743D01*
X0167215Y0117144D02*
X0165332Y0117144D01*
X0165191Y0115546D02*
X0167215Y0115546D01*
X0167215Y0113947D02*
X0164298Y0113947D01*
X0158532Y0110750D02*
X0158532Y0110750D01*
X0158532Y0109152D02*
X0158532Y0109152D01*
X0158532Y0107553D02*
X0158532Y0107553D01*
X0158532Y0105955D02*
X0158532Y0105955D01*
X0158532Y0104356D02*
X0158532Y0104356D01*
X0158532Y0102758D02*
X0158532Y0102758D01*
X0163045Y0102758D02*
X0174167Y0102758D01*
X0175765Y0104356D02*
X0171921Y0104356D01*
X0173011Y0105955D02*
X0177364Y0105955D01*
X0178962Y0107553D02*
X0173196Y0107553D01*
X0172643Y0109152D02*
X0180561Y0109152D01*
X0172568Y0101159D02*
X0025520Y0101159D01*
X0027118Y0099561D02*
X0122832Y0099561D01*
X0124526Y0102758D02*
X0117005Y0102758D01*
X0119135Y0104356D02*
X0122366Y0104356D01*
X0121732Y0105955D02*
X0119954Y0105955D01*
X0120210Y0107553D02*
X0121732Y0107553D01*
X0122423Y0109152D02*
X0120015Y0109152D01*
X0119282Y0110750D02*
X0124684Y0110750D01*
X0112461Y0112349D02*
X0019844Y0112349D01*
X0020030Y0110750D02*
X0110538Y0110750D01*
X0109805Y0109152D02*
X0021340Y0109152D01*
X0021943Y0107553D02*
X0109610Y0107553D01*
X0109866Y0105955D02*
X0021943Y0105955D01*
X0022323Y0104356D02*
X0110685Y0104356D01*
X0112816Y0102758D02*
X0023921Y0102758D01*
X0021929Y0097962D02*
X0021833Y0097962D01*
X0021943Y0096364D02*
X0023527Y0096364D01*
X0025126Y0094765D02*
X0021602Y0094765D01*
X0020662Y0093167D02*
X0026724Y0093167D01*
X0028323Y0091568D02*
X0018601Y0091568D01*
X0020811Y0089970D02*
X0029921Y0089970D01*
X0031520Y0088371D02*
X0021663Y0088371D01*
X0021943Y0086773D02*
X0033118Y0086773D01*
X0034717Y0085174D02*
X0021771Y0085174D01*
X0021071Y0083576D02*
X0036315Y0083576D01*
X0037914Y0081977D02*
X0019229Y0081977D01*
X0020685Y0080379D02*
X0039512Y0080379D01*
X0041111Y0078780D02*
X0021726Y0078780D01*
X0022126Y0077181D02*
X0042709Y0077181D01*
X0044308Y0075583D02*
X0022043Y0075583D01*
X0022007Y0075355D02*
X0022143Y0076210D01*
X0022143Y0076442D01*
X0016843Y0076442D01*
X0016843Y0071143D01*
X0017075Y0071143D01*
X0017930Y0071278D01*
X0018754Y0071545D01*
X0019525Y0071938D01*
X0020226Y0072447D01*
X0020838Y0073060D01*
X0021347Y0073760D01*
X0021740Y0074531D01*
X0022007Y0075355D01*
X0021461Y0073984D02*
X0045906Y0073984D01*
X0047505Y0072386D02*
X0020141Y0072386D01*
X0016843Y0072386D02*
X0016443Y0072386D01*
X0016443Y0073984D02*
X0016843Y0073984D01*
X0016843Y0075583D02*
X0016443Y0075583D01*
X0016443Y0070787D02*
X0049103Y0070787D01*
X0049243Y0069189D02*
X0016443Y0069189D01*
X0016443Y0067590D02*
X0049243Y0067590D01*
X0049243Y0065992D02*
X0042288Y0065992D01*
X0041571Y0066709D02*
X0038092Y0066709D01*
X0035631Y0064248D01*
X0035631Y0060769D01*
X0038092Y0058309D01*
X0041571Y0058309D01*
X0044031Y0060769D01*
X0044031Y0064248D01*
X0041571Y0066709D01*
X0043886Y0064393D02*
X0049243Y0064393D01*
X0049243Y0062795D02*
X0044031Y0062795D01*
X0044031Y0061196D02*
X0049243Y0061196D01*
X0049243Y0059598D02*
X0042860Y0059598D01*
X0041571Y0056709D02*
X0038092Y0056709D01*
X0035631Y0054248D01*
X0035631Y0050769D01*
X0038092Y0048309D01*
X0041571Y0048309D01*
X0044031Y0050769D01*
X0044031Y0054248D01*
X0041571Y0056709D01*
X0041879Y0056401D02*
X0049243Y0056401D01*
X0049243Y0057999D02*
X0016443Y0057999D01*
X0016443Y0056401D02*
X0037784Y0056401D01*
X0036185Y0054802D02*
X0016443Y0054802D01*
X0016443Y0053204D02*
X0035631Y0053204D01*
X0035631Y0051605D02*
X0016443Y0051605D01*
X0016443Y0050007D02*
X0036394Y0050007D01*
X0037992Y0048408D02*
X0016443Y0048408D01*
X0016443Y0046810D02*
X0049243Y0046810D01*
X0049243Y0048408D02*
X0041671Y0048408D01*
X0043269Y0050007D02*
X0049243Y0050007D01*
X0049243Y0051605D02*
X0044031Y0051605D01*
X0044031Y0053204D02*
X0049243Y0053204D01*
X0049243Y0054802D02*
X0043478Y0054802D01*
X0036803Y0059598D02*
X0016443Y0059598D01*
X0016443Y0061196D02*
X0035631Y0061196D01*
X0035631Y0062795D02*
X0016443Y0062795D01*
X0016443Y0064393D02*
X0035777Y0064393D01*
X0037375Y0065992D02*
X0016443Y0065992D01*
X0025254Y0045860D02*
X0023764Y0044369D01*
X0022957Y0042421D01*
X0022957Y0040313D01*
X0023764Y0038365D01*
X0025254Y0036874D01*
X0027202Y0036067D01*
X0029311Y0036067D01*
X0031259Y0036874D01*
X0032750Y0038365D01*
X0033557Y0040313D01*
X0033557Y0042421D01*
X0032750Y0044369D01*
X0031259Y0045860D01*
X0029311Y0046667D01*
X0027202Y0046667D01*
X0025254Y0045860D01*
X0024606Y0045211D02*
X0016443Y0045211D01*
X0016443Y0043613D02*
X0023450Y0043613D01*
X0022957Y0042014D02*
X0016443Y0042014D01*
X0016443Y0040416D02*
X0022957Y0040416D01*
X0023576Y0038817D02*
X0016443Y0038817D01*
X0016443Y0037219D02*
X0024910Y0037219D01*
X0031604Y0037219D02*
X0049328Y0037219D01*
X0047327Y0038817D02*
X0032937Y0038817D01*
X0033557Y0040416D02*
X0046561Y0040416D01*
X0046343Y0042014D02*
X0033557Y0042014D01*
X0033063Y0043613D02*
X0046575Y0043613D01*
X0047362Y0045211D02*
X0031908Y0045211D01*
X0031197Y0026029D02*
X0047897Y0026029D01*
X0048060Y0026192D02*
X0047447Y0025580D01*
X0046938Y0024879D01*
X0046545Y0024108D01*
X0046278Y0023285D01*
X0046143Y0022430D01*
X0046143Y0022197D01*
X0051442Y0022197D01*
X0051442Y0027497D01*
X0051210Y0027497D01*
X0050355Y0027361D01*
X0049531Y0027094D01*
X0048760Y0026701D01*
X0048060Y0026192D01*
X0046710Y0024431D02*
X0032829Y0024431D01*
X0033564Y0022832D02*
X0046206Y0022832D01*
X0046195Y0021234D02*
X0028457Y0021234D01*
X0028057Y0021234D02*
X0016443Y0021234D01*
X0016443Y0022832D02*
X0022950Y0022832D01*
X0023684Y0024431D02*
X0016443Y0024431D01*
X0016443Y0026029D02*
X0025316Y0026029D01*
X0028057Y0026029D02*
X0028457Y0026029D01*
X0028457Y0024431D02*
X0028057Y0024431D01*
X0028057Y0022832D02*
X0028457Y0022832D01*
X0033477Y0019635D02*
X0046673Y0019635D01*
X0047825Y0018037D02*
X0032635Y0018037D01*
X0023878Y0018037D02*
X0016443Y0018037D01*
X0016443Y0019635D02*
X0023036Y0019635D01*
X0051442Y0019635D02*
X0051843Y0019635D01*
X0051843Y0018037D02*
X0051442Y0018037D01*
X0051442Y0021234D02*
X0051843Y0021234D01*
X0051843Y0022832D02*
X0051442Y0022832D01*
X0051442Y0024431D02*
X0051843Y0024431D01*
X0051843Y0026029D02*
X0051442Y0026029D01*
X0053957Y0037219D02*
X0134247Y0037219D01*
X0132649Y0038817D02*
X0055958Y0038817D01*
X0051643Y0041997D02*
X0051643Y0071643D01*
X0076721Y0096721D01*
X0128532Y0096721D01*
X0123547Y0093167D02*
X0076561Y0093167D01*
X0072970Y0096364D02*
X0030316Y0096364D01*
X0031914Y0094765D02*
X0071371Y0094765D01*
X0069772Y0093167D02*
X0033513Y0093167D01*
X0035111Y0091568D02*
X0068174Y0091568D01*
X0066575Y0089970D02*
X0036710Y0089970D01*
X0038308Y0088371D02*
X0064977Y0088371D01*
X0063378Y0086773D02*
X0039907Y0086773D01*
X0041505Y0085174D02*
X0061780Y0085174D01*
X0060181Y0083576D02*
X0043104Y0083576D01*
X0044702Y0081977D02*
X0058583Y0081977D01*
X0056984Y0080379D02*
X0046301Y0080379D01*
X0047899Y0078780D02*
X0055386Y0078780D01*
X0053787Y0077181D02*
X0049498Y0077181D01*
X0051096Y0075583D02*
X0052189Y0075583D01*
X0051643Y0071643D02*
X0016643Y0106643D01*
X0021263Y0113947D02*
X0110812Y0113947D01*
X0109803Y0115546D02*
X0021925Y0115546D01*
X0021943Y0117144D02*
X0109418Y0117144D01*
X0109518Y0118743D02*
X0022137Y0118743D01*
X0023735Y0120341D02*
X0110121Y0120341D01*
X0111489Y0121940D02*
X0025334Y0121940D01*
X0026932Y0123538D02*
X0111503Y0123538D01*
X0110205Y0125137D02*
X0028531Y0125137D01*
X0030129Y0126735D02*
X0109610Y0126735D01*
X0109610Y0128334D02*
X0031728Y0128334D01*
X0033326Y0129932D02*
X0110129Y0129932D01*
X0111319Y0131531D02*
X0034925Y0131531D01*
X0036523Y0133129D02*
X0123629Y0133129D01*
X0122921Y0129932D02*
X0119692Y0129932D01*
X0120210Y0128334D02*
X0121830Y0128334D01*
X0121532Y0126735D02*
X0120210Y0126735D01*
X0119616Y0125137D02*
X0121821Y0125137D01*
X0128532Y0125137D02*
X0128532Y0125137D01*
X0128532Y0126735D02*
X0128532Y0126735D01*
X0128532Y0128334D02*
X0128532Y0128334D01*
X0128532Y0129932D02*
X0128532Y0129932D01*
X0128532Y0123538D02*
X0128532Y0123538D01*
X0118501Y0131531D02*
X0193478Y0131531D01*
X0191880Y0133129D02*
X0163436Y0133129D01*
X0164853Y0134728D02*
X0174736Y0134728D01*
X0175371Y0134093D02*
X0172794Y0136670D01*
X0172794Y0138493D01*
X0177194Y0138493D01*
X0181594Y0138493D01*
X0181594Y0140315D01*
X0179016Y0142893D01*
X0177194Y0142893D01*
X0177194Y0138493D01*
X0177194Y0138493D01*
X0181594Y0138493D01*
X0181594Y0136670D01*
X0179016Y0134093D01*
X0177194Y0134093D01*
X0177194Y0138493D01*
X0177194Y0138493D01*
X0177194Y0138493D01*
X0177194Y0142893D01*
X0175371Y0142893D01*
X0172794Y0140315D01*
X0172794Y0138493D01*
X0177194Y0138493D01*
X0177194Y0134093D01*
X0175371Y0134093D01*
X0177194Y0134728D02*
X0177194Y0134728D01*
X0177194Y0136326D02*
X0177194Y0136326D01*
X0177194Y0137925D02*
X0177194Y0137925D01*
X0177194Y0138493D02*
X0177194Y0138493D01*
X0177194Y0139523D02*
X0177194Y0139523D01*
X0177194Y0141122D02*
X0177194Y0141122D01*
X0177194Y0142720D02*
X0177194Y0142720D01*
X0179189Y0142720D02*
X0182289Y0142720D01*
X0180787Y0141122D02*
X0183887Y0141122D01*
X0185486Y0139523D02*
X0181594Y0139523D01*
X0181594Y0137925D02*
X0187084Y0137925D01*
X0188683Y0136326D02*
X0181250Y0136326D01*
X0179651Y0134728D02*
X0190281Y0134728D01*
X0201603Y0136643D02*
X0204143Y0136643D01*
X0201603Y0136643D02*
X0182902Y0155343D01*
X0169910Y0155343D01*
X0158532Y0166721D01*
X0159548Y0152312D02*
X0019689Y0152312D01*
X0020067Y0150713D02*
X0124594Y0150713D01*
X0122804Y0153910D02*
X0021152Y0153910D01*
X0016603Y0156721D02*
X0128532Y0156721D01*
X0123607Y0160304D02*
X0020437Y0160304D01*
X0016603Y0156721D02*
X0016564Y0156682D01*
X0021355Y0149114D02*
X0036228Y0149114D01*
X0036721Y0146721D02*
X0128532Y0146721D01*
X0124616Y0142720D02*
X0036115Y0142720D01*
X0037713Y0144319D02*
X0122395Y0144319D01*
X0122795Y0139523D02*
X0032918Y0139523D01*
X0034516Y0141122D02*
X0173600Y0141122D01*
X0172794Y0139523D02*
X0164270Y0139523D01*
X0165180Y0137925D02*
X0172794Y0137925D01*
X0173138Y0136326D02*
X0165332Y0136326D01*
X0163861Y0129932D02*
X0173562Y0129932D01*
X0164069Y0123538D02*
X0163889Y0123538D01*
X0164853Y0104356D02*
X0167309Y0104356D01*
X0164233Y0099561D02*
X0170970Y0099561D01*
X0173559Y0095362D02*
X0173559Y0095362D01*
X0183056Y0085174D02*
X0187140Y0085174D01*
X0185550Y0083576D02*
X0181458Y0083576D01*
X0179859Y0081977D02*
X0185550Y0081977D01*
X0185550Y0080379D02*
X0178261Y0080379D01*
X0171209Y0076721D02*
X0158532Y0076721D01*
X0171209Y0076721D02*
X0191131Y0096643D01*
X0204143Y0096643D01*
X0200123Y0093167D02*
X0191049Y0093167D01*
X0189450Y0091568D02*
X0202184Y0091568D01*
X0199974Y0089970D02*
X0187852Y0089970D01*
X0186253Y0088371D02*
X0199122Y0088371D01*
X0198843Y0086773D02*
X0184655Y0086773D01*
X0189950Y0085174D02*
X0189950Y0085174D01*
X0189950Y0083576D02*
X0189950Y0083576D01*
X0189950Y0081977D02*
X0189950Y0081977D01*
X0189950Y0080379D02*
X0189950Y0080379D01*
X0189950Y0078780D02*
X0189950Y0078780D01*
X0193191Y0078780D02*
X0199059Y0078780D01*
X0200100Y0080379D02*
X0194350Y0080379D01*
X0194350Y0081977D02*
X0201556Y0081977D01*
X0199714Y0083576D02*
X0194350Y0083576D01*
X0192759Y0085174D02*
X0199014Y0085174D01*
X0203693Y0070787D02*
X0194317Y0070787D01*
X0195915Y0069189D02*
X0203693Y0069189D01*
X0189378Y0035620D02*
X0174959Y0035620D01*
X0168449Y0032423D02*
X0184836Y0032423D01*
X0184174Y0030825D02*
X0169111Y0030825D01*
X0169483Y0029226D02*
X0183802Y0029226D01*
X0183802Y0027628D02*
X0169483Y0027628D01*
X0169056Y0026029D02*
X0184229Y0026029D01*
X0184891Y0024431D02*
X0168394Y0024431D01*
X0166808Y0022832D02*
X0186477Y0022832D01*
X0186345Y0034022D02*
X0166940Y0034022D01*
X0136115Y0030825D02*
X0121121Y0030825D01*
X0120606Y0029226D02*
X0134833Y0029226D01*
X0114555Y0035620D02*
X0106124Y0035620D01*
X0107693Y0034022D02*
X0112957Y0034022D01*
X0112321Y0032423D02*
X0107693Y0032423D01*
X0107693Y0030825D02*
X0112321Y0030825D01*
X0112836Y0029226D02*
X0106347Y0029226D01*
X0106487Y0024431D02*
X0113648Y0024431D01*
X0112521Y0022832D02*
X0107693Y0022832D01*
X0107693Y0021234D02*
X0112521Y0021234D01*
X0112710Y0019635D02*
X0107583Y0019635D01*
X0105984Y0018037D02*
X0114309Y0018037D01*
X0112378Y0062795D02*
X0054043Y0062795D01*
X0054043Y0064393D02*
X0110779Y0064393D01*
X0110156Y0065992D02*
X0054043Y0065992D01*
X0054043Y0067590D02*
X0110156Y0067590D01*
X0110683Y0069189D02*
X0054043Y0069189D01*
X0074568Y0097962D02*
X0028717Y0097962D01*
X0016643Y0116643D02*
X0036721Y0136721D01*
X0128532Y0136721D01*
X0162449Y0142720D02*
X0175199Y0142720D01*
X0167540Y0144319D02*
X0164670Y0144319D01*
X0165332Y0145917D02*
X0165942Y0145917D01*
X0191446Y0116643D02*
X0204143Y0116643D01*
X0158532Y0182683D02*
X0158532Y0182683D01*
X0158532Y0184282D02*
X0158532Y0184282D01*
X0158532Y0185880D02*
X0158532Y0185880D01*
X0158532Y0187479D02*
X0158532Y0187479D01*
X0158532Y0189077D02*
X0158532Y0189077D01*
X0158532Y0190676D02*
X0158532Y0190676D01*
X0176957Y0190676D02*
X0176958Y0190676D01*
X0176957Y0189077D02*
X0176958Y0189077D01*
X0176957Y0187479D02*
X0176958Y0187479D01*
X0122841Y0193873D02*
X0021137Y0193873D01*
X0021799Y0195471D02*
X0121904Y0195471D01*
X0121732Y0197070D02*
X0021864Y0197070D01*
X0021478Y0198668D02*
X0122193Y0198668D01*
X0123538Y0200267D02*
X0020474Y0200267D01*
X0016603Y0166721D02*
X0016564Y0166682D01*
X0021943Y0147516D02*
X0034122Y0147516D01*
X0032523Y0145917D02*
X0021943Y0145917D01*
X0021417Y0144319D02*
X0030925Y0144319D01*
X0029326Y0142720D02*
X0020216Y0142720D01*
X0019658Y0141122D02*
X0027728Y0141122D01*
X0026129Y0139523D02*
X0021186Y0139523D01*
X0021848Y0137925D02*
X0024531Y0137925D01*
X0022932Y0136326D02*
X0021943Y0136326D01*
X0026523Y0133129D02*
X0029735Y0133129D01*
X0028137Y0131531D02*
X0024925Y0131531D01*
X0023326Y0129932D02*
X0026538Y0129932D01*
X0024940Y0128334D02*
X0021728Y0128334D01*
X0021943Y0126735D02*
X0023341Y0126735D01*
X0016643Y0126643D02*
X0036721Y0146721D01*
X0034531Y0137925D02*
X0031319Y0137925D01*
X0029720Y0136326D02*
X0032932Y0136326D01*
X0031334Y0134728D02*
X0028122Y0134728D01*
D20*
X0147469Y0064792D03*
X0176643Y0060363D03*
X0180442Y0075127D03*
X0169615Y0107115D03*
M02*
